<?xml version="1.0" encoding="UTF-8" standalone="no"?>
<!-- Created with Inkscape (http://www.inkscape.org/) -->

<svg
   xmlns:dc="http://purl.org/dc/elements/1.1/"
   xmlns:cc="http://creativecommons.org/ns#"
   xmlns:rdf="http://www.w3.org/1999/02/22-rdf-syntax-ns#"
   xmlns:svg="http://www.w3.org/2000/svg"
   xmlns="http://www.w3.org/2000/svg"
   xmlns:sodipodi="http://sodipodi.sourceforge.net/DTD/sodipodi-0.dtd"
   xmlns:inkscape="http://www.inkscape.org/namespaces/inkscape"
   width="561"
   height="512"
   viewBox="0 0 561 512"
   version="1.1"
   id="svg8"
   inkscape:version="0.92.4 (5da689c313, 2019-01-14)"
   sodipodi:docname="U+4F7F.svg">
  <defs
     id="defs2" />
  <sodipodi:namedview
     id="base"
     pagecolor="#ffffff"
     bordercolor="#666666"
     borderopacity="1.0"
     inkscape:pageopacity="0.0"
     inkscape:pageshadow="2"
     inkscape:zoom="2.8"
     inkscape:cx="307.77911"
     inkscape:cy="550.50603"
     inkscape:document-units="px"
     inkscape:current-layer="layer1"
     showgrid="false"
     units="px"
     scale-x="1"
     inkscape:window-width="1920"
     inkscape:window-height="1017"
     inkscape:window-x="-8"
     inkscape:window-y="-8"
     inkscape:window-maximized="1"
     showguides="false" />
  <metadata
     id="metadata5">
    <rdf:RDF>
      <cc:Work
         rdf:about="">
        <dc:format>image/svg+xml</dc:format>
        <dc:type
           rdf:resource="http://purl.org/dc/dcmitype/StillImage" />
        <dc:title></dc:title>
      </cc:Work>
    </rdf:RDF>
  </metadata>
  <g
     inkscape:label="圖層 1"
     inkscape:groupmode="layer"
     id="layer1"
     transform="translate(0,-161.53331)">
    <path
       style="fill:#000000;stroke:none;stroke-width:1px;stroke-linecap:butt;stroke-linejoin:miter;stroke-opacity:1;fill-opacity:1"
       d="M 102.14286,244.96188 C 102.14286,244.96188 143.57143,246.39045 160.71429,284.2476 143.57143,297.10474 3.5714286,417.81902 3.5714286,417.81902 3.5714286,417.81902 3.5714286,407.10474 6.4285714,405.67617 9.2857143,404.2476 110.35714,302.81902 109.64285,277.81902 108.92857,252.81902 102.14286,244.96188 102.14286,244.96188 Z"
       id="path4554"
       inkscape:connector-curvature="0"
       sodipodi:nodetypes="cccssc" />
    <path
       style="fill:#000000;stroke:none;stroke-width:1px;stroke-linecap:butt;stroke-linejoin:miter;stroke-opacity:1;fill-opacity:1"
       d="M 84.285714,370.67617 112.14286,424.2476 102.85714,450.67617 C 99.54595,480.64975 97.142857,569.96188 97.142857,569.96188 L 86.428572,601.39045 102.14286,630.67617 118.57143,610.67617 112.85714,554.96188 C 108.20726,558.44929 121.40721,437.4779 129.28571,424.60474 135.45769,414.51996 105,377.81902 84.285714,370.67617 Z"
       id="path4556"
       inkscape:connector-curvature="0"
       sodipodi:nodetypes="ccccccccsc" />
    <path
       style="fill:#000000;stroke:none;stroke-width:1px;stroke-linecap:butt;stroke-linejoin:miter;stroke-opacity:1;fill-opacity:1"
       d="M 278.57143,257.81902 C 278.60455,252.08502 290,244.96188 290,244.96188 290,244.96188 297.46962,251.63435 302.14286,252.81902 328.80306,248.50257 336.17778,246.64125 357.14286,248.53331 378.53207,250.46364 378.57143,250.67617 378.57143,250.67617 378.56561,250.67617 382.14035,257.95387 342.85714,270.67617 305.80383,282.67629 322.00345,280.45474 302.14286,284.96188 293.94918,281.13822 283.60929,268.66699 278.57143,257.81902 Z"
       id="path4558"
       inkscape:connector-curvature="0"
       sodipodi:nodetypes="cccscscc" />
    <path
       style="fill:#000000;stroke:none;stroke-width:1px;stroke-linecap:butt;stroke-linejoin:miter;stroke-opacity:1;fill-opacity:1"
       d="M 270.71429,337.10474 C 270.71429,337.10474 272.85714,324.2476 282.14286,324.2476 291.42857,324.2476 297.84279,327.97416 305.35714,326.03331 337.75201,317.66619 373.50888,308.33432 397.85714,308.53331 402.76544,308.57342 403.55666,300.45618 407.14286,297.10474 410.76266,293.72191 419.28571,288.53331 419.28571,288.53331 L 436.42857,302.10474 435,317.81902 C 435,317.81902 422.94995,318.51894 418.57143,322.10474 399.34801,337.84781 384.61109,382.20895 374.64286,388.17617 366.28048,393.18209 381.91692,335.93858 380.71429,333.53331 L 375,332.81902 310,351.39045 297.14286,362.10474 C 297.14286,362.10474 290.31921,361.0507 287.85714,358.89045 284.65562,356.08138 286.11554,348.99761 282.14286,347.46188 276.10154,345.12648 268.94948,338.16363 270.71429,337.10474 Z"
       id="path4560"
       inkscape:connector-curvature="0"
       sodipodi:nodetypes="csssacccssccccasc" />
    <path
       style="fill:#000000;stroke:none;stroke-width:1px;stroke-linecap:butt;stroke-linejoin:miter;stroke-opacity:1;fill-opacity:1"
       d="M 201.42857,330.67617 C 201.42857,330.67617 212.02574,333.97985 215.71429,337.81902 236.19548,359.13654 258.57143,414.22639 258.57143,409.96188 255.12799,414.55314 263.8786,411.47819 265.71429,409.96189 270.57453,405.94725 270.81409,395.63822 269.28571,391.39045 262.32034,372.03177 258.9663,348.36342 247.14286,330.67617 242.4455,326.06326 231.83689,325.34626 224.28571,322.81902 216.64561,319.45935 201.42857,324.64879 201.42857,330.67617 Z"
       id="path4562"
       inkscape:connector-curvature="0"
       sodipodi:nodetypes="cscasccc" />
    <path
       style="fill:#000000;stroke:none;stroke-width:1px;stroke-linecap:butt;stroke-linejoin:miter;stroke-opacity:1;fill-opacity:1"
       d="M 254.46428,417.9976 C 253.3725,424.22505 268.57143,430.67617 268.57143,430.67617 316.12652,411.68194 338.1425,411.50601 369.28572,404.60474 375.83334,404.71776 382.38095,401.45739 388.92857,397.81902 L 390.71429,392.9976 C 380.89286,384.1357 371.07143,386.23447 361.25,384.2476 L 281.78571,406.92617 C 281.78571,406.92617 256.16116,408.31874 254.46428,417.9976 Z"
       id="path4564"
       inkscape:connector-curvature="0"
       sodipodi:nodetypes="acccccca" />
    <path
       style="fill:#000000;stroke:none;stroke-width:1px;stroke-linecap:butt;stroke-linejoin:miter;stroke-opacity:1;fill-opacity:1"
       d="M 181.42858,411.39045 C 190.40812,409.44484 198.60438,407.02926 212.14286,407.81902 214.97115,404.99073 267.0139,434.0639 288.57143,453.17617 316.68255,478.09867 350.4849,496.46506 384.64286,512.10474 413.15801,525.16079 443.91524,532.85258 474.28572,540.67617 500.96442,547.54874 555.35714,556.7476 555.35714,556.7476 555.35714,556.7476 516.9789,568.63502 497.14286,571.03331 493.24269,571.50486 489.21036,570.26757 485.35714,571.03331 474.3633,573.21807 454.28572,583.89045 454.28572,583.89045 454.28572,583.89045 432.5,580.31902 378.57143,550.31902 324.64286,520.31902 340.75638,522.7835 322.5,508.17617 305.28925,494.40547 272.14286,465.31902 272.14286,465.31902 272.14286,465.31902 236.78571,432.81902 231.07143,431.03331 225.35714,429.2476 181.42858,411.39045 181.42858,411.39045 Z"
       id="path4566"
       inkscape:connector-curvature="0"
       sodipodi:nodetypes="ccsaacaacsacsc" />
    <path
       style="fill:#000000;stroke:none;stroke-width:1px;stroke-linecap:butt;stroke-linejoin:miter;stroke-opacity:1;fill-opacity:1"
       d="M 294.64286,179.96188 315.35714,176.74759 C 315.35714,176.74759 356.78571,195.67617 349.28571,211.03331 341.78571,226.39045 339.31505,225.1441 336.42857,233.17617 331.00106,248.27902 328.57143,280.67617 328.57143,280.67617 L 329.64285,368.53331 330.71429,399.2476 326.42857,468.89045 C 326.42857,468.89045 312.14286,529.60474 263.57143,556.39045 215,583.17617 186.07143,595.67617 153.57143,584.96188 180,571.39046 211.78572,575.31902 278.57143,512.10474 324.4144,449.00998 315.4228,377.89721 317.85715,377.81902 315.58558,330.52689 318.38947,274.09894 320.71429,218.53331 320.71429,218.53331 323.57653,206.82861 321.78571,201.39045 320.56997,197.69861 317.20933,195.02316 314.28571,192.46188 308.44808,187.34774 294.64286,179.96188 294.64286,179.96188 Z"
       id="path4568"
       inkscape:connector-curvature="0"
       sodipodi:nodetypes="ccsaccccsccccaac" />
  </g>
</svg>
