<?xml version="1.0" encoding="UTF-8" standalone="no"?>
<!-- Created with Inkscape (http://www.inkscape.org/) -->

<svg
   xmlns:dc="http://purl.org/dc/elements/1.1/"
   xmlns:cc="http://creativecommons.org/ns#"
   xmlns:rdf="http://www.w3.org/1999/02/22-rdf-syntax-ns#"
   xmlns:svg="http://www.w3.org/2000/svg"
   xmlns="http://www.w3.org/2000/svg"
   xmlns:sodipodi="http://sodipodi.sourceforge.net/DTD/sodipodi-0.dtd"
   xmlns:inkscape="http://www.inkscape.org/namespaces/inkscape"
   width="512"
   height="512"
   viewBox="0 0 512 512"
   version="1.1"
   id="svg4564"
   inkscape:version="0.92.4 (5da689c313, 2019-01-14)"
   sodipodi:docname="U+4FE1.svg">
  <defs
     id="defs4558" />
  <sodipodi:namedview
     id="base"
     pagecolor="#ffffff"
     bordercolor="#666666"
     borderopacity="1.0"
     inkscape:pageopacity="0.0"
     inkscape:pageshadow="2"
     inkscape:zoom="1.979899"
     inkscape:cx="320.81842"
     inkscape:cy="321.55055"
     inkscape:document-units="px"
     inkscape:current-layer="layer1"
     showgrid="false"
     units="px"
     inkscape:window-width="1920"
     inkscape:window-height="1005"
     inkscape:window-x="-9"
     inkscape:window-y="-9"
     inkscape:window-maximized="1"
     showguides="false">
    <inkscape:grid
       type="xygrid"
       id="grid4588" />
  </sodipodi:namedview>
  <metadata
     id="metadata4561">
    <rdf:RDF>
      <cc:Work
         rdf:about="">
        <dc:format>image/svg+xml</dc:format>
        <dc:type
           rdf:resource="http://purl.org/dc/dcmitype/StillImage" />
        <dc:title></dc:title>
      </cc:Work>
    </rdf:RDF>
  </metadata>
  <g
     inkscape:label="圖層 1"
     inkscape:groupmode="layer"
     id="layer1"
     transform="translate(0,-161.53331)">
    <path
       style="fill:#000000;stroke:none;stroke-width:1px;stroke-linecap:butt;stroke-linejoin:miter;stroke-opacity:1;fill-opacity:1"
       d="M 93.439111,203.3073 C 107.58125,200.78192 102.80233,200.47735 107.58125,200.78192 116.56196,201.35428 127.03145,202.44588 133.34014,208.86313 140.84674,216.49892 140.37454,229.16455 142.43151,239.67279 142.75654,241.33326 142.06489,243.27339 142.93659,244.72355 143.87479,246.28435 146.7312,246.09503 147.48227,247.75401 148.53303,250.07496 148.10595,253.37528 146.47212,255.33015 143.29673,259.1295 137.04625,258.36755 132.32998,259.87584 128.62783,261.05981 124.62938,261.54796 121.21831,263.41138 114.5026,267.08008 109.22409,272.93428 103.54064,278.05859 94.610171,286.11048 86.690161,295.23612 77.781746,303.3124 71.760993,308.77076 64.892851,313.2763 59.093924,318.96977 55.432269,322.56483 52.822875,327.1719 48.992398,330.58652 43.659028,335.34088 38.320199,341.30402 31.314729,342.70835 27.267873,343.51959 19.192898,340.18297 19.192898,340.18297 19.192898,340.18297 27.850034,331.99135 31.819805,327.55606 36.133541,322.73647 39.655042,317.24751 43.941636,312.40377 50.963808,304.46889 58.905271,297.39348 66.164992,289.67534 69.431657,286.2024 72.860073,282.85219 75.761441,279.06874 79.54103,274.14007 81.628684,267.95538 85.862967,263.41138 87.010727,262.17967 88.796998,261.64976 89.903577,260.38092 92.182165,257.76822 92.71009,253.93179 94.95434,251.28954 98.290582,247.36164 103.96564,245.80205 107.07617,241.6931 109.7182,238.20302 112.62755,233.91987 112.12693,229.57126 111.53378,224.41886 106.95577,220.34009 103.03556,216.94436 99.734264,214.08474 103.03556,216.94436 91.418806,210.88344 93.439111,203.3073 91.724348,204.82498 93.439111,203.3073 Z"
       id="path829"
       inkscape:connector-curvature="0"
       sodipodi:nodetypes="caaaaaaaaaaaaacaaaaaaaaaacc" />
    <path
       style="fill:#000000;stroke:none;stroke-width:1px;stroke-linecap:butt;stroke-linejoin:miter;stroke-opacity:1;fill-opacity:1"
       d="M 77.27667,322.5053 C 77.27667,322.5053 89.943901,320.90645 95.964492,322.5053 101.21201,323.89885 106.31615,326.69927 110.10663,330.58652 113.57748,334.14598 116.66563,339.90992 117.17769,343.71851 114.79571,355.32874 111.19267,358.27889 109.60155,365.94186 108.33097,372.06106 109.33608,378.5062 108.08632,384.62968 107.34108,388.28119 104.74279,391.51445 104.55079,395.23628 104.39086,398.33654 106.57855,401.22328 106.57109,404.32766 106.55283,411.92433 102.48901,419.01633 101.52033,426.55101 100.18862,436.90943 100.63745,447.42284 100.51018,457.86574 100.24961,479.24638 99.25881,500.70047 101.01526,522.01043 101.5473,528.46543 102.59803,534.8903 104.04571,541.20333 105.34328,546.86178 109.41752,552.0744 109.09648,557.87084 108.81286,562.99172 103.03556,572.01298 103.03556,572.01298 103.03556,572.01298 96.419196,571.02682 94.95434,568.47744 88.380851,557.03719 86.58543,555.88779 78.286823,537.66779 77.828356,530.27229 83.441689,525.42999 84.852815,518.97997 86.096262,513.29637 86.051181,507.40394 86.471813,501.60113 86.89343,495.78475 87.055907,489.95243 87.378195,484.1297 87.853541,475.54171 88.246362,466.94758 88.893424,458.37082 89.860084,445.55781 91.507647,432.80137 92.428958,419.98502 93.130036,410.23233 93.238671,400.44297 93.944187,390.6906 94.468799,383.43887 95.964492,368.97232 95.964492,368.97232 95.964492,368.97232 95.543617,361.5674 95.459416,357.86064 95.356185,353.31613 96.697403,348.59744 95.459416,344.22358 94.759525,341.75084 93.150652,339.55627 91.418806,337.65759 88.582381,334.5479 84.056441,333.27713 81.31728,330.08144 79.454651,327.90837 77.27667,322.5053 77.27667,322.5053 Z"
       id="path831"
       inkscape:connector-curvature="0"
       sodipodi:nodetypes="caacaaaaaaaaacscaaaaaacaaaac" />
    <path
       style="fill:#000000;stroke:none;stroke-width:1px;stroke-linecap:butt;stroke-linejoin:miter;stroke-opacity:1;fill-opacity:1"
       d="M 244.96199,186.1347 C 247.26383,183.537 251.76356,184.68486 255.06352,183.60932 261.45436,181.52639 267.0535,176.59917 273.75134,176.03318 282.33998,175.30741 290.98726,178.42599 299.00516,181.58902 303.9204,183.52806 309.01958,185.82368 312.64221,189.67024 312.64221,189.67024 320.67788,200.8064 321.73359,207.34791 322.60237,212.7311 320.18179,218.14512 319.20821,223.51035 318.31802,228.41604 317.89525,233.47691 316.17775,238.15756 314.72438,242.11839 314.19093,248.17279 310.11683,249.26924 304.79144,250.70244 298.84312,245.39314 295.9747,240.68294 293.4292,236.50302 296.788,230.57734 294.96455,226.03572 292.51492,219.9345 287.69451,214.69521 282.33764,210.88344 274.56693,205.35406 263.44808,203.87988 255.56859,200.78192 251.17015,199.05259 257.85736,199.9785 243.95185,194.21592 241.14795,193.05396 243.1616,188.1665 244.96199,186.1347 Z"
       id="path833"
       inkscape:connector-curvature="0"
       sodipodi:nodetypes="aaaasaaaaaaassa" />
    <path
       style="fill:#000000;stroke:none;stroke-width:1px;stroke-linecap:butt;stroke-linejoin:miter;stroke-opacity:1;fill-opacity:1"
       d="M 160.10918,251.28954 C 154.04826,264.42153 154.03809,259.60048 154.04826,264.42153 154.06002,269.99519 158.5632,274.62085 161.11933,279.57382 164.40419,285.93884 167.07156,289.09709 171.72593,298.26164 171.72593,298.26164 182.75442,296.15149 187.3833,293.21088 190.29911,291.35854 192.20745,287.90529 194.45437,285.63473 227.08507,269.40803 259.88418,260.9239 295.46962,250.78447 301.71113,250.51206 305.54458,253.97283 310.62191,253.30985 318.31754,252.30498 324.28354,245.50397 331.83511,243.7134 339.86881,241.80851 348.41824,243.92461 356.58385,242.70325 363.81299,241.62196 377.79705,237.14741 377.79705,237.14741 L 419.21331,237.65249 C 434.19724,244.49385 452.21162,244.10575 467.19555,247.24893 467.19555,247.24893 475.10308,246.52643 477.29708,243.7134 479.58438,240.78075 479.42052,236.15035 478.30723,232.60172 476.66181,227.35692 472.20883,223.1199 467.70063,219.97482 458.74682,213.72834 447.6545,207.03667 436.89098,208.86314 433.46909,209.4438 431.95546,213.96248 428.80975,215.42912 340.11784,235.40656 275.43672,242.54423 197.98989,259.87584 193.63995,260.8493 189.28549,262.91718 184.85792,262.40123 175.87578,261.35453 172.4172,253.52004 160.10918,251.28954 Z"
       id="path835"
       inkscape:connector-curvature="0"
       sodipodi:nodetypes="caacaccaaacccaaaacsac" />
    <path
       style="fill:#000000;stroke:none;stroke-width:1px;stroke-linecap:butt;stroke-linejoin:miter;stroke-opacity:1;fill-opacity:1"
       d="M 252.03306,307.35301 C 252.03306,307.35301 261.15819,306.99027 265.67012,306.34286 268.05621,306.00048 270.35316,305.15626 272.74119,304.82763 275.41498,304.45967 280.82241,304.32255 280.82241,304.32255 280.82241,304.32255 310.96603,289.27642 326.78435,291.19057 332.17444,291.84282 337.44761,295.10335 340.92649,299.27179 342.87124,301.60202 346.87238,307.01415 343.95694,307.85809 324.76404,313.41393 331.12973,314.16138 324.25896,315.93931 321.46902,316.66126 318.48874,316.33729 315.67267,316.94946 310.8341,318.00129 305.75654,318.91463 301.53054,321.49515 296.6536,324.47315 294.3454,336.49486 289.40871,333.61698 280.15083,328.22003 272.42822,328.64861 256.57875,318.96977 253.02997,316.80263 252.03306,307.35301 252.03306,307.35301 Z"
       id="path837"
       inkscape:connector-curvature="0"
       sodipodi:nodetypes="caacaasaaassc" />
    <path
       style="fill:#000000;stroke:none;stroke-width:1px;stroke-linecap:butt;stroke-linejoin:miter;stroke-opacity:1;fill-opacity:1"
       d="M 234.86047,367.45709 C 255.06352,364.42663 248.36295,365.64085 255.06352,364.42663 263.02386,362.98414 270.92364,361.2137 278.8021,359.37587 289.4593,356.88983 299.70227,352.01421 310.62191,351.29465 319.24871,350.72618 336.3808,354.3251 336.3808,354.3251 336.3808,354.3251 337.10203,362.74066 334.86557,365.94186 332.36421,369.52224 327.22825,370.20275 323.24882,372.00277 316.01315,375.27569 308.04321,376.8718 301.02546,380.58907 296.32075,383.08113 292.63748,387.26402 287.89348,389.68044 284.71464,391.29962 281.35893,393.27423 277.79195,393.21598 272.19619,393.1246 267.13529,389.6678 262.13459,387.15506 257.33479,384.74327 252.86061,381.7022 248.49753,378.56877 243.73486,375.14838 238.36186,377.15292 234.86047,367.45709 Z"
       id="path839"
       inkscape:connector-curvature="0"
       sodipodi:nodetypes="caaacaaaaaaac" />
    <path
       style="fill:#000000;stroke:none;stroke-width:1px;stroke-linecap:butt;stroke-linejoin:miter;stroke-opacity:1;fill-opacity:1"
       d="M 202.38764,422.71962 C 202.38764,422.71962 212.38593,421.56801 216.67772,421.50025 225.1807,421.366 242.72332,424.87618 254.05337,431.60177 263.97335,443.0516 264.30381,455.97465 268.58329,468.47235 270.57212,474.28048 272.40361,480.16057 273.75134,486.15001 277.2695,501.78502 281.50066,517.60217 281.32748,533.62718 281.26646,539.27378 278.29703,550.2947 278.29703,550.2947 278.29703,550.2947 268.46982,549.20895 265.16504,546.00155 258.03777,539.08429 258.16603,527.40491 255.06352,517.96982 252.48444,510.12652 250.63053,502.05488 247.99245,494.23123 243.64579,481.34051 239.40707,468.34196 233.57983,456.04939 231.32621,451.29539 229.48098,446.02157 225.67718,442.38695 219.30293,436.2962 202.20383,430.19859 202.20383,430.19859 Z"
       id="path841"
       inkscape:connector-curvature="0"
       sodipodi:nodetypes="cscaaacaaaaacc" />
    <path
       style="fill:#000000;stroke:none;stroke-width:1px;stroke-linecap:butt;stroke-linejoin:miter;stroke-opacity:1;fill-opacity:1"
       d="M 242.43661,435.38985 C 275.33708,424.65292 325.01659,414.68172 325.01659,414.68172 325.01659,414.68172 332.60074,412.12078 335.62319,409.63095 339.66457,406.30175 341.06559,401.45426 344.9671,397.00405 346.93536,394.75898 350.31777,393.84614 353.30085,393.72105 358.56937,393.50013 363.68164,396.02198 368.45315,398.26674 373.39664,400.59241 378.27061,403.44023 382.0902,407.35811 385.72021,411.08153 389.10676,415.82529 389.66635,420.99517 390.04465,424.49019 388.59698,428.1791 386.63589,431.0967 384.76574,433.879 380.71929,434.65649 378.80721,437.41015 375.31515,442.4392 374.62338,448.93217 372.99883,454.83528 371.53552,460.15248 370.7757,465.64128 369.46329,470.99772 367.78185,477.86029 367.30876,485.26031 363.90746,491.45331 362.04295,494.84816 359.62198,498.4753 356.07877,500.03961 352.15136,501.77355 346.94982,502.12885 343.19933,500.03961 339.56676,498.01607 335.45215,493.36438 336.63334,489.43301 339.80633,478.87228 343.13463,469.07033 342.94679,458.37081 342.91709,456.67909 343.45187,455.01203 343.45187,453.32005 343.45187,451.62807 343.93716,449.64114 342.94679,448.2693 339.92501,444.08361 333.96689,442.0051 328.80466,441.95583 323.41085,441.90436 318.93972,446.33372 313.9049,448.26929 305.25757,451.59365 295.55921,452.55145 287.64094,457.36067 285.75786,458.50436 284.92748,461.19377 282.84271,461.90635 278.03958,463.54808 272.76008,460.64397 267.69043,460.39112 261.97334,460.10598 255.4913,463.22503 250.51783,460.39112 245.92692,457.7752 243.83314,451.85006 242.43661,446.75406 241.43543,443.10069 238.83545,436.56507 242.43661,435.38985 Z"
       id="path843"
       inkscape:connector-curvature="0"
       sodipodi:nodetypes="scasaasaaaaaaaassaaaaaaaaas" />
    <path
       style="fill:#000000;stroke:none;stroke-width:1px;stroke-linecap:butt;stroke-linejoin:miter;stroke-opacity:1;fill-opacity:1"
       d="M 273.24626,503.57514 C 273.24626,503.57514 262.76435,511.09115 263.90235,516.20205 264.67185,519.65796 269.82526,520.34058 273.24626,521.25281 276.41946,522.09897 279.82155,521.76624 283.09525,521.50535 290.86347,520.88628 298.42515,518.69191 306.07622,517.2122 311.97615,516.07116 317.80758,514.54414 323.75389,513.67667 328.2712,513.01767 332.83615,512.72089 337.39095,512.41398 343.35949,512.01182 349.34349,511.88571 355.32116,511.65636 360.20287,511.46906 365.10876,511.65165 369.96837,511.15129 372.43256,510.89757 375.26322,511.31014 377.29198,509.8886 379.51523,508.33078 380.99024,505.51056 381.33259,502.81753 381.57467,500.91327 380.8292,498.89294 379.81736,497.26169 378.21442,494.6775 375.74246,492.51223 372.99883,491.20077 368.37905,488.9925 362.95477,489.02875 357.84654,488.67539 351.62985,488.24536 339.15872,489.18047 339.15872,489.18047 316.34436,492.29161 294.73539,497.81354 273.24626,503.57514 Z"
       id="path845"
       inkscape:connector-curvature="0"
       sodipodi:nodetypes="caaaaaaaaaaaaacc" />
  </g>
</svg>
