<?xml version="1.0" encoding="UTF-8" standalone="no"?>
<!-- Created with Inkscape (http://www.inkscape.org/) -->

<svg
   xmlns:dc="http://purl.org/dc/elements/1.1/"
   xmlns:cc="http://creativecommons.org/ns#"
   xmlns:rdf="http://www.w3.org/1999/02/22-rdf-syntax-ns#"
   xmlns:svg="http://www.w3.org/2000/svg"
   xmlns="http://www.w3.org/2000/svg"
   xmlns:sodipodi="http://sodipodi.sourceforge.net/DTD/sodipodi-0.dtd"
   xmlns:inkscape="http://www.inkscape.org/namespaces/inkscape"
   width="512"
   height="512"
   viewBox="0 0 512 512"
   version="1.1"
   id="svg4564"
   inkscape:version="0.92.4 (5da689c313, 2019-01-14)"
   sodipodi:docname="U+53EF.svg">
  <defs
     id="defs4558" />
  <sodipodi:namedview
     id="base"
     pagecolor="#ffffff"
     bordercolor="#666666"
     borderopacity="1.0"
     inkscape:pageopacity="0.0"
     inkscape:pageshadow="2"
     inkscape:zoom="3.959798"
     inkscape:cx="201.95342"
     inkscape:cy="314.65534"
     inkscape:document-units="px"
     inkscape:current-layer="layer1"
     showgrid="false"
     units="px"
     inkscape:window-width="1920"
     inkscape:window-height="1005"
     inkscape:window-x="-9"
     inkscape:window-y="-9"
     inkscape:window-maximized="1">
    <inkscape:grid
       type="xygrid"
       id="grid4588" />
  </sodipodi:namedview>
  <metadata
     id="metadata4561">
    <rdf:RDF>
      <cc:Work
         rdf:about="">
        <dc:format>image/svg+xml</dc:format>
        <dc:type
           rdf:resource="http://purl.org/dc/dcmitype/StillImage" />
        <dc:title></dc:title>
      </cc:Work>
    </rdf:RDF>
  </metadata>
  <g
     inkscape:label="圖層 1"
     inkscape:groupmode="layer"
     id="layer1"
     transform="translate(0,-161.53331)">
    <path
       style="fill:#000000;stroke:none;stroke-width:1px;stroke-linecap:butt;stroke-linejoin:miter;stroke-opacity:1;fill-opacity:1"
       d="M 9.0913728,258.61314 C 9.0913728,258.61314 24.904462,265.40882 33.335034,266.18929 50.385955,267.76782 84.347738,260.12838 84.347738,260.12838 84.347738,260.12838 86.779967,257.59549 88.388348,257.09792 92.091118,255.95242 96.136365,257.8387 100.0051,257.603 107.63974,257.13787 114.49653,255.3189 121.73212,254.11488 129.64972,252.79737 137.59802,251.63387 145.46196,250.02685 151.90346,248.71051 158.08599,245.75613 164.65486,245.48117 168.05673,245.33877 171.35164,247.02162 174.75639,246.99639 186.34116,246.91054 198.58259,242.73779 210.55071,240.9549 217.89908,239.86022 225.28806,239.05801 232.65516,238.09747 251.07057,235.69644 269.46764,233.15364 287.89347,230.83395 310.27001,228.01689 355.06862,222.75273 355.06862,222.75273 L 405.57624,216.18674 424.26407,211.13598 C 424.26407,211.13598 435.25997,207.32404 440.93158,206.08522 444.62438,205.27862 452.16667,204.54936 452.16667,204.54936 452.16667,204.54936 465.84974,211.07282 467.19555,212.14613 L 482.34784,223.76289 494.46967,228.30857 C 494.46967,228.30857 506.21323,238.42111 508.10673,245.48117 509.29712,249.91961 506.08642,259.11823 506.08642,259.11823 506.08642,259.11823 505.27091,266.03838 499.01535,265.68422 491.44951,265.25589 467.13066,255.64255 451.03311,249.0167 444.17594,248.64612 442.18378,247.61403 427.7996,245.98624 417.5456,244.82584 407.297,243.46146 396.98995,242.95578 392.28157,242.72478 382.84781,242.95578 382.84781,242.95578 378.66722,241.53892 367.76992,235.75355 355.57369,233.86441 H 342.94679 C 341.65486,235.16846 328.48046,235.14437 321.29755,236.18359 317.20927,236.77508 313.1484,237.55668 309.10668,238.4101 304.87157,239.30435 300.9362,242.3024 296.47977,241.44056 291.98931,240.57214 282.84271,242.95579 282.84271,242.95579 L 271.73103,243.96594 C 271.73103,243.96594 237.57867,250.40447 220.71833,254.57254 204.73389,258.52407 189.01151,263.47539 173.24115,268.2096 159.21614,272.41987 145.16168,276.56345 131.31983,281.34158 116.0089,286.62683 100.46884,291.51226 85.862967,298.51417 78.989231,301.80937 73.371906,307.64759 66.164992,310.13093 60.064241,312.23311 53.166538,314.46385 46.972093,312.65632 41.695298,311.11656 38.295149,305.87244 34.345187,302.04971 28.005547,295.91429 21.052438,290.00725 16.667518,282.35174 12.539212,275.14424 16.667518,282.35174 9.0913728,258.61314 Z"
       id="path829"
       inkscape:connector-curvature="0"
       sodipodi:nodetypes="cacasaaasaaacccaccccacscsacccaasccaaaaaaaac" />
    <path
       style="fill:#000000;stroke:none;stroke-width:1px;stroke-linecap:butt;stroke-linejoin:miter;stroke-opacity:1;fill-opacity:1"
       d="M 114.14724,329.82891 C 114.14724,329.82891 122.39,330.49992 126.52161,330.58653 130.89878,330.67829 139.65359,330.33399 139.65359,330.33399 139.65359,330.33399 157.51497,332.07673 164.65486,336.89998 168.04496,339.19012 170.12982,343.09931 171.97847,346.74897 187.89664,378.17515 203.04066,447.76422 203.04066,447.76422 203.04066,447.76422 201.68709,451.66979 200.26274,453.06752 198.91925,454.3859 197.09349,455.64765 195.21198,455.5929 191.3295,455.47992 187.83936,452.54849 185.11045,449.78453 182.19801,446.83468 180.70205,442.72712 179.04954,438.92539 173.12783,425.302 170.51303,410.4506 165.41248,396.49898 160.31865,382.56574 155.79869,367.48166 148.49242,355.33526 147.53194,353.73849 144.83437,354.44236 143.18912,353.5675 137.09403,350.32645 126.77414,340.94059 126.77414,340.94059 126.77414,340.94059 125.54434,338.48439 124.5013,337.65759 122.16153,335.80291 118.3236,336.43998 116.16754,334.3746 114.97015,333.22757 114.14724,329.82891 114.14724,329.82891 Z"
       id="path834"
       inkscape:connector-curvature="0"
       sodipodi:nodetypes="cacaacaaaaasacaac" />
    <path
       style="fill:#000000;stroke:none;stroke-width:1px;stroke-linecap:butt;stroke-linejoin:miter;stroke-opacity:1;fill-opacity:1"
       d="M 169.07762,317.6634 186.75528,321.19894 237.76799,299.98573 C 237.76799,299.98573 240.74568,290.12804 244.83906,287.86391 249.40848,285.33646 255.51377,286.80671 260.49642,288.36899 267.58131,290.59041 273.22046,296.06773 279.18424,300.49081 284.84603,304.6899 295.34668,314.12787 295.34668,314.12787 295.34668,314.12787 287.11062,322.09012 283.47739,326.50224 279.94404,330.79306 276.4652,335.21819 273.88095,340.1393 265.41114,356.26803 262.82535,376.4782 254.94058,391.40454 253.29858,394.51293 248.1613,395.58434 244.83906,394.435 239.58613,392.61773 234.93953,386.34806 235.24261,380.79794 235.79624,370.65951 237.72812,356.86569 239.28322,344.93752 239.87729,340.38078 241.30352,331.30046 241.30352,331.30046 L 209.48372,346.95783 C 209.48372,346.95783 205.90916,351.06128 203.4228,351.50351 199.09641,352.27302 192.84454,349.87433 190.7959,347.71545 182.79364,339.2826 179.95923,334.96908 169.07762,317.6634 Z"
       id="path821"
       inkscape:connector-curvature="0"
       sodipodi:nodetypes="cccaaacaasasaccasc" />
    <path
       style="fill:#000000;stroke:none;stroke-width:1px;stroke-linecap:butt;stroke-linejoin:miter;stroke-opacity:1;fill-opacity:1"
       d="M 168.69548,431.85431 C 170.03126,420.26645 175.17734,406.06738 185.11046,397.50913 206.88833,391.07362 217.63161,387.01176 233.85031,381.85177 245.52849,378.13634 258.31324,377.62555 270.46834,379.07385 276.44241,379.78566 282.03358,382.44938 287.64094,384.62969 290.66026,385.80369 296.47977,388.67029 296.47977,388.67029 L 293.70185,397.50913 C 293.70185,397.50913 284.16302,399.85826 279.30718,400.53959 275.79702,401.03211 272.24197,401.14785 268.70058,401.2972 262.22398,401.57033 255.69143,400.77827 249.25514,401.54974 238.79314,402.80375 228.29964,404.88963 218.44548,408.62081 212.35103,410.92842 205.63265,413.12118 201.27289,417.96472 195.54154,424.33206 198.48519,436.85256 191.42391,441.7033 188.78636,443.51516 181.82746,441.95584 181.82746,441.95584 181.82746,441.95584 168.06985,437.28161 168.69548,431.85431 Z"
       id="path842"
       inkscape:connector-curvature="0"
       sodipodi:nodetypes="scsaaccaaaaaacs" />
    <path
       style="fill:#000000;stroke:none;stroke-width:1px;stroke-linecap:butt;stroke-linejoin:miter;stroke-opacity:1;fill-opacity:1"
       d="M 286.90083,259.15568 C 286.90083,259.15568 287.78656,250.81026 290.29369,247.72711 291.40265,246.36337 294.93655,245.22711 294.93655,245.22711 294.93655,245.22711 298.49334,243.88173 300.29369,244.15568 311.7164,245.89379 321.10014,249.81142 330.82941,254.33426 334.24532,255.92221 337.60217,257.78732 340.47226,260.22711 343.46308,262.76953 347.01723,265.39752 348.15083,269.15569 348.84377,271.45294 347.51989,273.9134 347.25797,276.29854 346.155,286.34267 345.75464,296.46371 344.40084,306.47711 342.83795,318.03694 339.51424,329.33673 338.3294,340.9414 336.46041,359.24689 336.59305,377.71977 336.72226,396.11997 336.84819,414.0529 338.12828,431.95998 339.04369,449.86997 339.86853,466.00795 341.28278,482.11561 341.90083,498.26283 342.16041,505.04462 341.55098,511.87014 342.25798,518.61997 342.84536,524.22774 344.334,529.70475 345.47226,535.22711 346.6531,540.95609 349.40318,546.52336 349.22226,552.36997 348.98683,559.9784 346.40619,567.54075 342.97227,574.33425 341.91954,576.41692 340.1714,578.06971 338.68655,579.86997 336.62005,582.37543 334.26493,584.63799 332.25798,587.19139 329.2476,591.02143 326.39076,594.99002 323.86512,599.15568 322.92654,600.70372 323.12658,604.39496 321.36512,603.97711 316.93063,602.92518 312.97203,602.65832 310.11512,599.86997 307.55217,597.36852 308.66033,592.45963 306.18655,589.86997 300.06429,583.4609 294.20682,575.34101 287.43655,568.79854 281.92152,563.46907 274.83307,559.92665 269.40083,554.51282 264.87073,549.99807 257.43655,539.51283 257.43655,539.51283 257.43655,539.51283 267.21388,539.77213 272.07941,540.22711 278.12243,540.79219 284.08061,542.07739 290.11512,542.72711 292.43003,542.97635 294.77857,542.9064 297.07941,543.26283 304.0279,544.33923 310.70764,549.39837 317.61512,548.08425 321.1026,547.42077 324.39543,544.96631 326.36512,542.01283 328.56104,538.72012 328.58665,534.35365 328.86512,530.40568 329.68808,518.73828 327.18141,507.07355 326.36512,495.40568 324.84529,473.68169 323.13567,451.96916 321.90083,430.22711 321.00211,414.40317 320.2099,398.5701 319.75798,382.72711 319.33195,367.79164 319.48938,352.84484 319.22226,337.90568 319.04344,327.90444 319.05441,317.89358 318.50798,307.90568 318.27953,303.72998 318.15502,299.52545 317.43655,295.40569 316.60061,290.61235 315.63713,285.75613 313.68655,281.29854 312.52807,278.65109 309.89017,276.74018 309.04369,273.97711 308.45062,272.04123 309.77176,269.71603 308.86512,267.90568 307.5372,265.25416 304.58213,263.6367 301.90084,262.36997 297.27733,260.18568 286.90083,259.15568 286.90083,259.15568 Z"
       id="path844"
       inkscape:connector-curvature="0"
       sodipodi:nodetypes="cacsaaaaaaaaaaaaaaaasassacaaaaaaaaaaaaaaaac" />
  </g>
</svg>
