<?xml version="1.0" encoding="UTF-8" standalone="no"?>
<!-- Created with Inkscape (http://www.inkscape.org/) -->

<svg
   xmlns:dc="http://purl.org/dc/elements/1.1/"
   xmlns:cc="http://creativecommons.org/ns#"
   xmlns:rdf="http://www.w3.org/1999/02/22-rdf-syntax-ns#"
   xmlns:svg="http://www.w3.org/2000/svg"
   xmlns="http://www.w3.org/2000/svg"
   xmlns:sodipodi="http://sodipodi.sourceforge.net/DTD/sodipodi-0.dtd"
   xmlns:inkscape="http://www.inkscape.org/namespaces/inkscape"
   width="512"
   height="512"
   viewBox="0 0 512 512"
   version="1.1"
   id="svg4564"
   inkscape:version="0.92.4 (5da689c313, 2019-01-14)"
   sodipodi:docname="U+5DF1.svg">
  <defs
     id="defs4558" />
  <sodipodi:namedview
     id="base"
     pagecolor="#ffffff"
     bordercolor="#666666"
     borderopacity="1.0"
     inkscape:pageopacity="0.0"
     inkscape:pageshadow="2"
     inkscape:zoom="1.979899"
     inkscape:cx="440.22077"
     inkscape:cy="206.83052"
     inkscape:document-units="px"
     inkscape:current-layer="layer1"
     showgrid="false"
     units="px"
     inkscape:window-width="1920"
     inkscape:window-height="1005"
     inkscape:window-x="-9"
     inkscape:window-y="-9"
     inkscape:window-maximized="1">
    <inkscape:grid
       type="xygrid"
       id="grid4588" />
  </sodipodi:namedview>
  <metadata
     id="metadata4561">
    <rdf:RDF>
      <cc:Work
         rdf:about="">
        <dc:format>image/svg+xml</dc:format>
        <dc:type
           rdf:resource="http://purl.org/dc/dcmitype/StillImage" />
        <dc:title></dc:title>
      </cc:Work>
    </rdf:RDF>
  </metadata>
  <g
     inkscape:label="圖層 1"
     inkscape:groupmode="layer"
     id="layer1"
     transform="translate(0,-161.53331)">
    <path
       style="fill:#000000;stroke:none;stroke-width:1px;stroke-linecap:butt;stroke-linejoin:miter;stroke-opacity:1;fill-opacity:1"
       d="M 161.11933,301.29209 C 161.11933,301.29209 180.37971,301.02003 189.90869,299.77687 203.72577,297.97428 217.67311,295.80834 230.81987,291.19057 244.88549,286.25005 259.82837,281.1661 270.72088,270.98752 276.01605,266.0394 276.09102,256.72207 281.83256,252.2997 284.74562,250.05594 289.16702,247.59189 292.43916,249.26924 302.29228,254.3201 303.05436,266.43123 310.11683,273.5129 312.32824,275.73032 315.62697,276.71526 317.69298,279.06874 320.22819,281.9567 323.73554,285.35836 323.24882,289.17027 322.72088,293.30507 317.60064,295.30482 314.66252,298.26164 310.88555,302.06265 305.52082,304.62072 303.04576,309.37332 299.97727,315.26543 300.52186,322.44739 300.01531,329.07129 299.41195,336.96112 302.59658,342.85686 300.01531,352.80988 296.01101,368.24991 295.89704,380.20137 292.94424,389.17537 291.25954,394.29544 288.22695,402.05379 282.84271,401.80227 275.7994,401.47324 274.12563,390.55177 271.22596,384.1246 269.64714,380.6251 268.65866,376.82406 268.1955,373.01293 267.36252,366.15859 268.45076,359.20504 268.70058,352.3048 268.99722,344.11127 271.91555,332.80134 272.74119,333.61698 275.21034,336.05621 269.69864,328.41265 269.71073,325.53576 269.72058,323.19082 274.16997,317.64348 272.23611,318.96977 263.09805,325.2369 242.82242,326.57675 225.76909,336.14236 222.02343,338.24339 216.51526,340.2173 209.10158,341.6982 203.7264,342.7719 198.37458,345.43671 192.93914,344.72866 189.05602,344.22282 185.42552,342.07955 182.33254,339.67789 180.25536,338.06499 178.72121,335.81791 177.28177,333.61698 174.8091,329.83623 173.24116,325.53576 171.22086,321.49515 167.85368,314.7608 161.11933,301.29209 161.11933,301.29209 Z"
       id="path831"
       inkscape:connector-curvature="0"
       sodipodi:nodetypes="caaaasaaaaaassaaassasssaaaac" />
    <path
       style="fill:#000000;stroke:none;stroke-width:1px;stroke-linecap:butt;stroke-linejoin:miter;stroke-opacity:1;fill-opacity:1"
       d="M 169.70563,424.02563 C 178.89859,414.19238 198.1337,412.0958 211.62696,404.83273 223.39461,398.49852 236.48966,394.7225 249.50768,391.70075 260.24802,389.20769 271.35739,386.65789 282.33763,387.66013 288.48879,388.22159 296.0583,388.47319 300.01531,393.21598 302.624,396.3427 303.86051,401.99822 301.53054,405.33781 284.88078,407.71978 282.67107,409.70105 273.24626,411.9038 264.65695,413.91128 255.96373,415.52394 247.48737,417.96472 241.2436,419.76262 234.547,421.95664 228.29448,424.53071 222.58496,426.88123 216.74567,429.15906 211.62696,432.61193 207.67432,435.27822 205.63485,441.00885 201.02036,442.20838 196.67249,443.33861 192.13349,440.64775 187.88837,439.17792 181.91022,437.10805 170.71578,431.0967 170.71578,431.0967 169.30072,429.18188 168.07962,425.76489 169.70563,424.02563 Z"
       id="path833"
       inkscape:connector-curvature="0"
       sodipodi:nodetypes="ssaaacasaaaacs" />
    <path
       style="fill:#000000;stroke:none;stroke-width:1px;stroke-linecap:butt;stroke-linejoin:miter;stroke-opacity:1;fill-opacity:1"
       d="M 125.76399,346.74896 C 125.76399,346.74896 137.9402,349.21786 143.94674,350.78957 152.9639,353.14905 163.78719,352.63612 170.71578,358.87079 175.87583,363.51405 177.11602,371.32869 178.797,378.06369 181.04858,387.08487 181.23241,396.5454 181.32238,405.84288 181.4367,417.65747 180.50406,429.50705 178.797,441.19822 177.67569,448.87775 174.86755,456.24713 173.74624,463.92666 172.722,470.94136 171.77051,478.06575 172.23101,485.13986 172.77794,493.5417 172.90251,502.69748 177.28177,509.8886 181.32982,516.53585 188.58441,520.89758 195.46452,524.53581 204.17462,529.14175 213.98966,531.76566 223.74879,533.1221 232.75514,534.37391 241.93387,532.88294 251.02291,532.61703 259.44397,532.37067 267.87802,532.2679 276.27672,531.60688 287.76854,530.70241 299.14568,528.65063 310.62191,527.56627 320.03211,526.67712 329.57858,527.07509 338.90618,525.54596 343.54029,524.78626 348.01241,523.24482 352.54324,522.01043 354.90837,521.36607 357.21965,520.51425 359.6143,519.99012 361.77751,519.51666 364.02938,518.45349 366.1803,518.97997 372.26402,520.46908 377.05234,525.51907 381.33259,530.09165 382.83271,531.69422 385.48983,533.54224 384.86812,535.64749 383.60925,539.91029 377.00207,539.92092 372.74629,541.20332 364.4246,543.71092 355.63319,544.35578 346.9874,545.24394 336.75893,546.29468 326.4423,546.15529 316.17775,546.75917 303.88003,547.48266 291.61588,548.78134 279.30718,549.28455 266.68969,549.80038 253.95952,551.33544 241.42646,549.78962 223.79601,547.6151 206.17452,543.29285 189.90868,536.15256 183.32298,533.26161 176.94654,529.48295 171.72593,524.53581 164.80756,517.97984 158.4186,510.2216 155.05842,501.30231 150.82386,490.06207 151.97804,477.44468 151.52288,465.44188 150.95494,450.46494 152.65274,435.47733 152.53303,420.4901 152.42807,407.34882 154.94515,393.63528 151.0178,381.09415 148.86841,374.23054 144.46677,368.01704 139.40105,362.9114 136.57249,360.06055 131.80505,359.48396 129.29953,356.34541 127.1727,353.68122 125.76399,346.74896 125.76399,346.74896 Z"
       id="path835"
       inkscape:connector-curvature="0"
       sodipodi:nodetypes="caaaaaaaaaaaaaaaaaaaaaaaaaaaaaaaac" />
  </g>
</svg>
