<?xml version="1.0" encoding="UTF-8" standalone="no"?>
<!-- Created with Inkscape (http://www.inkscape.org/) -->

<svg
   xmlns:dc="http://purl.org/dc/elements/1.1/"
   xmlns:cc="http://creativecommons.org/ns#"
   xmlns:rdf="http://www.w3.org/1999/02/22-rdf-syntax-ns#"
   xmlns:svg="http://www.w3.org/2000/svg"
   xmlns="http://www.w3.org/2000/svg"
   xmlns:sodipodi="http://sodipodi.sourceforge.net/DTD/sodipodi-0.dtd"
   xmlns:inkscape="http://www.inkscape.org/namespaces/inkscape"
   width="512"
   height="512"
   viewBox="0 0 512 512"
   version="1.1"
   id="svg8"
   inkscape:version="0.92.4 (5da689c313, 2019-01-14)"
   sodipodi:docname="U+5FC5.svg">
  <defs
     id="defs2" />
  <sodipodi:namedview
     id="base"
     pagecolor="#ffffff"
     bordercolor="#666666"
     borderopacity="1.0"
     inkscape:pageopacity="0.0"
     inkscape:pageshadow="2"
     inkscape:zoom="1.2910156"
     inkscape:cx="191.74656"
     inkscape:cy="209.66417"
     inkscape:document-units="px"
     inkscape:current-layer="svg8"
     showgrid="false"
     units="px"
     viewbox-width="512"
     inkscape:window-width="1920"
     inkscape:window-height="1005"
     inkscape:window-x="-9"
     inkscape:window-y="-9"
     inkscape:window-maximized="1">
    <inkscape:grid
       type="xygrid"
       id="grid3724" />
  </sodipodi:namedview>
  <metadata
     id="metadata5">
    <rdf:RDF>
      <cc:Work
         rdf:about="">
        <dc:format>image/svg+xml</dc:format>
        <dc:type
           rdf:resource="http://purl.org/dc/dcmitype/StillImage" />
        <dc:title></dc:title>
      </cc:Work>
    </rdf:RDF>
  </metadata>
  <g
     inkscape:label="圖層 1"
     inkscape:groupmode="layer"
     id="layer1"
     transform="translate(0,-161.53332)" />
  <path
     style="fill:#000000;stroke:none;stroke-width:1px;stroke-linecap:butt;stroke-linejoin:miter;stroke-opacity:1;fill-opacity:1"
     d="M 197.45075,88.343551 C 197.45075,88.343551 215.79915,106.4181 227.84885,108.88281 239.89855,111.34752 241.26783,113.53838 241.26783,113.53838 241.26783,113.53838 231.55845,121.83347 227.84884,126.95736 216.95473,142.00485 204.30611,149.28883 191.9736,159.82017 188.0707,163.15305 179.92391,169.40516 179.92391,169.40516 L 217.16843,157.90317 C 217.16843,157.90317 221.27628,155.1646 224.01485,154.61689 226.75342,154.06918 267.83194,139.55477 267.83194,139.55477 267.83194,139.55477 273.03522,137.09006 274.67836,134.35149 276.3215,131.61292 276.04764,126.95736 269.74894,123.39722 263.45023,119.83708 265.69549,120.01423 264.81951,117.64623 263.64767,114.47846 264.81951,107.51353 264.81951,107.51353 264.81951,107.51353 264.19204,98.848077 261.80709,95.463827 259.15272,91.697267 250.3051,87.795837 250.3051,87.795837 250.3051,87.795837 233.20175,84.722614 224.56256,84.783412 215.44793,84.847556 197.45075,88.343551 197.45075,88.343551 Z"
     id="path3730"
     inkscape:connector-curvature="0"
     sodipodi:nodetypes="cscsaccscssacacac" />
  <path
     style="fill:#000000;stroke:none;stroke-width:1px;stroke-linecap:butt;stroke-linejoin:miter;stroke-opacity:1;fill-opacity:1"
     d="M 139.3931,208.01897 C 137.59115,219.76944 140.53933,229.1922 144.87024,240.06021 157.95101,272.88515 167.3265,286.88972 170.88664,290.99757 174.44677,295.10542 189.28648,312.7336 199.36774,322.76496 207.06834,330.42744 221.55014,342.75651 223.74099,344.39965 225.93185,346.04279 247.56653,356.17549 256.87767,358.09249 264.2718,360.28334 280.42935,365.48662 291.65748,365.48662 302.88561,365.48662 367.24195,368.49904 367.24195,368.49904 L 402.56948,367.67748 423.10874,363.84348 C 423.10874,363.84348 429.6813,360.55719 432.41986,356.44934 435.15843,352.34149 438.0627,347.53869 435.15843,344.12579 435.15843,344.12579 427.7643,338.92251 420.64403,336.73166 413.52375,334.5408 409.68976,333.71923 399.28319,329.61138 391.88906,325.77738 363.95567,312.63226 363.68181,311.26298 363.40796,309.89369 337.39156,291.81914 337.39156,291.81914 337.39156,291.81914 337.19169,298.18669 338.21313,301.13028 340.2882,307.1102 348.61969,317.01397 348.61969,317.01397 L 360.12167,335.08851 C 360.12167,335.08851 371.07595,345.49507 367.51581,345.49507 363.95567,345.49507 334.65299,347.95978 334.65299,347.95978 334.65299,347.95978 310.27974,350.4245 306.17188,349.87678 302.06403,349.32907 276.59535,347.13822 276.59535,347.13822 276.59535,347.13822 254.5032,343.45438 244.55411,338.64865 231.63245,332.40708 210.04816,312.90612 210.04816,312.90612 L 183.48404,285.52044 164.86178,255.39619 C 164.86178,255.39619 158.4603,240.7966 154.72908,233.7615 150.04913,224.93759 146.53619,214.79844 139.3931,208.01897 Z"
     id="path3734"
     inkscape:connector-curvature="0"
     sodipodi:nodetypes="cscaccscccccscccaccscccacccac" />
  <path
     style="fill:#000000;stroke:none;stroke-width:1px;stroke-linecap:butt;stroke-linejoin:miter;stroke-opacity:1;fill-opacity:1"
     d="M 320.6863,99.571676 C 317.76458,95.587825 313.51012,91.355932 313.83988,86.426552 314.16783,81.524173 316.03073,74.924567 322.32944,74.376853 328.62815,73.82914 341.49941,77.115421 341.49941,77.115421 341.49941,77.115421 352.26424,82.572665 355.73996,87.248122 359.64943,92.507046 362.58639,98.750108 362.03867,105.87038 360.66939,120.65865 336.56999,167.2143 336.56999,167.2143 L 310.82745,216.50853 C 310.82745,216.50853 296.5477,242.45023 288.09734,254.57462 278.70645,268.04845 268.48217,281.02553 257.15152,292.91457 247.20396,303.35236 224.83642,321.66953 224.83642,321.66953 224.83642,321.66953 200.67314,345.78985 187.5919,356.7232 171.81805,369.90704 154.7868,381.51916 138.02382,393.42001 129.29084,399.61998 120.65166,405.99796 111.45971,411.49456 105.18709,415.24545 92.015881,421.62726 92.015881,421.62726 L 83.252463,424.91354 C 83.252463,424.91354 82.157036,419.43641 86.264888,416.15012 90.37274,412.86384 106.17173,401.7931 115.84142,394.24158 123.20173,388.49357 130.29028,382.4056 137.47611,376.44089 148.74481,367.08713 160.23835,357.98983 171.16049,348.23364 179.05778,341.17939 186.77508,333.90973 194.16446,326.3251 203.09451,317.1591 211.1454,307.17114 219.907,297.84399 227.24377,290.03365 235.30986,282.90718 242.36326,274.84002 254.94781,260.44673 266.68127,245.28467 277.69078,229.65366 289.69297,212.61326 300.34072,194.6497 311.10132,176.79929 316.59027,167.69383 322.00013,158.53065 326.985,149.13975 331.2727,141.06224 339.0347,124.49265 339.0347,124.49265 L 343.41641,110.79981 C 343.41641,110.79981 346.97655,102.31025 342.32099,99.023964 337.66542,95.737683 336.02228,94.642256 332.736,97.106967 329.44972,99.571678 326.71115,105.59653 326.71115,105.59653 326.71115,105.59653 322.36594,101.86192 320.6863,99.571676 Z"
     id="path11"
     inkscape:connector-curvature="0"
     sodipodi:nodetypes="aascacccaacaaacccaaaaaaaaacccsca" />
  <path
     style="fill:#000000;stroke:none;stroke-width:1px;stroke-linecap:butt;stroke-linejoin:miter;stroke-opacity:1;fill-opacity:1"
     d="M 412.42832,168.85744 C 412.42832,168.85744 430.07641,180.28462 437.34929,187.75356 445.10784,195.72126 450.65693,205.59034 456.79312,214.86539 459.50551,218.96525 464.46111,227.4628 464.46111,227.4628 464.46111,227.4628 459.80555,225.27194 455.69769,226.91508 451.58984,228.55822 445.29114,234.03536 445.29114,234.03536 453.05076,237.24646 461.17483,242.25106 461.17483,242.25106 L 469.93825,247.7282 478.15395,257.03933 C 478.15395,257.03933 481.93801,264.16706 485.00037,266.62432 488.09483,269.10735 495.95464,271.27988 495.95464,271.27988 495.95464,271.27988 498.62986,270.37951 499.51478,269.36288 501.7525,266.79211 502.97756,263.18478 503.07492,259.7779 503.35865,249.84901 498.38846,240.35449 494.3115,231.2968 489.70415,221.06075 483.75128,211.34356 476.78466,202.54183 470.41491,194.49419 463.11077,186.60126 454.87612,180.90715 442.77839,172.54178 412.42832,168.85744 412.42832,168.85744 Z"
     id="path13"
     inkscape:connector-curvature="0"
     sodipodi:nodetypes="caacsccccacaaaasc" />
  <path
     style="fill:#000000;stroke:none;stroke-width:1px;stroke-linecap:butt;stroke-linejoin:miter;stroke-opacity:1;fill-opacity:1"
     d="M 34.505956,251.5622 C 34.034494,272.4364 37.51838,281.13873 37.51838,281.13873 L 39.161521,299.21328 35.053669,312.3584 C 35.053669,312.3584 26.917079,315.94879 24.099397,319.20482 22.467862,321.09017 20.885402,323.56612 21.086973,326.05124 21.263015,328.22161 24.647111,331.52838 24.647111,331.52838 24.647111,331.52838 26.344533,335.963 25.742538,338.10094 24.760315,341.58923 18.622262,346.31664 18.622262,346.31664 18.622262,346.31664 16.23922,348.98712 16.705264,350.4245 17.574874,353.10657 24.099397,354.53235 24.099397,354.53235 24.099397,354.53235 28.814279,356.6527 30.945817,358.09249 35.827731,361.39008 38.524197,368.8234 44.3648,369.59447 48.97943,370.20369 54.053579,367.2036 56.962211,363.56962 59.771251,360.06007 59.140837,354.84178 59.974637,350.42449 60.779214,346.16202 61.891634,337.55323 61.891634,337.55323 61.891634,337.55323 62.433934,326.7372 63.260918,321.39568 64.019885,316.49349 66.547199,306.88127 66.547199,306.88127 L 70.381194,290.176 76.679901,264.15961 73.667476,263.61189 C 73.667476,263.61189 69.832337,271.47636 67.094913,274.84002 63.912723,278.7502 55.866785,284.97272 55.866785,284.97272 L 52.580503,275.11388 C 52.580503,275.11388 51.334636,266.98432 49.568078,263.33804 47.665519,259.41104 45.336108,255.22884 41.626232,252.93148 39.571405,251.65902 36.904079,250.27168 34.505956,251.5622 Z"
     id="path15"
     inkscape:connector-curvature="0"
     sodipodi:nodetypes="ccccaacacacaaaacaccccaccaac" />
  <path
     style="stroke-width:0.774584"
     d=""
     id="path17"
     inkscape:connector-curvature="0" />
  <path
     style="stroke-width:0.774584"
     d="M 252.16044,292.50484 C 252.88278,291.61434 252.91318,291.38072 252.25529,291.77597 251.72276,292.09591 251.28706,292.04663 251.28706,291.66647 251.28706,290.39263 252.29694,289.94808 253.29985,290.78042 254.53462,291.80519 253.85331,293.81541 252.27122,293.81541 251.26612,293.81541 251.2502,293.627 252.16044,292.50484 Z"
     id="path19"
     inkscape:connector-curvature="0" />
</svg>
