<?xml version="1.0" encoding="UTF-8" standalone="no"?>
<!-- Created with Inkscape (http://www.inkscape.org/) -->

<svg
   xmlns:dc="http://purl.org/dc/elements/1.1/"
   xmlns:cc="http://creativecommons.org/ns#"
   xmlns:rdf="http://www.w3.org/1999/02/22-rdf-syntax-ns#"
   xmlns:svg="http://www.w3.org/2000/svg"
   xmlns="http://www.w3.org/2000/svg"
   xmlns:sodipodi="http://sodipodi.sourceforge.net/DTD/sodipodi-0.dtd"
   xmlns:inkscape="http://www.inkscape.org/namespaces/inkscape"
   width="512"
   height="512"
   viewBox="0 0 512 512"
   version="1.1"
   id="svg4564"
   inkscape:version="0.92.4 (5da689c313, 2019-01-14)"
   sodipodi:docname="U+5F97.svg">
  <defs
     id="defs4558" />
  <sodipodi:namedview
     id="base"
     pagecolor="#ffffff"
     bordercolor="#666666"
     borderopacity="1.0"
     inkscape:pageopacity="0.0"
     inkscape:pageshadow="2"
     inkscape:zoom="0.98994949"
     inkscape:cx="466.16874"
     inkscape:cy="260.78084"
     inkscape:document-units="px"
     inkscape:current-layer="layer1"
     showgrid="false"
     units="px"
     inkscape:window-width="1920"
     inkscape:window-height="1005"
     inkscape:window-x="-9"
     inkscape:window-y="-9"
     inkscape:window-maximized="1">
    <inkscape:grid
       type="xygrid"
       id="grid4588" />
  </sodipodi:namedview>
  <metadata
     id="metadata4561">
    <rdf:RDF>
      <cc:Work
         rdf:about="">
        <dc:format>image/svg+xml</dc:format>
        <dc:type
           rdf:resource="http://purl.org/dc/dcmitype/StillImage" />
        <dc:title></dc:title>
      </cc:Work>
    </rdf:RDF>
  </metadata>
  <g
     inkscape:label="圖層 1"
     inkscape:groupmode="layer"
     id="layer1"
     transform="translate(0,-161.53331)">
    <path
       style="fill:#000000;stroke:none;stroke-width:1px;stroke-linecap:butt;stroke-linejoin:miter;stroke-opacity:1;fill-opacity:1"
       d="M 130.25254,217.96696 C 127.4432,220.33631 124.9685,224.34824 125.60968,227.96696 125.93161,229.78389 127.89639,231.01198 129.52402,231.8813 132.02184,233.21538 135.46959,232.01066 137.85714,233.53331 141.0894,235.59467 144.43279,238.99115 144.64286,242.81902 144.99644,249.2621 138.24303,254.02611 135,259.60474 132.6399,263.66455 128.17304,267.06226 127.85714,271.7476 127.58793,275.74037 132.5,282.81902 132.5,282.81902 132.5,282.81902 137.31519,275.47503 140.71429,272.81903 144.86833,269.57312 150.29198,268.40533 155,266.03331 158.61476,264.21211 163.17704,263.47269 165.71429,260.31903 168.19494,257.23571 169.80663,252.74913 168.92857,248.89045 168.04893,245.02479 163.91221,242.72721 161.07143,239.96188 158.40643,237.36766 154.76952,235.76545 152.5,232.81902 150.095,229.69671 150.18061,224.9939 147.5,222.10474 144.74624,219.13674 140.92633,216.65696 136.90826,216.15958 134.62676,215.87716 132.0099,216.48482 130.25254,217.96696 Z"
       id="path828"
       inkscape:connector-curvature="0"
       sodipodi:nodetypes="aaaaaaacaaaaaaaaa" />
    <path
       style="fill:#000000;stroke:none;stroke-width:1px;stroke-linecap:butt;stroke-linejoin:miter;stroke-opacity:1;fill-opacity:1"
       d="M 120.17857,320.85474 C 118.19376,322.5479 116.68881,324.86328 115.71429,327.28331 114.58843,330.07918 114.28571,336.21188 114.28571,336.21188 114.28571,336.21188 112.17847,339.18507 112.23477,340.88537 112.35207,344.42812 116.98203,346.77799 117.14286,350.31903 117.32091,354.23905 113.77961,357.44546 112.67857,361.21188 111.93165,363.76693 111.39573,366.41103 111.25,369.06902 111.01806,373.29932 109.9266,378.53973 112.14286,381.74759 118.43397,382.28406 120.15145,381.34629 123.92857,380.14045 126.6171,379.28214 128.91062,377.48653 131.42857,376.21188 134.08869,374.86526 137.14662,374.15894 139.46429,372.28331 141.63948,370.52298 143.79297,368.34223 144.64286,365.67617 145.40302,363.29157 144.95813,360.58699 144.28571,358.17617 143.41273,355.04627 142.01114,351.82952 139.64286,349.60474 137.68242,347.76309 134.24504,348.09195 132.32143,346.21188 129.52288,343.47667 128.62807,339.29657 127.14286,335.67617 126.28557,333.58641 125.36182,331.4772 125,329.24759 124.42792,325.72228 126.4168,322.93354 125,318.53331 123.48971,317.58425 121.53562,319.6971 120.17857,320.85474 Z"
       id="path830"
       inkscape:connector-curvature="0"
       sodipodi:nodetypes="aacaaaacaaaaaaaaaca" />
    <path
       style="fill:#000000;stroke:none;stroke-width:1px;stroke-linecap:butt;stroke-linejoin:miter;stroke-opacity:1;fill-opacity:1"
       d="M 97.142858,383.89045 C 91.085926,386.08528 86.693624,391.48015 81.964286,395.85474 76.552782,400.86033 71.549434,406.33268 66.964286,412.10474 64.725636,414.92289 63.522019,418.57546 60.892857,421.03331 57.365413,424.33091 51.995728,425.13972 48.392857,428.35474 45.728122,430.73261 44.898391,434.88996 41.964286,436.92617 38.498122,439.33161 33.115608,437.86153 29.821429,440.4976 27.907458,442.02919 27.968926,445.1785 26.25,446.92617 22.827896,450.40551 17.626082,451.53164 13.571429,454.24759 10.574233,456.25522 7.1637351,457.74634 5,460.85474 3.7677665,462.62495 6.9642857,466.74759 6.9642857,466.74759 L 16.964286,465.67617 20.714286,461.39045 C 20.714286,461.39045 21.185112,456.83489 22.857143,455.67617 25.499047,453.84533 29.587812,457.03661 32.5,455.67617 35.945578,454.06656 37.080566,449.56256 39.821429,446.92617 43.399607,443.48438 47.532765,440.65604 51.607143,437.81902 53.911316,436.21461 56.407428,434.90255 58.75,433.35474 61.353849,431.6343 64.058047,430.02751 66.428572,427.99759 69.370501,425.47837 72.233887,422.77124 74.464286,419.60474 75.230751,418.51659 75.187404,416.83483 76.250001,416.03331 77.023582,415.44979 78.310292,416.0489 79.107143,415.49759 80.710588,414.38822 80.67268,411.77834 82.142858,410.49759 83.952099,408.92147 86.717799,408.91625 88.75,407.64045 91.216104,406.09225 93.239939,403.92518 95.357143,401.92617 97.407832,399.98996 99.927826,398.34594 101.25,395.85474 102.61819,393.27683 102.52142,390.15613 103.03571,387.28331 103.24784,386.09835 103.57143,383.71188 103.57143,383.71188 103.57143,383.71188 99.158299,383.16013 97.142858,383.89045 Z"
       id="path832"
       inkscape:connector-curvature="0"
       sodipodi:nodetypes="aaaaaaaaascccaaaaaaaaaaaaaaca" />
    <path
       style="fill:#000000;stroke:none;stroke-width:1px;stroke-linecap:butt;stroke-linejoin:miter;stroke-opacity:1;fill-opacity:1"
       d="M 95.714286,407.64045 C 95.714286,407.64045 98.000675,418.42039 98.571429,423.89045 98.936097,427.3854 98.556832,430.93196 98.928572,434.42617 99.248485,437.43322 99.722775,440.44204 100.53571,443.35474 101.7868,447.83733 104.90486,451.7795 105.53571,456.39045 107.33493,469.54122 102.63893,482.78749 101.78571,496.03331 100.78263,511.60547 101.45085,527.26654 100.17857,542.81902 99.65004,549.2798 99.627805,555.92239 97.678572,562.10474 96.365608,566.26905 93.540292,569.79675 91.607143,573.71188 90.357378,576.24298 88.249424,578.57572 88.035715,581.39045 87.810396,584.3581 89.714682,587.10118 90.535715,589.96188 91.986041,595.01521 92.607357,600.37207 94.821429,605.14045 95.940814,607.55124 97.251563,610.03671 99.285715,611.7476 101.73249,613.80554 108.03571,615.67617 108.03571,615.67617 108.03571,615.67617 112.09328,609.91631 112.32143,606.56902 112.60564,602.39929 109.47954,598.68429 108.57143,594.60474 108.08854,592.43544 107.6176,590.21916 107.67857,587.9976 107.75672,585.15022 109.19338,582.45169 109.28572,579.60474 109.44128,574.8083 107.59095,570.11712 107.5,565.31902 107.33016,556.35859 109.23093,547.47587 109.82143,538.53331 110.51241,528.06909 110.02001,517.51937 111.25,507.10474 112.13861,499.58065 114.25922,492.25138 115.53571,484.78331 116.75263,477.6638 117.62054,470.48865 118.75,463.35474 120.2787,453.69913 126.05558,443.88114 123.57143,434.42616 122.46353,430.20939 118.34808,427.41981 115.35714,424.24759 111.71489,420.38459 107.66399,416.91558 103.57143,413.53331 101.04789,411.44775 95.714286,407.64045 95.714286,407.64045 Z"
       id="path834"
       inkscape:connector-curvature="0"
       sodipodi:nodetypes="caaaaaaaaaaaacaaaaaaaaaaaac" />
    <path
       style="fill:#000000;stroke:none;stroke-width:1px;stroke-linecap:butt;stroke-linejoin:miter;stroke-opacity:1;fill-opacity:1"
       d="M 221.22341,259.37076 C 221.22341,259.37076 223.25699,273.80857 226.27417,280.33143 228.37356,284.87011 231.35543,289.15361 235.11301,292.45326 239.72702,296.50497 247.0742,296.81381 251.27545,301.29209 253.18217,303.32454 253.67269,306.32448 254.81098,308.86824 256.90583,313.54964 259.51448,318.06454 260.8719,323.01038 262.57974,329.23304 262.82242,335.77615 263.39728,342.20327 263.71261,345.72874 262.10523,349.7605 263.90235,352.80988 265.61035,355.70805 269.1289,358.28264 272.48865,358.11318 275.66677,357.95288 280.01371,355.48655 280.06479,352.3048 280.16523,346.04863 275.74829,339.28778 274.25642,332.60682 272.80863,326.12326 271.93073,319.5146 271.22596,312.90885 270.77863,308.71611 270.89313,304.47703 270.46835,300.28194 270.16852,297.32089 270.42671,294.15728 269.20565,291.44311 267.71097,288.12072 264.63419,285.75971 262.13459,283.10935 260.37799,281.2468 259.06839,278.40304 256.57875,277.80605 254.01486,277.19126 251.63888,280.11882 249.00261,280.07889 245.27625,280.02244 242.12359,278.38599 238.396,276.54336 236.0522,275.38477 234.5514,273.67018 232.84016,271.99767 230.62005,269.82782 228.88852,267.20435 226.77925,264.9266 224.99974,263.00495 221.22341,259.37076 221.22341,259.37076 Z"
       id="path838"
       inkscape:connector-curvature="0"
       sodipodi:nodetypes="caaaaaaaasaaaaaaasaac" />
    <path
       style="fill:#000000;stroke:none;stroke-width:1px;stroke-linecap:butt;stroke-linejoin:miter;stroke-opacity:1;fill-opacity:1"
       d="M 268.19551,244.97609 C 266.09016,246.62457 264.40743,252.04716 264.40743,252.04716 264.40743,252.04716 264.72283,256.28767 265.16504,258.36061 265.69831,260.86043 266.14496,263.47927 267.43789,265.68422 268.61252,267.68742 270.22601,269.57221 272.23612,270.73499 274.71035,272.16624 277.93662,273.70195 280.56987,272.75528 284.29386,271.4165 285.53255,266.95089 288.14601,264.16899 291.24345,260.87191 293.75714,256.71312 297.74246,254.57254 302.58557,251.97123 308.56921,252.61352 313.9049,251.28954 318.24817,250.21181 322.65474,249.22537 326.78435,247.50147 330.15706,246.09354 333.01915,243.63231 336.3808,242.19817 340.02978,240.64145 343.83106,239.3102 347.74502,238.66264 350.90202,238.14031 354.2294,239.15481 357.34146,238.4101 360.96684,237.54257 363.9164,234.81982 367.44299,233.61187 371.52008,232.21537 380.0699,230.83395 380.0699,230.83395 380.0699,230.83395 382.34218,234.54635 382.59528,236.64233 383.31202,242.57772 380.57298,248.4271 379.56482,254.32 378.9744,257.77115 378.6255,261.27219 377.79705,264.67406 376.35456,270.59742 374.06365,276.2815 372.24121,282.0992 370.1876,288.65485 367.57015,295.06945 366.1803,301.79717 365.08384,307.10471 365.25259,312.6055 364.41253,317.95961 363.89306,321.27046 363.07071,324.52664 362.39223,327.8086 361.97444,329.82955 361.57516,331.85452 361.12954,333.86952 360.25212,337.837 358.11679,341.68226 358.35162,345.73881 358.48089,347.97177 359.05013,350.46345 360.62446,352.05226 362.33043,353.77391 365.16997,355.41896 367.44299,354.57764 369.88136,353.67512 370.22478,350.15653 371.23106,347.75911 374.56071,339.82637 375.87105,331.18431 378.55467,323.01038 381.87715,312.89056 385.60238,302.90432 389.41381,292.95834 393.02173,283.5434 396.9987,274.27406 400.77802,264.9266 402.88739,259.70945 404.49886,254.26388 407.09148,249.26924 407.87676,247.75641 409.01559,246.45133 409.8694,244.97609 411.52898,242.10863 414.49755,239.4493 414.41509,236.13725 414.27709,230.59462 409.88929,225.77236 406.08132,221.74258 403.65993,219.18015 400.39433,217.51377 397.24249,215.9342 390.83853,212.7248 384.17167,207.9456 377.03944,208.6106 374.89762,208.8103 372.95937,210.32855 371.4836,211.89359 369.21065,214.30403 369.43154,218.55107 366.93792,220.73243 363.91192,223.37948 359.46001,223.74339 355.5737,224.77304 347.22564,226.98478 338.5318,227.60555 330.06734,229.31873 321.86096,230.97967 313.6893,232.82539 305.57115,234.87457 297.35309,236.94897 289.26474,239.50976 281.07495,241.69309 276.79404,242.83435 271.68383,242.24474 268.19551,244.97609 Z"
       id="path840"
       inkscape:connector-curvature="0"
       sodipodi:nodetypes="acaaacaaaaaaaacaaaaaaaaaaaaaaaaaaaaaaaaaaaa" />
    <path
       style="fill:#000000;stroke:none;stroke-width:1px;stroke-linecap:butt;stroke-linejoin:miter;stroke-opacity:1;fill-opacity:1"
       d="M 301.78307,303.05986 C 301.78307,303.05986 304.87159,307.46527 307.08637,308.86824 309.02084,310.09365 311.55622,311.81045 313.65237,310.88854 319.84555,308.16472 325.14778,304.84393 330.57242,301.2921 333.7416,299.21705 336.83255,296.99023 339.66379,294.47357 341.48837,292.85172 344.71456,289.17026 344.71456,289.17026 L 346.9874,285.38219 343.19933,283.36189 C 343.19933,283.36189 337.20807,282.60567 334.36049,283.36189 331.73673,284.05867 329.59386,285.9675 327.28943,287.4025 324.35619,289.22906 321.61677,291.35322 318.70313,293.21088 315.39208,295.32191 312.00196,297.30786 308.6016,299.27179 306.35011,300.57217 301.78307,303.05986 301.78307,303.05986 Z"
       id="path842"
       inkscape:connector-curvature="0"
       sodipodi:nodetypes="casaacccaaaac" />
    <path
       style="fill:#000000;stroke:none;stroke-width:1px;stroke-linecap:butt;stroke-linejoin:miter;stroke-opacity:1;fill-opacity:1"
       d="M 256.57875,355.08272 C 255.74942,357.89101 257.79289,360.94083 259.35667,363.41648 260.97819,365.98354 263.69658,367.66506 265.92266,369.72993 267.49613,371.18945 268.61497,373.60939 270.72088,374.02308 276.14636,373.27152 280.61821,370.38342 285.62063,368.71978 289.13254,367.55184 292.80272,366.84045 296.22724,365.43678 301.13926,363.4234 305.30746,359.71278 310.36937,358.11318 313.36624,357.16615 316.67868,357.66859 319.71328,356.85049 322.26415,356.1628 324.58161,354.79547 327.03689,353.82003 330.55297,352.42316 333.96903,350.68074 337.64349,349.77942 341.84179,348.74961 346.22312,348.70899 350.52293,348.26419 355.23061,347.7772 360.03812,347.99686 364.66507,347.0015 370.67723,345.70815 377.31826,344.81969 382.0902,340.94058 384.37547,339.08289 387.28678,336.01737 386.63589,333.36444 386.63589,333.36444 381.57828,330.54992 378.80721,329.82891 374.96442,328.82905 366.93791,328.81875 366.93791,328.81875 366.93791,328.81875 347.74502,332.60682 347.23994,333.61697 346.73486,334.62713 339.73897,336.85089 335.87572,338.16266 330.57638,339.96206 325.03626,340.98013 319.71328,342.70835 314.16562,344.50952 308.85916,347.0093 303.2983,348.76927 299.22972,350.05694 295.16012,351.53634 290.92393,352.05226 285.99307,352.65278 280.98848,351.97237 276.02418,351.79972 271.22222,351.63271 266.20376,349.57141 261.62951,351.04211 259.57695,351.70205 257.18939,353.01496 256.57875,355.08272 Z"
       id="path844"
       inkscape:connector-curvature="0"
       sodipodi:nodetypes="aaacaaaaaaaaacaccaaaaaaa" />
    <path
       style="fill:#000000;stroke:none;stroke-width:1px;stroke-linecap:butt;stroke-linejoin:miter;stroke-opacity:1;fill-opacity:1"
       d="M 201.02036,414.42918 C 199.67606,416.78316 197.16573,419.06085 197.48482,421.75279 197.76648,424.12898 200.3754,425.58056 202.03051,427.30863 204.21614,429.59061 206.47623,431.86368 209.10158,433.62208 211.66661,435.34008 214.5961,436.4504 217.43534,437.66269 220.32583,438.89686 223.13654,440.76287 226.27417,440.94569 229.82068,441.15234 233.28086,439.61007 236.62823,438.4203 241.98558,436.51612 247.11996,433.95825 252.03306,431.09669 254.68028,429.55486 256.71837,426.9671 259.56062,425.82403 264.89809,423.67747 271.0138,424.49002 276.61592,423.18136 293.49745,419.23783 309.52516,412.22342 326.2198,407.55155 332.54579,405.78127 338.94212,404.26005 345.35976,402.85793 362.19725,399.17929 379.14882,396.01748 396.13604,393.10752 407.04166,391.23935 414.95577,391.72698 428.95875,388.16043 431.74424,384.5309 431.80225,381.80336 430.80356,379.56225 422.50682,371.3149 422.63462,371.39481 410.67957,368.46282 402.17742,370.1704 391.94998,375.80597 384.7223,378.46968 375.42309,381.89684 366.18498,383.76562 356.85717,386.19343 340.87251,390.35386 324.78772,394.12213 308.71237,397.91703 295.53613,401.02754 282.38194,404.25316 269.119,406.97033 262.86194,408.25222 256.55629,409.28518 250.2653,410.38857 245.30362,411.25881 240.36808,413.5058 235.36555,412.91395 227.91233,412.03217 222.21858,404.64151 214.65742,404.07512 213.10956,403.95917 212.96097,406.8171 211.62696,407.61065 209.55526,408.84302 206.54954,407.77088 204.55589,409.12588 202.79873,410.32015 202.07396,412.58424 201.02036,414.42918 Z"
       id="path846"
       inkscape:connector-curvature="0"
       sodipodi:nodetypes="aaaaaaaaaaaaacccsaaaaasaaa" />
    <path
       style="fill:#000000;stroke:none;stroke-width:1px;stroke-linecap:butt;stroke-linejoin:miter;stroke-opacity:1;fill-opacity:1"
       d="M 164.82143,469.96188 C 164.82143,476.39045 164.47818,474.27526 164.82143,476.39045 165.30384,479.36326 165.8808,482.54562 167.67857,484.96188 170.02473,488.11519 174.28563,489.25124 177.32143,491.74759 180.24804,494.15415 182.48717,497.35464 185.53572,499.60474 188.88024,502.0733 192.29129,505.27305 196.42857,505.67617 201.41205,506.16174 206.03113,502.80499 210.71429,501.03331 219.39161,497.75061 225.7063,492.59971 236.25,489.96188 243.38467,487.06082 250.25984,484.38672 257.32143,481.74759 263.77627,479.33522 270.1212,476.53506 276.78572,474.78331 283.91235,472.9101 291.42476,472.82854 298.57143,471.03331 302.40517,470.07028 306.12662,468.68807 309.82143,467.28331 313.21125,465.9945 316.23097,463.50802 319.82143,462.9976 323.68087,462.44893 327.5313,464.33924 331.42857,464.42617 339.84483,464.6139 348.20286,462.94852 356.60714,462.46188 367.6085,461.82487 378.64079,461.83655 389.64286,461.21188 393.57635,460.98855 397.56671,459.53916 401.42857,460.31902 409.33803,461.91625 416.06633,462.14758 423.39286,462.99759 429.87666,463.74983 436.35386,464.58114 442.85714,465.14045 450.52217,465.79968 458.44386,466.60989 465.89286,466.56903 468.52872,466.55456 470.59912,468.9564 473.03572,469.96188 477.00348,471.5992 480.94787,473.5229 485.17857,474.24759 489.5201,474.99126 494.2364,475.7056 498.39286,474.24759 500.91043,473.36447 503.99872,471.83664 504.64286,469.24759 504.30708,462.70201 500.36624,456.2767 496.60715,450.67617 494.56627,447.63554 492.05214,444.73053 488.92857,442.81902 482.60148,438.94707 475.09432,436.03638 467.67857,436.21188 464.19601,436.2943 461.16461,438.68979 457.85715,439.78331 454.49557,440.89472 451.1791,442.28825 447.67857,442.81902 442.38164,443.62216 436.9637,442.89827 431.60715,442.99759 427.02306,443.08259 422.43285,443.06484 417.85714,443.35474 411.34914,443.76707 404.86741,444.54164 398.39286,445.31902 386.39919,446.75906 374.49895,448.92361 362.5,450.31902 351.69235,451.57589 340.83543,452.36558 330,453.35474 320.65653,454.2077 311.25062,454.51609 301.96429,455.85474 294.7545,456.89405 287.74061,459.06774 280.53572,460.14045 268.52626,461.92849 256.33523,462.21736 244.28572,463.71188 234.31091,464.94907 224.43606,466.91466 214.46429,468.17616 205.85589,469.2652 197.23692,470.40772 188.57143,470.85474 184.35086,471.07247 179.81678,472.4243 175.89286,470.85474 174.29013,470.21365 173.84103,467.59304 172.14286,467.28331 170.03149,466.89822 168.4883,468.55797 164.82143,469.96188 Z"
       id="path848"
       inkscape:connector-curvature="0"
       sodipodi:nodetypes="caaaaaacaaaaaaaasaasaaacaaaaaaaaaaaaaaaasc" />
    <path
       style="fill:#000000;stroke:none;stroke-width:1px;stroke-linecap:butt;stroke-linejoin:miter;stroke-opacity:1;fill-opacity:1"
       d="M 339.15872,417.2071 C 339.15872,417.2071 340.55535,423.91147 342.94679,426.04594 345.56949,428.38682 349.64172,428.20844 353.04832,429.07639 354.63219,429.47994 356.52211,429.12875 357.84654,430.08655 360.29171,431.85485 361.39567,435.06697 362.39223,437.91523 367.70388,453.09637 367.86578,469.64092 369.46329,485.64494 370.10797,492.10339 370.30503,498.60201 370.47345,505.09037 370.563,508.54056 370.1282,512.01039 370.47345,515.44444 371.02337,520.91436 373.13365,526.14477 373.75644,531.60688 374.47192,537.88192 374.45121,544.23439 374.26152,550.54724 374.08641,556.3749 372.50302,562.14715 372.74629,567.97237 372.97438,573.43409 373.78244,578.95325 375.52421,584.13481 376.33997,586.56159 378.94967,588.39549 379.05974,590.95334 379.28691,596.23234 376.67767,601.80771 372.99883,605.60055 371.71344,606.92577 369.79214,607.78478 367.94807,607.87339 358.48195,606.10394 348.65073,597.83524 338.14857,597.77187 336.02576,599.44927 338.11376,603.26618 338.90618,605.85309 340.08679,609.70727 342.86708,612.87704 344.71456,616.45969 348.87312,624.52403 352.54824,632.82933 356.58385,640.95589 358.9783,645.77762 362.53884,650.1439 363.90746,655.35056 364.40013,657.22484 363.72209,659.27111 364.15999,661.15894 364.82438,664.02315 365.20918,667.6707 367.69553,669.24016 369.90338,670.63383 372.94629,669.40139 375.52421,668.98762 378.46983,668.51483 382.052,668.62158 384.1105,666.46224 387.03189,659.29528 386.98754,654.68073 388.40366,648.78457 390.02012,642.05429 393.03226,635.50112 393.20188,628.58152 393.41591,619.85015 388.62902,611.55371 388.40365,602.82263 388.30504,599.00231 389.99555,595.27924 389.91888,591.45842 389.77144,584.11118 385.88633,577.08479 386.13081,569.74013 386.249,566.18957 388.61379,562.93835 388.65619,559.38607 388.72202,553.87159 385.2637,548.73665 385.12066,543.22363 384.90601,534.95068 388.22683,530.54101 389.16127,518.72743 389.41766,515.48601 386.25688,512.82577 385.62574,509.63606 383.97511,501.29401 385.31972,492.63116 385.12066,484.12971 384.97479,477.89987 384.33982,471.66733 384.61558,465.44188 385.0356,455.95979 389.0352,446.5807 387.89858,437.15761 387.14583,430.91695 387.46436,425.39716 381.33259,419.47994 378.54552,416.79039 373.58727,419.34299 369.71583,419.22741 363.06383,419.02882 356.39993,418.98983 349.76532,418.46979 346.21571,418.19156 339.15872,417.2071 339.15872,417.2071 Z"
       id="path850"
       inkscape:connector-curvature="0"
       sodipodi:nodetypes="caaaaaaaaaaaaaccaaaaaaacaaaaaaasaaaasaac" />
    <path
       style="fill:#000000;stroke:none;stroke-width:1px;stroke-linecap:butt;stroke-linejoin:miter;stroke-opacity:1;fill-opacity:1"
       d="M 252.53813,497.51423 C 252.53813,497.51423 254.25933,505.01688 255.56859,508.62591 257.08438,512.80426 259.16657,516.75737 261.12444,520.74774 263.76153,526.12245 265.5409,532.13031 269.45819,536.65764 271.43034,538.93691 274.26659,540.30015 276.7818,541.96094 280.87788,544.66558 282.55196,546.93157 289.40871,549.53708 291.52338,549.90337 294.00997,549.56838 295.72216,548.27439 298.66563,546.04987 300.8002,542.11482 300.77292,538.42541 300.71722,530.89403 294.75476,524.44741 290.16632,518.47489 287.15449,514.55455 283.31508,511.26767 279.30718,508.37337 274.48154,504.88854 269.23788,501.83754 263.64982,499.78707 260.10063,498.48474 252.53813,497.51423 252.53813,497.51423 Z"
       id="path852"
       inkscape:connector-curvature="0"
       sodipodi:nodetypes="caaaacaaaaac" />
  </g>
</svg>
