<?xml version="1.0" encoding="UTF-8" standalone="no"?>
<!-- Created with Inkscape (http://www.inkscape.org/) -->

<svg
   xmlns:dc="http://purl.org/dc/elements/1.1/"
   xmlns:cc="http://creativecommons.org/ns#"
   xmlns:rdf="http://www.w3.org/1999/02/22-rdf-syntax-ns#"
   xmlns:svg="http://www.w3.org/2000/svg"
   xmlns="http://www.w3.org/2000/svg"
   xmlns:sodipodi="http://sodipodi.sourceforge.net/DTD/sodipodi-0.dtd"
   xmlns:inkscape="http://www.inkscape.org/namespaces/inkscape"
   width="512"
   height="512"
   viewBox="0 0 512 512"
   version="1.1"
   id="svg4564"
   inkscape:version="0.92.4 (5da689c313, 2019-01-14)"
   sodipodi:docname="U+5F7C.svg">
  <defs
     id="defs4558" />
  <sodipodi:namedview
     id="base"
     pagecolor="#ffffff"
     bordercolor="#666666"
     borderopacity="1.0"
     inkscape:pageopacity="0.0"
     inkscape:pageshadow="2"
     inkscape:zoom="1.979899"
     inkscape:cx="329.26068"
     inkscape:cy="225.40942"
     inkscape:document-units="px"
     inkscape:current-layer="layer1"
     showgrid="false"
     units="px"
     inkscape:window-width="1920"
     inkscape:window-height="1005"
     inkscape:window-x="-9"
     inkscape:window-y="-9"
     inkscape:window-maximized="1">
    <inkscape:grid
       type="xygrid"
       id="grid4588" />
  </sodipodi:namedview>
  <metadata
     id="metadata4561">
    <rdf:RDF>
      <cc:Work
         rdf:about="">
        <dc:format>image/svg+xml</dc:format>
        <dc:type
           rdf:resource="http://purl.org/dc/dcmitype/StillImage" />
        <dc:title></dc:title>
      </cc:Work>
    </rdf:RDF>
  </metadata>
  <g
     inkscape:label="圖層 1"
     inkscape:groupmode="layer"
     id="layer1"
     transform="translate(0,-161.53331)">
    <path
       style="fill:#000000;stroke:none;stroke-width:1px;stroke-linecap:butt;stroke-linejoin:miter;stroke-opacity:1;fill-opacity:1"
       d="M 105.88745,247.6621 C 103.86249,248.64046 101.96838,250.60093 101.52033,252.80477 100.95807,255.5704 102.96902,258.27724 104.04571,260.88599 104.75665,262.60855 104.86159,265.24854 106.62711,265.84485 111.39816,267.45627 118.36117,268.81928 118.36117,268.81928 118.36117,268.81928 122.40196,270.76339 122.55496,272.65068 120.74861,279.54006 114.8948,282.85668 110.69836,287.65504 104.45155,294.79786 97.878343,301.67843 90.913729,308.12332 84.822321,313.76017 76.506662,317.20568 71.726087,323.98989 70.585118,325.60906 69.700526,329.57637 69.700526,329.57637 69.700526,329.57637 83.332021,325.28089 89.725006,322.14816 98.687906,317.7561 107.74665,313.02902 115.15739,306.34286 117.87187,303.89379 119.18859,300.15372 121.87132,297.6699 127.00336,292.91837 133.41836,289.7623 139.40105,286.13981 142.36652,284.34423 146.09491,283.59305 148.49242,281.08904 150.31489,279.18561 151.97598,276.6527 152.02796,274.01798 152.14092,268.29242 149.50449,261.84115 144.95689,258.36061 140.75878,255.14756 134.24975,257.6908 129.29953,255.83523 124.28398,253.95517 120.83604,248.72287 115.66247,247.33559 112.51356,246.49122 108.82293,246.2438 105.88745,247.6621 Z"
       id="path865"
       inkscape:connector-curvature="0"
       sodipodi:nodetypes="aaasccaaacaaaaaaaaaa" />
    <path
       style="fill:#000000;stroke:none;stroke-width:1px;stroke-linecap:butt;stroke-linejoin:miter;stroke-opacity:1;fill-opacity:1"
       d="M 102.5,337.99759 C 99.835024,339.79862 102.05118,344.69166 103.03572,347.81902 104.25588,351.69484 108.01757,354.31822 109.46428,358.17616 110.50551,360.95281 114.30344,362.25796 115,365.14045 115.49905,367.2056 113.51982,369.27836 113.75,371.39045 113.92614,373.00665 116.0217,374.3615 115.71428,375.85474 114.77194,380.43206 112.49891,382.42234 110.53571,385.49759 106.53207,391.76908 101.61151,397.40563 97.142858,403.35474 92.266665,409.84641 87.548145,416.46015 82.5,422.81902 78.348955,428.04787 74.294747,433.38744 69.642857,438.17617 64.207699,443.7712 58.24175,448.84887 52.142857,453.71188 49.340382,455.94646 45.856563,457.35854 43.392857,459.96188 41.406511,462.0608 40.605032,465.06748 38.750001,467.28331 37.505989,468.76928 36.055055,470.10503 34.464286,471.21188 32.322786,472.70193 29.458295,473.05955 27.5,474.78331 25.603856,476.45236 24.795565,479.06337 23.214286,481.03331 20.868042,483.95623 16.911513,485.76112 15.535714,489.24759 15.164279,490.18886 15.535714,492.28331 15.535714,492.28331 15.535714,492.28331 19.390432,493.34484 21.25,494.06902 22.292117,494.47485 24.285714,495.49759 24.285714,495.49759 24.285714,495.49759 34.096242,487.10072 38.928572,482.81902 43.438829,478.82269 47.746617,474.59843 52.321429,470.67617 55.694902,467.78389 59.336234,465.21152 62.678572,462.28331 66.13066,459.25895 69.408772,456.03959 72.678572,452.81902 75.107688,450.42648 77.479914,447.97593 79.821429,445.49759 82.425481,442.74137 84.777153,439.74367 87.500001,437.10474 91.89508,432.84513 96.870833,429.22555 101.42857,425.14045 106.10125,420.95233 110.4222,416.37614 115.17857,412.28331 119.03302,408.96658 123.16343,405.98471 127.14286,402.81902 130.12557,400.44624 132.43123,396.8056 136.07143,395.67616 138.40852,394.95104 141.10759,397.08673 143.39286,396.21188 145.47654,395.4142 146.91564,393.32008 148.03572,391.39045 150.3713,387.3668 151.41798,383.2417 151.96428,377.9976 152.29162,374.85535 147.76534,373.27153 145.53572,371.03331 143.06863,368.5567 140.50359,366.17439 137.85714,363.89045 134.97172,361.40027 128.92857,356.74759 128.92857,356.74759 L 121.07143,347.99759 C 121.07143,347.99759 119.70419,344.76944 118.39286,343.71188 114.01072,340.17779 108.59293,338.77392 102.5,337.99759 Z"
       id="path867"
       inkscape:connector-curvature="0"
       sodipodi:nodetypes="casaasaaaaaaaaaaacacaaaaaaaaaaaasaaccac" />
    <path
       style="fill:#000000;stroke:none;stroke-width:1px;stroke-linecap:butt;stroke-linejoin:miter;stroke-opacity:1;fill-opacity:1"
       d="M 83.035715,440.67617 C 85.635084,448.57349 86.845348,448.05279 89.285714,451.39045 90.753303,453.39766 92.787663,454.9416 94.285715,456.92617 95.977299,459.16713 97.305923,461.66112 98.75,464.06902 100.16258,466.42441 101.68287,468.72907 102.85714,471.21188 103.86392,473.34057 104.97599,475.49531 105.35714,477.81902 106.14772,482.63883 104.89209,487.57817 104.82143,492.46188 104.70862,500.25891 104.59428,508.06745 105,515.85474 105.28937,521.40878 106.73972,526.90189 106.60714,532.46188 106.51824,536.18998 105.14862,539.80712 105,543.53331 104.92631,545.38091 105.45023,547.22229 105.35715,549.06902 105.21133,551.9619 104.23013,554.75964 103.92857,557.64045 103.64324,560.36624 103.71436,563.11779 103.57143,565.85474 103.31641,570.73811 103.14848,575.63021 102.67857,580.4976 102.28622,584.56162 102.30828,588.74939 101.07143,592.64045 99.482488,597.63918 96.059534,601.85966 93.75,606.56902 92.107998,609.91722 89.843726,613.09191 89.107143,616.7476 88.330817,620.60054 89.241485,624.60926 89.464286,628.53331 89.586179,630.68014 88.721532,633.23294 90,634.96188 91.33408,636.76603 94.065637,637.97499 96.25,637.46188 100.60024,636.44001 103.15222,631.44469 105.17857,627.46188 107.99503,621.92612 107.65562,615.28665 109.10714,609.2476 111.22276,600.44557 114.51279,591.91512 116.07143,582.99759 117.25444,576.22913 117.10255,569.29139 117.85715,562.46188 118.39799,557.56699 119.12652,552.69442 119.82143,547.81902 120.27164,544.66045 121.01124,541.53629 121.25,538.35474 121.47273,535.3869 121.25,532.40236 121.25,529.42617 121.25,525.79522 121.00135,522.15574 121.25,518.53331 121.60798,513.31798 123.71555,508.21522 123.39286,502.99759 123.27878,501.153 121.99935,499.48823 121.96429,497.64045 121.90293,494.40642 123.7793,491.39412 124.10714,488.17617 124.41488,485.15551 124.00728,482.1043 123.92857,479.06902 123.83285,475.37787 124.24245,471.6285 123.57143,467.99759 122.97619,464.7767 122.32551,461.32989 120.35714,458.71188 118.86845,456.73187 116.33543,455.8173 114.28571,454.42617 111.5809,452.59043 108.88126,450.73958 106.07143,449.06902 102.40864,446.89134 98.78326,444.56673 94.821429,442.99759 92.015896,441.88642 86.071429,440.67617 86.071429,440.67617 86.071429,440.67617 83.553291,439.80665 83.035715,440.67617 Z"
       id="path869"
       inkscape:connector-curvature="0"
       sodipodi:nodetypes="caaaaaaaaaaaaaaaaaaaaaaaaaaaaaaaaaaaacc" />
    <path
       style="fill:#000000;stroke:none;stroke-width:1px;stroke-linecap:butt;stroke-linejoin:miter;stroke-opacity:1;fill-opacity:1"
       d="M 212.67857,320.14045 C 211.39348,321.15566 210.7897,323.17001 211.07143,324.78331 211.82142,329.07821 216.59222,331.5335 219.28571,334.96188 220.85967,336.96528 222.42391,338.97736 223.92857,341.03331 225.2159,342.7923 225.90841,345.11852 227.67857,346.39045 229.39171,347.62141 231.89395,347.17357 233.75,348.17617 235.12469,348.91875 236.10065,350.23675 237.32143,351.21188 238.94921,352.51212 240.62073,353.75861 242.32143,354.96188 243.37263,355.70562 244.27607,356.83742 245.53571,357.10474 249.67107,357.98232 254.19709,356.73285 258.03571,354.96188 260.56853,353.79335 262.14369,351.15247 264.46429,349.60474 266.92291,347.96496 269.74529,346.94577 272.32143,345.4976 276.44149,343.18152 280.37921,341.46589 284.46429,338.17616 288.69399,336.15268 293.1982,334.73716 297.67857,333.35474 301.37563,332.21401 305.26899,331.75338 308.92857,330.4976 314.82812,328.47316 320.35913,325.50214 326.07143,322.9976 330.00137,321.27453 333.83403,319.31166 337.85714,317.81902 346.26007,314.7014 355.18012,313.11065 363.57143,309.96188 367.11365,308.63269 370.37218,306.60981 373.92857,305.31902 376.19585,304.49611 378.48397,303.47729 380.89286,303.35474 383.30687,303.23193 386.56829,302.68401 388.03571,304.60473 388.03571,304.60473 387.83925,309.76543 387.32143,312.28331 386.46446,316.45029 385.24501,320.59634 383.39286,324.42617 381.61754,328.09713 379.06944,331.35439 376.60714,334.60474 374.61887,337.22936 372.62254,339.8982 370.17857,342.10474 367.54359,344.48373 364.44228,346.29991 361.42857,348.17616 359.86782,349.14784 363.57143,347.99759 356.60714,350.85474 356.60714,350.85474 352.23836,354.20405 345.53571,359.78331 352.3055,362.32644 352.67931,363.05424 356.78571,364.42617 360.25215,365.58429 364.04204,366.041 367.67857,365.67617 372.66064,365.17635 377.49567,363.29214 381.96429,361.03331 385.88566,359.05111 389.3537,356.22728 392.67858,353.35474 396.24628,350.27241 399.47718,346.79444 402.5,343.17617 405.69863,339.34747 408.52641,335.21329 411.25,331.03331 414.07558,326.69679 416.94334,322.34228 419.10715,317.64045 420.63385,314.32302 421.05105,310.55246 422.67857,307.28331 424.62831,303.3669 427.9193,300.23888 430,296.39045 431.38283,293.8328 432.67183,291.17146 433.39286,288.35474 434.11991,285.51451 436.44641,281.58638 434.28571,279.60474 430.38286,276.02533 425.25246,274.78763 420.53571,272.81902 413.96916,270.07838 407.02286,268.3445 400.35714,265.85474 395.42836,264.01376 390.66055,260.66839 385.71429,259.96188 383.11055,260.90598 382.90801,264.75127 381.78571,267.28331 380.27516,270.69127 379.55452,274.41473 378.03571,277.81902 377.06988,279.98385 376.44329,282.52702 374.64286,284.06903 371.95455,286.37149 367.99893,286.51568 364.64286,287.64045 360.68009,288.96855 356.67664,290.17271 352.67857,291.39045 348.46262,292.67455 344.19591,293.79228 340,295.14045 335.68076,296.52825 331.37732,297.97652 327.14286,299.60474 319.72361,302.45756 312.76913,306.53095 305.17857,308.89045 298.96936,310.82056 292.34112,311.09549 286.07143,312.81902 273.9828,316.14217 262.55767,320.26084 250.53571,325.14045 248.36221,326.02266 247.11507,328.75604 244.82143,329.2476 241.61397,329.93501 238.36798,328.05014 235.17857,327.28331 231.93501,326.50346 228.56874,325.99382 225.53571,324.60474 222.80395,323.35363 220.95122,320.3311 218.03571,319.60474 216.29432,319.17089 214.08678,319.02797 212.67857,320.14045 Z"
       id="path817"
       inkscape:connector-curvature="0"
       sodipodi:nodetypes="aaaaaaaaaaaacaaaaaaacaaaaaccsaaaaaaaaasaacaaaaaaaaasaaaaa" />
    <path
       style="fill:#000000;stroke:none;stroke-width:1px;stroke-linecap:butt;stroke-linejoin:miter;stroke-opacity:1;fill-opacity:1"
       d="M 193.06541,332.7331 195.08571,347.12777 C 195.08571,347.12777 197.69479,355.01124 200.36363,358.04819 201.96369,359.86894 204.38655,360.75559 206.44993,362.02752 209.80528,364.09586 213.18451,366.13628 216.67772,367.96217 219.23089,369.2967 222.5841,369.47817 224.5064,371.62397 225.98957,373.27958 225.59827,375.98078 226.65298,377.93742 227.56381,379.62715 229.70134,380.62637 230.18851,382.48311 231.71128,388.28677 227.8009,394.29276 227.53686,400.28705 227.22699,407.3218 228.6279,414.33451 228.79955,421.37398 228.98527,428.99041 228.71326,436.6118 228.54701,444.22868 228.46247,448.10207 228.76804,452.01784 228.1682,455.84544 227.36172,460.99173 225.18961,465.83096 223.87506,470.87146 221.70321,479.1992 219.91835,487.62309 217.94041,495.999 216.50916,502.05987 215.48177,508.23052 213.64726,514.18175 211.88115,519.9111 209.66994,525.50916 207.20754,530.97553 204.88794,536.1249 202.23809,541.13109 199.37886,546.00155 196.70161,550.56202 194.33769,555.4537 190.6663,559.2598 187.08258,562.97501 182.47023,565.57663 178.03939,568.22491 173.56385,570.89991 168.84197,573.17757 164.02352,575.16971 158.64835,577.39202 153.15589,579.44445 147.48227,580.72554 142.6852,581.80871 137.73606,582.08674 132.83506,582.49331 128.21628,582.87646 123.1139,581.09882 118.94546,583.12466 117.49602,583.82908 115.78874,586.78646 115.78874,586.78646 115.78874,586.78646 123.44187,590.44841 127.53176,591.45842 133.73648,592.9907 140.22082,593.89472 146.59839,593.47873 152.17069,593.11525 157.51676,591.09477 162.8871,589.56438 168.30165,588.02139 173.69969,586.36165 178.92327,584.26108 184.63493,581.96423 190.40796,579.62831 195.59079,576.30613 198.6351,574.35474 201.49624,572.04071 203.92454,569.36133 206.69189,566.30784 208.68985,562.63093 210.86934,559.13353 213.43163,555.02186 215.85714,550.81813 218.06668,546.50662 221.29646,540.20431 224.57933,533.87621 226.90552,527.18746 229.05494,521.007 230.38623,514.55505 231.57747,508.12083 232.85955,501.19594 233.29281,494.14022 234.22912,487.16016 234.98646,481.5143 236.13582,475.91522 236.62823,470.24011 237.07961,465.03782 236.86037,459.79745 237.13331,454.58275 237.4377,448.7671 238.04434,442.97059 238.396,437.15761 238.92018,428.49277 238.58005,419.7596 239.65869,411.14619 240.60334,403.6027 243.73378,396.38439 244.20438,388.79656 244.47614,384.41472 244.71366,379.78352 243.19423,375.66458 242.32888,373.31874 240.39172,371.51085 238.77481,369.60366 236.6384,367.0837 234.15996,364.87478 231.83001,362.5326 226.2677,356.9411 219.83107,352.12716 215.03622,345.86508 213.28275,343.57505 212.99601,340.16046 210.75359,338.3465 205.94428,334.4561 193.06541,332.7331 193.06541,332.7331 Z"
       id="path819"
       inkscape:connector-curvature="0"
       sodipodi:nodetypes="ccaaaaaaaaaaaaaaaaaaaaacaaaaaaaaaaaaaaaaaaaaac" />
    <path
       style="fill:#000000;stroke:none;stroke-width:1px;stroke-linecap:butt;stroke-linejoin:miter;stroke-opacity:1;fill-opacity:1"
       d="M 265.16504,174.26541 C 265.16504,174.26541 273.29598,180.33156 277.53941,183.10425 281.39469,185.62332 285.67717,187.47633 289.4087,190.17532 292.84152,192.65826 296.11248,195.41364 299.00515,198.50908 301.9594,201.67042 304.42984,205.26557 306.83384,208.86314 309.32848,212.59636 312.53499,216.13114 313.65237,220.47989 315.16126,226.35239 313.23148,232.59997 313.14729,238.66264 313.083,243.29206 313.42961,247.93099 313.14729,252.55224 312.5991,261.52538 310.71211,270.37148 309.86429,279.32128 308.08202,298.13546 306.70792,317.00197 306.07622,335.88982 305.93553,340.09644 306.34732,344.3165 306.07622,348.51673 305.78098,353.09093 305.14858,357.64772 304.30845,362.15379 302.87897,369.82088 298.23339,377.10032 298.75261,384.88222 298.89102,386.95669 301.52133,388.67152 301.02546,390.6906 298.22171,402.10695 295.73836,409.63552 289.15616,418.97487 286.27739,423.05951 279.62209,423.13104 276.52926,427.05609 275.0958,428.87527 273.61759,431.39584 274.25642,433.62208 275.18109,436.84445 279.44461,437.86998 282.0851,439.93553 284.49856,441.82348 286.46227,444.65011 289.4087,445.49137 292.90435,446.48945 297.249,446.50663 300.26784,444.48122 303.73848,442.15268 304.41796,437.20589 306.07622,433.36954 309.4352,425.59865 314.40998,409.37842 314.40998,409.37842 314.40998,409.37842 312.54311,380.07758 313.14729,365.43678 313.8353,348.76455 316.93504,332.27926 318.70313,315.68677 319.94035,304.07612 318.93078,292.03454 322.23866,280.83651 323.33721,277.11763 326.48303,274.2128 327.54196,270.48245 328.69502,266.42052 327.56806,261.96169 328.55212,257.85554 330.35553,250.33053 333.35864,245.8797 337.39095,236.3898 338.7884,233.10097 335.14891,229.56873 334.61303,226.03573 333.64026,219.62236 335.10185,212.95615 333.85542,206.5903 332.47901,199.56062 330.41299,192.40783 326.53181,186.38725 323.85475,182.23452 319.76497,179.14254 315.92521,176.03318 312.15122,172.97708 308.39085,169.54503 303.80338,167.95196 298.85707,166.23428 293.35167,166.1258 288.14601,166.68927 282.98359,167.24806 278.16295,169.56491 273.24626,171.23496 270.5222,172.16024 265.16504,174.26541 265.16504,174.26541 Z"
       id="path821"
       inkscape:connector-curvature="0"
       sodipodi:nodetypes="caaaaaaaaaaaassaaaaaacaaaaasaaaaaaac" />
    <path
       style="fill:#000000;stroke:none;stroke-width:1px;stroke-linecap:butt;stroke-linejoin:miter;stroke-opacity:1;fill-opacity:1"
       d="M 348.50263,389.68045 C 346.64495,389.88659 342.94679,390.43806 342.94679,390.43806 342.94679,390.43806 342.12992,395.24929 343.19933,397.25659 344.27604,399.2776 346.84798,400.02977 348.75517,401.2972 351.86934,403.36673 355.62951,404.54215 358.35162,407.10558 361.47946,410.05109 365.67522,417.71218 365.67522,417.71218 365.3947,429.9161 358.96745,438.76556 355.57369,449.27944 352.06561,460.14748 349.78827,471.50422 344.9671,481.85686 340.52962,491.38558 334.5708,500.19031 328.29958,508.62591 323.28207,515.37511 317.76533,521.81214 311.63206,527.56627 304.80467,533.97161 297.6423,540.28358 289.4087,544.73886 279.92609,549.86999 269.39252,553.0789 258.85159,555.34546 245.96146,558.11716 232.61291,559.73192 219.45564,558.881 214.0343,558.53039 208.63873,557.23631 203.54574,555.34546 193.69512,551.68828 183.94263,547.04579 175.76654,540.44571 168.28536,534.40659 161.21203,527.1556 157.07872,518.47489 153.91306,511.82643 152.11024,504.06157 153.03811,496.75661 153.74043,491.22737 156.5692,485.90947 160.10918,481.60433 163.55256,477.41666 168.43152,474.51002 173.24117,472.00787 180.42037,468.27299 188.22412,465.41298 196.22213,464.17919 203.71156,463.02386 211.3922,464.13889 218.95056,464.68427 227.2402,465.28241 235.82353,465.05987 243.6993,467.71473 254.51618,471.36101 257.41967,472.20031 264.15489,474.7858 275.24804,479.0442 284.83995,482.22089 296.98485,488.6754 305.77995,493.34962 315.31465,496.78926 324.25897,501.3023 331.45655,504.93399 338.44465,508.96833 345.47217,512.91905 356.4851,519.11029 367.4888,525.32584 378.30213,531.85942 385.71792,536.34015 393.11805,540.86248 400.27295,545.74901 408.12837,551.11397 415.63235,556.97679 423.25392,562.66907 431.63067,568.92537 440.37334,574.74011 448.25519,581.60943 455.34515,587.78859 461.50212,594.96361 468.2057,601.55994 473.46742,606.73748 478.48586,612.18999 484.11561,616.96477 486.27272,618.79429 488.38119,620.79786 490.93414,622.01553 493.36667,623.17576 498.76282,624.03584 498.76282,624.03584 498.76282,624.03584 501.82022,619.03029 502.29835,616.20715 502.93339,612.45754 502.69434,608.37644 501.2882,604.84294 498.82855,598.66206 493.71089,593.79441 488.91383,589.18557 483.1343,583.63281 475.98263,579.71258 469.46839,575.04344 458.91382,567.47835 448.4643,559.75433 437.64859,552.56754 425.33396,544.38475 412.72529,536.64419 400.02041,529.0815 386.38299,520.9637 372.65923,512.96651 358.60415,505.59545 341.29938,496.52012 323.82839,487.68169 305.82368,480.0891 288.9916,472.99101 271.97816,466.02654 254.3059,461.40128 242.83233,458.39836 230.98502,456.95189 219.2031,455.5929 212.83387,454.85824 206.39097,453.70358 200.0102,454.33021 193.85278,454.9349 187.9055,457.04444 182.08,459.12843 175.55316,461.46332 168.67227,463.53845 163.13963,467.71473 159.08775,470.77326 155.71548,474.87137 153.29065,479.33148 150.22508,484.97012 148.45539,491.38925 147.73481,497.76677 147.17592,502.71328 147.94852,507.75266 148.74496,512.66652 149.49628,517.302 150.05702,522.16736 152.2805,526.30358 154.42543,530.29367 158.38235,533.00152 161.37186,536.4051 164.44486,539.90372 167.24466,543.64652 170.46324,547.0117 174.29147,551.01429 178.26263,554.9129 182.58507,558.37592 186.32048,561.36862 190.19195,564.27965 194.45436,566.45714 201.07032,569.83696 208.23223,572.13552 215.41503,574.03328 221.1952,575.56045 227.1168,576.88704 233.0927,577.06374 239.95019,577.26651 246.79742,576.01242 253.54829,574.7909 262.00631,573.26049 270.56638,571.66324 278.54956,568.47745 290.83662,563.57414 302.26265,556.55124 313.14729,549.03201 320.91555,543.66561 328.44298,537.76984 334.86557,530.84926 344.09832,520.90062 352.23702,509.75337 358.60415,497.76677 363.61435,488.3347 366.59654,477.92923 369.71583,467.71473 373.46062,455.45195 375.41716,442.70463 378.8072,430.33908 380.48282,424.22707 382.9605,418.96877 384.36304,412.15634 385.44144,406.91832 380.14751,402.17426 376.7869,398.01421 374.49755,395.18025 371.74657,392.5006 368.45314,390.94313 365.04988,389.33373 361.10189,389.10035 357.34146,388.92283 354.38767,388.78339 351.44167,389.35431 348.50263,389.68045 Z"
       id="path823"
       inkscape:connector-curvature="0"
       sodipodi:nodetypes="acaaacaaaaaaaaaaaaaaasasaaaaaaaaacaaaaaaaaaaaaaaaaaaaaaaaaaaaaaasaaaa" />
  </g>
</svg>
