<?xml version="1.0" encoding="UTF-8" standalone="no"?>
<!-- Created with Inkscape (http://www.inkscape.org/) -->

<svg
   xmlns:dc="http://purl.org/dc/elements/1.1/"
   xmlns:cc="http://creativecommons.org/ns#"
   xmlns:rdf="http://www.w3.org/1999/02/22-rdf-syntax-ns#"
   xmlns:svg="http://www.w3.org/2000/svg"
   xmlns="http://www.w3.org/2000/svg"
   xmlns:sodipodi="http://sodipodi.sourceforge.net/DTD/sodipodi-0.dtd"
   xmlns:inkscape="http://www.inkscape.org/namespaces/inkscape"
   width="512"
   height="512"
   viewBox="0 0 512 512"
   version="1.1"
   id="svg8"
   inkscape:version="0.92.4 (5da689c313, 2019-01-14)"
   sodipodi:docname="U+5FD8.svg">
  <defs
     id="defs2" />
  <sodipodi:namedview
     id="base"
     pagecolor="#ffffff"
     bordercolor="#666666"
     borderopacity="1.0"
     inkscape:pageopacity="0.0"
     inkscape:pageshadow="2"
     inkscape:zoom="1.4"
     inkscape:cx="101.00144"
     inkscape:cy="307.80303"
     inkscape:document-units="px"
     inkscape:current-layer="layer1"
     showgrid="false"
     units="px"
     scale-x="1"
     inkscape:window-width="1920"
     inkscape:window-height="1017"
     inkscape:window-x="-8"
     inkscape:window-y="-8"
     inkscape:window-maximized="1" />
  <metadata
     id="metadata5">
    <rdf:RDF>
      <cc:Work
         rdf:about="">
        <dc:format>image/svg+xml</dc:format>
        <dc:type
           rdf:resource="http://purl.org/dc/dcmitype/StillImage" />
        <dc:title></dc:title>
      </cc:Work>
    </rdf:RDF>
  </metadata>
  <g
     inkscape:label="圖層 1"
     inkscape:groupmode="layer"
     id="layer1"
     transform="translate(0,-161.53331)">
    <path
       style="fill:#000000;stroke:none;stroke-width:1px;stroke-linecap:butt;stroke-linejoin:miter;stroke-opacity:1"
       d="M 172.14286,221.39045 200.71429,207.10474 C 200.71429,207.10474 255,222.10474 251.42857,238.53331 247.85714,254.96188 248.57143,258.53331 232.14286,264.96188 215.71429,271.39045 221.42857,246.39045 221.42857,246.39045 L 207.14286,234.96188 Z"
       id="path3724"
       inkscape:connector-curvature="0" />
    <path
       style="fill:#000000;stroke:none;stroke-width:1px;stroke-linecap:butt;stroke-linejoin:miter;stroke-opacity:1;fill-opacity:1"
       d="M 134.28571,289.96188 124.28571,297.81902 138.57143,314.2476 143.57143,328.53331 162.14286,327.81902 C 162.14286,327.81902 192.85714,302.81902 219.28571,296.39045 245.71429,289.96188 272.85714,289.96188 272.85714,289.96188 L 269.28571,303.53331 347.85714,278.53331 350.71429,267.10474 C 350.71429,267.10474 329.69287,256.98841 318.57143,257.81902 302.63503,259.00924 275,277.81902 275,277.81902 275,277.81902 204.94212,293.67117 169.28571,294.2476 157.53344,294.43759 134.28571,289.96188 134.28571,289.96188 Z"
       id="path3726"
       inkscape:connector-curvature="0"
       sodipodi:nodetypes="cccccsccccacac" />
    <path
       style="fill:#000000;stroke:none;stroke-width:1px;stroke-linecap:butt;stroke-linejoin:miter;stroke-opacity:1;fill-opacity:1"
       d="M 87.857143,325.67617 C 87.857143,325.67617 137.14286,332.81902 147.85714,342.81902 158.57143,352.81902 161.42857,389.96188 161.42857,389.96188 161.42857,389.96188 230.38552,372.52915 263.57142,359.96188 271.44064,356.98186 278.03966,349.90416 286.42857,349.2476 303.48121,347.91297 335.71429,363.53331 335.71429,363.53331 L 341.42857,384.2476 332.14286,387.10474 C 332.14286,387.10474 304.28064,379.75602 290,379.2476 279.46307,378.87247 258.57143,382.81902 258.57143,382.81902 L 181.42857,407.81902 C 181.42857,407.81902 172.18765,419.4611 165.71428,419.24759 156.42142,418.94109 152.32323,406.0648 144.28571,401.39045 139.01014,398.32236 127.14286,394.96188 127.14286,394.96188 L 138.57143,377.81902 125,362.81902 C 125,362.81902 88.571429,338.53331 87.857143,332.81902 87.142857,327.10474 87.857143,325.67617 87.857143,325.67617 Z"
       id="path3728"
       inkscape:connector-curvature="0"
       sodipodi:nodetypes="cscaacccaccaacccsc" />
    <path
       style="fill:#000000;stroke:none;stroke-width:1px;stroke-linecap:butt;stroke-linejoin:miter;stroke-opacity:1;fill-opacity:1"
       d="M 79.285714,470.67617 C 79.285714,470.67617 52.398551,503.07153 50.714286,522.81902 50.029621,530.84651 50.864431,543.32851 58.571429,545.67617 68.000911,548.54852 77.977709,536.75307 82.142857,527.81903 90.201414,510.53382 79.285714,470.67617 79.285714,470.67617 Z"
       id="path3730"
       inkscape:connector-curvature="0"
       sodipodi:nodetypes="caaac" />
    <path
       style="fill:#000000;stroke:none;stroke-width:1px;stroke-linecap:butt;stroke-linejoin:miter;stroke-opacity:1;fill-opacity:1"
       d="M 145,453.53331 C 145,453.53331 181.42857,545.67617 255.71429,557.81902 330,569.96188 425.71429,573.53331 436.42857,568.53331 447.14286,563.53331 444.28571,551.39045 444.28571,551.39045 L 406.42857,525.67617 C 406.42857,525.67617 332.14285,423.53331 260.71428,424.96188 363.57143,479.24759 330,474.96188 370.71429,524.2476 L 379.28571,544.24759 C 379.28571,544.24759 260,557.10473 202.85714,509.96188 144.74236,462.0172 145,453.53331 145,453.53331 Z"
       id="path3732"
       inkscape:connector-curvature="0"
       sodipodi:nodetypes="csscccccsc" />
    <path
       style="fill:#000000;stroke:none;stroke-width:1px;stroke-linecap:butt;stroke-linejoin:miter;stroke-opacity:1;fill-opacity:1"
       d="M 236.42857,426.39045 C 227.32318,428.21153 206.79789,428.68534 210.71429,437.10474 216.97542,450.5648 231.32322,468.7625 239.28571,472.10474 257.5824,479.78474 297.30281,439.33308 298.57143,445.67617 L 312.14286,428.53331 C 312.14286,428.53331 277.60468,442.73635 259.28571,444.2476 251.63337,444.87889 240.24895,448.0509 236.42857,441.39045 233.72197,436.67175 245.85172,430.93185 242.85714,426.39045 241.67752,424.60151 238.52981,425.9702 236.42857,426.39045 Z"
       id="path3734"
       inkscape:connector-curvature="0"
       sodipodi:nodetypes="assccaaaa" />
    <path
       style="fill:#000000;stroke:none;stroke-width:1px;stroke-linecap:butt;stroke-linejoin:miter;stroke-opacity:1;fill-opacity:1"
       d="M 395,404.2476 C 403.57143,403.53331 449.19027,391.17164 472.85714,397.81902 486.68114,401.70181 494.28571,407.10474 500.71428,420.67617 507.31508,434.61118 490,434.96188 490,434.96188 Z"
       id="path3736"
       inkscape:connector-curvature="0"
       sodipodi:nodetypes="ccscc" />
  </g>
</svg>
