<?xml version="1.0" encoding="UTF-8" standalone="no"?>
<!-- Created with Inkscape (http://www.inkscape.org/) -->

<svg
   xmlns:dc="http://purl.org/dc/elements/1.1/"
   xmlns:cc="http://creativecommons.org/ns#"
   xmlns:rdf="http://www.w3.org/1999/02/22-rdf-syntax-ns#"
   xmlns:svg="http://www.w3.org/2000/svg"
   xmlns="http://www.w3.org/2000/svg"
   xmlns:sodipodi="http://sodipodi.sourceforge.net/DTD/sodipodi-0.dtd"
   xmlns:inkscape="http://www.inkscape.org/namespaces/inkscape"
   width="512"
   height="512"
   viewBox="0 0 512 512"
   version="1.1"
   id="svg4564"
   inkscape:version="0.92.4 (5da689c313, 2019-01-14)"
   sodipodi:docname="U+6043.svg">
  <defs
     id="defs4558" />
  <sodipodi:namedview
     id="base"
     pagecolor="#ffffff"
     bordercolor="#666666"
     borderopacity="1.0"
     inkscape:pageopacity="0.0"
     inkscape:pageshadow="2"
     inkscape:zoom="1.979899"
     inkscape:cx="365.85827"
     inkscape:cy="244.81649"
     inkscape:document-units="px"
     inkscape:current-layer="layer1"
     showgrid="false"
     units="px"
     inkscape:window-width="1920"
     inkscape:window-height="1005"
     inkscape:window-x="-9"
     inkscape:window-y="-9"
     inkscape:window-maximized="1">
    <inkscape:grid
       type="xygrid"
       id="grid4588" />
  </sodipodi:namedview>
  <metadata
     id="metadata4561">
    <rdf:RDF>
      <cc:Work
         rdf:about="">
        <dc:format>image/svg+xml</dc:format>
        <dc:type
           rdf:resource="http://purl.org/dc/dcmitype/StillImage" />
        <dc:title></dc:title>
      </cc:Work>
    </rdf:RDF>
  </metadata>
  <g
     inkscape:label="圖層 1"
     inkscape:groupmode="layer"
     id="layer1"
     transform="translate(0,-161.53331)">
    <path
       style="fill:#000000;stroke:none;stroke-width:1px;stroke-linecap:butt;stroke-linejoin:miter;stroke-opacity:1;fill-opacity:1"
       d="M 95.306226,221.75527 C 98.490926,228.51783 101.08989,228.43462 103.54064,232.09665 104.50469,233.53718 104.76528,235.49664 106.06602,236.64233 108.1071,238.4401 111.69355,237.77519 113.64216,239.67279 116.84889,242.79558 117.99687,247.66096 118.95815,252.00384 119.27365,258.984 119.09457,264.33539 118.69292,270.48245 118.02983,280.63085 116.32223,290.68391 115.15739,300.78702 113.62416,314.0853 111.61778,327.33953 110.6117,340.68805 109.58608,354.29586 110.13265,367.99221 109.09647,381.59922 108.3818,390.9841 106.8385,400.28819 105.8568,409.6489 104.43756,423.18165 102.73521,436.70116 102.02541,450.2896 101.42711,461.74342 102.28315,473.24312 101.66827,484.69606 101.36104,490.41847 99.773394,496.08141 100.0051,501.80738 100.3558,510.47398 105.58166,518.7996 104.6068,527.41833 104.02252,532.58397 102.69593,537.28064 98.489873,541.76442 97.333489,542.99716 93.43911,542.21348 93.43911,542.21348 93.43911,542.21348 94.077906,546.93274 94.449263,549.28455 94.866225,551.92519 94.257762,555.01534 95.816558,557.1872 97.064236,558.92558 100.03878,558.64782 101.45905,560.24829 103.79323,562.87863 103.44078,567.10177 105.35173,570.05395 106.67246,572.09431 108.40365,573.9459 110.43313,575.28328 113.94847,577.59981 122.22846,579.79834 122.22846,579.79834 122.22846,579.79834 124.83916,572.00234 124.75384,567.97237 124.61981,561.64201 121.52583,555.72664 120.0042,549.58041 118.80596,544.74043 117.2148,539.96742 116.55533,535.02512 115.91441,530.2218 116.56728,525.31661 116.08088,520.4952 115.67157,516.4379 113.9547,512.51185 114.02994,508.43465 114.10964,504.11523 116.52179,500.06398 116.67262,495.74646 116.80799,491.87167 115.35417,488.09052 115.10137,484.22162 114.85786,480.49499 115.34381,476.74795 115.15739,473.01803 114.99683,469.80555 114.06664,466.63706 114.14724,463.42158 114.28387,457.97044 116.0722,452.67883 116.67262,447.25914 117.17198,442.75168 117.19639,438.20335 117.56548,433.68336 118.02147,428.09919 118.73221,422.53792 119.198,416.95456 119.77068,410.08986 119.68088,403.16168 120.62657,396.33835 121.67535,388.77124 123.9198,381.41578 125.32019,373.90579 126.25113,368.91331 127.10751,363.90402 127.7843,358.87079 128.64159,352.49519 128.76593,346.02646 129.8046,339.67789 130.62691,334.65174 132.07118,329.74695 133.13092,324.76545 134.83394,316.76014 136.75692,308.78938 138.00311,300.70036 139.15877,293.19904 140.31878,285.64785 140.4112,278.05859 140.48512,271.98814 138.76536,265.97525 138.92661,259.90648 139.05776,254.97086 140.06403,250.17927 140.91628,245.22863 140.70839,242.73445 139.64024,240.32628 138.3909,238.15756 136.95976,235.67325 135.22578,233.1741 132.83506,231.59157 128.57226,228.76981 123.12276,228.38022 118.18785,227.04589 110.63079,225.00256 101.09016,219.77704 95.306226,221.75527 Z"
       id="path836"
       inkscape:connector-curvature="0"
       sodipodi:nodetypes="caaacaaaaaaaaascaaaaacaaaaaaaaaaaaaaaaaaaacaaac" />
    <path
       style="fill:#000000;stroke:none;stroke-width:1px;stroke-linecap:butt;stroke-linejoin:miter;stroke-opacity:1;fill-opacity:1"
       d="M 130.71429,324.2476 C 130.71429,324.2476 135.41105,329.07648 137.85714,331.39045 140.06202,333.47624 142.41764,335.3978 144.64286,337.46188 146.21693,338.92196 147.38574,340.92633 149.28571,341.92617 151.11423,342.88842 153.36703,342.6204 155.35714,343.17617 158.09522,343.94083 160.66406,345.23619 163.39286,346.03331 164.91744,346.47866 166.44749,347.11918 168.03572,347.10474 169.26278,347.09359 170.38922,346.36181 171.60714,346.21188 173.14316,346.02279 174.78739,346.71774 176.25,346.21188 177.25158,345.86547 177.77775,344.66937 178.75,344.2476 179.46824,343.93602 180.434,344.34502 181.07143,343.89045 182.11197,343.14841 183.01357,341.76602 182.85714,340.4976 182.67139,338.99145 180.81083,338.25543 179.82143,337.10474 178.66369,335.75827 177.56246,334.36422 176.42857,332.9976 175.53801,331.92426 174.81766,330.68067 173.75,329.78331 171.6475,328.01618 169.04691,326.93743 166.60714,325.67617 165.093,324.89342 163.60165,324.00701 161.96429,323.53331 159.77276,322.89928 157.45093,322.43756 155.17857,322.64045 152.25356,322.90162 149.7066,325.01527 146.78571,325.31902 143.86962,325.62227 140.9617,324.61086 138.03571,324.42617 135.59936,324.27239 130.71429,324.2476 130.71429,324.2476 Z"
       id="path838"
       inkscape:connector-curvature="0"
       sodipodi:nodetypes="caaaaaaaaaaaaaaaaaaac" />
    <path
       style="fill:#000000;stroke:none;stroke-width:1px;stroke-linecap:butt;stroke-linejoin:miter;stroke-opacity:1;fill-opacity:1"
       d="M 36.071429,359.42617 C 34.843539,359.72057 33.876068,360.93817 33.392857,362.10474 33.051175,362.92963 32.594262,364.38401 33.392857,364.78331 33.392857,364.78331 38.01584,366.42291 39.821429,367.9976 40.854187,368.89829 41.1101,370.48976 42.142857,371.39045 43.145962,372.26528 44.853965,372.16059 45.714286,373.17617 46.760909,374.41167 46.237297,376.4767 47.142857,377.81902 47.82913,378.83629 49.530806,379.00658 50,380.14045 51.098354,382.79478 47.965874,386.07572 49.107143,388.71188 49.84972,390.42712 53.879223,390.26117 53.571429,392.10474 52.967901,395.71964 51.823984,397.1717 51.25,399.78331 50.604904,402.71847 50.293501,405.72103 50,408.71188 49.691401,411.85659 49.701082,415.02524 49.464286,418.17617 49.177549,421.99164 49.1271,425.84962 48.392857,429.60474 47.521975,434.05867 45.382774,438.19609 44.464286,442.64045 44.148989,444.1661 43.483193,445.79044 43.928571,447.28331 44.327292,448.61979 45.679928,449.45576 46.607143,450.4976 47.698799,451.72421 49.358132,452.55764 50,454.06902 50.535665,455.33033 49.45643,457.01154 50.178571,458.17617 51.217501,459.8517 53.447965,460.54158 55.357143,461.03331 56.509994,461.33024 58.928571,461.03331 58.928571,461.03331 58.928571,461.03331 59.028586,458.94193 59.642857,458.17617 60.55898,457.03412 62.674786,457.36929 63.571429,456.21188 64.615304,454.86442 64.288712,452.87919 64.642857,451.21188 65.363243,447.82031 65.595858,443.97683 66.785715,441.03331 69.24717,434.94406 68.556412,435.28631 69.285714,428.53331 69.67184,424.95796 71.046024,421.5497 71.607143,417.9976 71.896407,416.16645 71.885051,414.29773 72.142857,412.46188 72.689996,408.56568 74.285714,400.85474 74.285714,400.85474 L 76.785714,393.17617 C 77.183514,391.95435 73.639467,393.41758 73.035714,392.28331 71.840907,390.03863 74.90857,387.55229 75.714286,385.14045 76.048492,384.14003 77.239048,382.94926 76.607143,382.10474 75.965254,381.24687 74.02621,382.96893 73.392857,382.10474 72.691774,381.14814 74.983437,379.77822 74.464286,378.71188 73.573816,376.88284 70.104332,378.08695 68.75,376.56902 68.096437,375.83651 68.612951,374.50593 68.035714,373.71188 67.375332,372.80346 65.424134,373.02209 65.178571,371.92617 64.961961,370.95947 67.634938,369.93632 66.785714,369.42617 54.064044,361.78394 46.541752,356.91578 36.071429,359.42617 Z"
       id="path840"
       inkscape:connector-curvature="0"
       sodipodi:nodetypes="aasaaaaaasaaaaaaaaaacaaacsaacsaaaaaaaasa" />
    <path
       style="fill:#000000;stroke:none;stroke-width:1px;stroke-linecap:butt;stroke-linejoin:miter;stroke-opacity:1;fill-opacity:1"
       d="M 243.39286,281.39045 C 242.21731,282.3612 239.77932,283.6382 240.53571,284.96188 240.53571,284.96188 244.39358,290.55272 245.53571,293.71188 246.23442,295.64454 245.16515,298.31906 246.60714,299.78331 247.71296,300.9062 249.95606,299.77649 251.25,300.67617 252.85087,301.78925 253.8997,303.76496 254.28571,305.67617 254.60735,307.2687 252.68279,309.13749 253.57143,310.4976 256.84199,312.59166 258.81747,311.89766 261.42857,312.64045 263.04081,313.09909 264.57432,314.02694 266.25,314.06902 270.29109,314.17051 274.35176,312.87598 278.03571,311.21188 280.68434,310.01545 282.64066,307.62812 285.17857,306.21188 288.06559,304.60082 291.23837,303.56555 294.28571,302.28331 296.5985,301.31015 298.91881,300.35441 301.25,299.42617 309.84589,296.00344 318.6227,293.03329 327.14286,289.42617 331.06693,287.76486 334.95032,285.99795 338.75,284.06903 344.76098,281.01752 351.97289,279.30631 356.42857,274.2476 357.06418,273.52597 356.72555,272.13909 357.5,271.56903 359.32728,270.22398 362.23152,271.99683 364.28572,271.03331 367.22013,269.65691 369.01085,266.57088 371.07142,264.06903 372.86644,261.88961 376.3775,259.8863 375.89286,257.10474 375.27763,253.57363 370.30965,252.53362 367.14286,250.85474 365.62866,250.05198 364.00838,249.37138 362.32143,249.06902 359.74347,248.60695 357.04706,248.63464 354.46429,249.06902 352.84925,249.34064 351.41647,250.30472 349.82143,250.67617 346.08231,251.54693 342.18124,251.48234 338.39286,252.10474 335.45545,252.58733 332.47057,252.96023 329.64286,253.89045 319.29613,257.29419 309.76539,262.81579 300,267.64045 297.58906,268.83159 295.37734,270.45236 292.85714,271.39045 291.13865,272.03012 289.25399,272.10577 287.5,272.64045 285.73403,273.17878 284.10239,274.11828 282.32143,274.60474 280.63167,275.06629 278.79928,274.92788 277.14286,275.4976 275.3549,276.11256 273.97017,277.69048 272.14286,278.17617 270.07111,278.72683 267.78395,277.79627 265.71429,278.35474 263.55405,278.93765 261.99597,281.04201 259.82143,281.56902 257.39107,282.15803 254.78696,281.80841 252.32143,281.39045 250.40983,281.0664 248.71738,279.43778 246.78571,279.60474 245.51243,279.71479 244.37832,280.57668 243.39286,281.39045 Z"
       id="path842"
       inkscape:connector-curvature="0"
       sodipodi:nodetypes="asaaaacaaaaaaaaaaaaaaaaaaaaaaaaaaaaaa" />
    <path
       style="fill:#000000;stroke:none;stroke-width:1px;stroke-linecap:butt;stroke-linejoin:miter;stroke-opacity:1;fill-opacity:1"
       d="M 275.89285,204.78331 C 284.82143,208.53331 281.95219,207.05423 284.82143,208.53331 287.43488,209.88053 290.4007,210.94998 292.32143,213.17617 294.48116,215.67936 295.17574,219.15659 296.25,222.28331 297.70895,226.52967 298.87154,230.89576 299.64286,235.31902 300.5464,240.50053 300.83309,245.77902 301.07143,251.03331 301.16583,253.1145 301.04438,255.20015 301.07143,257.28331 301.13096,261.8678 301.28094,266.45081 301.42857,271.03331 301.52831,274.12923 301.58155,277.22823 301.78571,280.31902 302.2901,287.95484 304.5077,295.54566 303.92857,303.17617 303.68712,306.35752 301.94234,309.28904 301.60714,312.46188 301.42568,314.17954 301.88973,315.91637 301.78571,317.64045 301.6696,319.56482 301.13634,321.4423 300.89286,323.35474 300.35652,327.56742 300.08251,331.80945 299.64286,336.03331 299.19031,340.38107 299.44112,344.87346 298.21429,349.06902 296.07232,356.3942 291.64522,363.33332 288.05366,369.58679 288.31887,371.53559 294.03896,370.99302 296.76251,369.97983 299.6219,368.91611 301.4465,366.02427 303.41298,363.69176 305.89701,360.74536 307.92773,357.42545 309.82143,354.06902 313.11869,348.22491 316.37348,342.25377 318.39286,335.85474 320.70175,328.5383 321.35185,320.78677 322.32143,313.17617 323.33283,305.23732 323.4713,297.20907 324.28571,289.2476 325.23162,280.0006 327.19002,270.85142 327.67857,261.56902 328.05092,254.49448 326.61508,247.36805 327.32143,240.31902 327.62527,237.28684 329.07853,234.43076 329.28571,231.39045 329.53743,227.69656 329.28683,223.91193 328.39286,220.31902 327.59459,217.11072 326.18246,214.03647 324.46429,211.21188 322.70566,208.32078 320.67181,205.47659 318.03571,203.35474 314.96661,200.88435 311.16697,199.43827 307.5,197.9976 304.27337,196.72992 300.94893,195.49118 297.5,195.14045 293.58039,194.74186 289.47144,194.84753 285.71429,196.03331 283.60179,196.70003 281.65623,197.95509 280,199.42617 278.31767,200.92043 275.31539,202.60855 275.89285,204.78331 Z"
       id="path844"
       inkscape:connector-curvature="0"
       sodipodi:nodetypes="caaaaaaaaaaaaaacaaaaaaaaaaaaaaaac" />
    <path
       style="fill:#000000;stroke:none;stroke-width:1px;stroke-linecap:butt;stroke-linejoin:miter;stroke-opacity:1;fill-opacity:1"
       d="M 150.76527,363.66902 C 150.76527,363.66902 151.65217,370.6943 152.78557,374.02308 153.93829,377.4086 155.60553,380.6401 157.5838,383.61953 159.30098,386.20574 161.13351,388.86548 163.64471,390.6906 165.41517,391.97735 167.7398,392.25381 169.70563,393.21598 172.31276,394.49203 174.56674,396.48246 177.28177,397.50913 178.81059,398.08724 180.50354,398.95087 182.08,398.51928 186.04511,397.43374 187.85869,392.62 191.17137,390.18552 195.09216,387.30414 199.4102,384.96422 203.79828,382.86192 210.55143,379.62653 217.75522,377.43036 224.75894,374.7807 232.90508,371.69884 241.00791,368.48945 249.25514,365.68932 257.09638,363.02703 265.05949,360.73653 272.99373,358.36572 279.96239,356.28343 286.89506,354.05525 293.95439,352.3048 298.37704,351.20815 302.87103,350.42159 307.33891,349.52688 312.13054,348.56733 316.88869,347.38717 321.73359,346.74896 331.10475,345.51452 340.58232,345.28809 350.01786,344.72865 358.93513,344.19994 367.86251,343.85673 376.7869,343.46597 385.11947,343.10111 393.44776,342.50594 401.78817,342.45581 413.66202,342.38444 425.54375,342.74733 437.39605,343.46597 444.6534,343.906 451.87873,344.7729 459.11433,345.48627 463.1572,345.88486 467.18137,346.99866 471.23616,346.74896 474.59907,346.54187 477.72724,344.75273 481.08515,344.47612 485.11998,344.14375 489.31356,346.34348 493.20698,345.23373 496.98074,344.15809 501.93571,342.24212 502.80343,338.4152 503.57002,335.0343 499.85695,332.07885 497.75267,329.32383 494.75361,325.39732 491.35286,321.56105 487.14606,318.96977 479.64362,314.34846 470.94791,309.99848 462.14479,310.38347 457.17511,310.60081 453.2921,315.08253 448.50773,316.44439 444.33989,317.63076 439.89172,317.4366 435.62828,318.21215 431.89126,318.89194 428.22564,319.91869 424.51661,320.73753 417.45506,322.29651 410.34778,323.64841 403.3034,325.28322 396.87959,326.77401 390.55781,328.69582 384.1105,330.08144 379.00922,331.17778 373.8601,332.04884 368.70568,332.85936 363.08408,333.74334 357.44206,334.50884 351.78563,335.13221 346.9146,335.66902 341.99891,335.7699 337.13841,336.3949 331.20872,337.15739 325.38391,338.61373 319.46074,339.42536 313.75957,340.20657 308.00791,340.5623 302.28815,341.19312 296.55921,341.82495 290.78941,342.19981 285.11556,343.21343 278.0407,344.47734 271.19203,346.80482 264.15489,348.26419 253.11078,350.55454 241.85143,351.72259 230.81986,354.07257 222.07366,355.93572 213.54327,358.72283 204.80843,360.63856 198.53503,362.01445 192.06,362.46864 185.86807,364.17409 180.93814,365.53194 176.5821,369.25569 171.4734,369.47739 166.67895,369.68546 162.19963,367.00241 157.5838,365.68932 155.30375,365.0407 150.76527,363.66902 150.76527,363.66902 Z"
       id="path846"
       inkscape:connector-curvature="0"
       sodipodi:nodetypes="caaaaaaaaaaaaaaaaaaaaaaaaaaaaaaaaaaaaaaaaaaac" />
    <path
       style="fill:#000000;stroke:none;stroke-width:1px;stroke-linecap:butt;stroke-linejoin:miter;stroke-opacity:1;fill-opacity:1"
       d="M 168.44294,416.19695 C 166.78595,421.18442 166.51745,423.372 167.43278,426.80355 168.07087,429.1957 170.08865,431.00736 171.72593,432.86447 173.53839,434.92027 175.47525,436.94795 177.78685,438.42031 180.01517,439.83963 182.83571,440.10711 185.11045,441.45076 186.96683,442.54729 188.55469,444.05346 190.16122,445.49138 192.73368,447.79384 194.47705,451.12021 197.48482,452.81498 201.78936,455.24044 206.94179,456.52636 211.8795,456.35051 214.61974,456.25292 217.52806,455.48811 219.70818,453.82513 224.1078,450.46914 224.59932,443.53794 228.79955,439.93553 234.20405,435.30025 241.62655,433.72171 248.24499,431.0967 255.52008,428.21125 262.99769,425.85342 270.46834,423.52056 277.81919,421.22511 285.18196,418.91237 292.6917,417.2071 301.43684,415.2213 310.36245,414.13568 319.20821,412.66141 328.04032,411.18943 336.88134,409.77101 345.72471,408.36827 354.39083,406.99364 363.01304,405.27576 371.73613,404.32766 378.44412,403.59858 385.20623,403.50754 391.93919,403.06497 396.82265,402.74397 401.69853,402.29964 406.5864,402.05481 409.27808,401.91998 411.9726,401.8163 414.66762,401.80227 418.70905,401.78124 422.76133,401.72635 426.78945,402.05481 429.75579,402.2967 432.69481,402.81502 435.62828,403.3175 438.1667,403.75231 440.62905,404.84126 443.20443,404.83273 445.69732,404.82448 448.16501,404.11166 450.52803,403.3175 452.38398,402.69376 455.83133,400.79213 455.83133,400.79213 455.83133,400.79213 459.89352,395.42962 459.36687,392.45836 458.74322,388.93979 455.0223,386.60316 452.04326,384.62968 447.55848,381.65871 442.17238,380.09691 436.89098,379.07384 431.59924,378.04877 426.09471,378.06135 420.72853,378.56877 412.65662,379.33204 404.91533,382.16132 396.98995,383.87207 388.92106,385.6138 380.88066,387.51837 372.74629,388.92284 361.77747,390.81669 350.49254,390.89172 339.66379,393.46852 333.86269,394.84894 328.6134,398.22551 322.74374,399.27689 319.26261,399.90043 315.64795,399.10368 312.13714,399.52943 304.00661,400.51541 296.116,402.94672 288.14601,404.83274 279.10615,406.97193 270.17928,409.57639 261.12443,411.65126 252.99789,413.51342 244.79859,415.0427 236.62823,416.70203 229.89791,418.0689 223.04711,418.92177 216.42518,420.74264 212.03542,421.94972 208.01747,424.43357 203.54573,425.28832 201.3944,425.69954 199.12215,425.0854 196.97975,425.54086 195.64952,425.82366 194.55155,427.07062 193.19167,427.05609 189.53322,427.01701 186.15351,424.76334 183.09015,422.76294 181.44472,421.68846 180.52428,419.6596 178.797,418.72233 175.67455,417.02799 171.42478,414.26586 168.44294,416.19695 Z"
       id="path848"
       inkscape:connector-curvature="0"
       sodipodi:nodetypes="caaaaaaaaaaaaaaaaaaaaaacaaaaaaaaaaaaaaaaaac" />
    <path
       style="fill:#000000;stroke:none;stroke-width:1px;stroke-linecap:butt;stroke-linejoin:miter;stroke-opacity:1;fill-opacity:1"
       d="M 312.89475,365.18425 C 312.89475,365.18425 320.43541,365.67666 324.00643,364.67917 326.03819,364.11164 327.47142,361.92884 329.56227,361.64871 334.62156,360.97088 339.79394,363.1191 344.46202,365.18425 348.00656,366.75235 351.12225,369.22017 354.05847,371.75024 356.49514,373.84987 358.46154,376.44064 360.62446,378.82131 363.35097,381.82231 367.20181,384.14728 368.70568,387.91268 369.64287,390.25923 368.7564,392.97011 368.95822,395.48882 369.331,400.14112 371.03084,404.72117 370.72598,409.37842 370.50992,412.67908 368.625,415.69449 368.2006,418.97487 367.81177,421.98028 367.64183,425.08774 368.2006,428.06624 368.50037,429.66414 369.87876,430.98863 369.96837,432.61193 370.0404,433.91676 368.77598,435.10595 368.95822,436.4 369.16357,437.85815 371.02746,438.72968 371.23106,440.18807 371.54446,442.4329 369.862,444.5228 369.46329,446.75406 368.97262,449.49994 368.71929,452.29848 368.70568,455.08782 368.69044,458.21264 369.25379,461.3139 369.46329,464.43173 369.88716,470.73993 370.61662,477.05129 370.47344,483.37209 370.29911,491.06781 368.27277,498.6557 368.2006,506.35306 368.14122,512.68641 369.8296,518.96082 369.71583,525.29342 369.65037,528.93693 368.55699,532.50994 368.45314,536.15256 368.37144,539.01844 368.68846,541.88453 368.95822,544.73886 369.50936,550.57045 371.42928,556.30977 371.23106,562.16399 370.9115,571.60169 367.46763,580.67174 365.67522,589.94319 364.45616,596.24894 362.13969,608.88355 362.13969,608.88355 362.13969,608.88355 357.04066,608.93363 354.81608,607.87339 349.92371,605.54168 346.41678,600.92481 342.94679,596.76172 340.2557,593.53312 340.02744,587.72427 336.12826,586.15511 329.72584,583.57857 329.68114,580.6672 326.02673,578.57897 321.276,575.86427 315.81379,574.61965 310.87445,572.26552 304.31242,569.13801 300.80407,567.81148 291.68155,561.91145 290.42902,561.10137 290.41886,557.61831 290.41886,557.61831 290.41886,557.61831 296.47867,557.89187 299.51023,557.87084 301.53224,557.85682 303.56296,557.38181 305.57114,557.61831 310.78469,558.2323 315.50482,561.3421 320.72343,561.91145 322.1485,562.06693 324.26554,561.71205 325.01658,561.65892 330.60475,561.26361 334.07485,564.30591 338.14857,562.66907 340.13999,561.86891 341.07231,559.52334 342.44172,557.87084 344.47216,555.42065 346.94489,553.19686 348.25009,550.2947 350.43051,545.44646 350.54086,539.9016 351.28054,534.63733 351.68033,531.79207 352.09967,528.9236 352.03816,526.05104 351.96909,522.82539 350.98637,519.67407 350.77547,516.45458 350.54986,513.01061 350.56534,509.54548 350.77547,506.10053 351.02848,501.95264 353.4925,497.70418 352.2907,493.72616 352.06625,492.98323 350.97945,492.7072 350.77547,491.95839 350.14616,489.64826 352.11987,487.28023 352.03816,484.88732 351.9434,482.11229 350.29967,479.56841 350.01786,476.8061 349.81263,474.79449 349.84675,472.72237 350.27039,470.74519 350.55532,469.41541 352.11419,468.27678 351.78562,466.95711 351.43928,465.56606 348.97022,465.53432 348.50263,464.1792 347.68949,461.82264 349.56031,459.30615 350.01785,456.85559 350.39377,454.84221 351.02801,450.79467 351.02801,450.79467 351.02801,450.79467 351.37388,444.21041 351.02801,440.94569 350.77406,438.54857 349.85005,436.26144 349.51278,433.87462 349.0051,430.2818 348.96985,426.63764 348.75517,423.01548 348.55073,419.56608 348.7071,416.08652 348.25009,412.66142 347.68011,408.38965 346.75577,404.14854 345.47217,400.03451 344.28024,396.21429 342.70896,392.50578 340.92648,388.92283 339.74972,386.55743 338.79387,383.9317 336.88587,382.1043 334.95477,380.25477 332.26363,379.39011 329.81481,378.31623 327.93749,377.49297 325.28478,377.89839 324.00643,376.29592 323.53106,375.70002 324.49622,374.19634 323.75389,374.02308 323.75389,374.02308 317.35919,372.88159 315.16759,370.74008 313.73647,369.34167 312.89475,365.18425 312.89475,365.18425 Z"
       id="path850"
       inkscape:connector-curvature="0"
       sodipodi:nodetypes="caaaaaaaaaaaaaaaaaaaaaaacaasaascaaasaaaaaaaaaaaaaaacaaaaaaaaasac" />
    <path
       style="fill:#000000;stroke:none;stroke-width:1px;stroke-linecap:butt;stroke-linejoin:miter;stroke-opacity:1;fill-opacity:1"
       d="M 245,449.06902 C 245,449.06902 243.40383,452.5818 244.64286,453.17617 250.44915,455.9615 250.14478,458.26797 252.85715,460.85474 255.08084,462.97547 257.37667,465.0285 259.46429,467.28331 262.30686,470.35352 265.05152,473.53333 267.5,476.92617 271.06675,481.86859 273.13847,487.86687 277.14286,492.46188 279.53125,495.20255 282.6144,497.26246 285.53571,499.42617 287.8839,501.16538 290.07534,503.35294 292.85714,504.2476 295.69267,505.15954 299.26191,506.1866 301.78571,504.60474 303.93146,503.25984 304.32136,500.12297 304.82143,497.64045 305.69132,493.32203 304.99122,488.81754 304.64286,484.42617 304.41453,481.54785 303.63372,478.73204 303.39286,475.85474 303.16936,473.18484 305.70688,468.23763 303.75,465.31902 302.51237,463.47313 299.63377,463.61895 297.5,462.9976 295.86347,462.52104 294.08932,461.31023 292.5,461.92617 291.54512,462.29623 291.69431,464.12901 290.71429,464.42617 288.46084,465.10946 286.23083,462.94347 284.10714,461.92617 281.98957,460.9118 279.86358,459.82849 278.03571,458.35474 276.39609,457.03277 275.49916,454.88507 273.75,453.71188 271.48194,452.19066 268.69382,451.61715 266.07143,450.85474 263.32491,450.05625 260.51029,449.47194 257.67857,449.06902 255.25597,448.72431 252.80392,448.50073 250.35714,448.53331 248.56268,448.5572 245,449.06902 245,449.06902 Z"
       id="path852"
       inkscape:connector-curvature="0"
       sodipodi:nodetypes="csaaaaaaaaasaaaaaaaaaac" />
  </g>
</svg>
