<?xml version="1.0" encoding="UTF-8" standalone="no"?>
<!-- Created with Inkscape (http://www.inkscape.org/) -->

<svg
   xmlns:dc="http://purl.org/dc/elements/1.1/"
   xmlns:cc="http://creativecommons.org/ns#"
   xmlns:rdf="http://www.w3.org/1999/02/22-rdf-syntax-ns#"
   xmlns:svg="http://www.w3.org/2000/svg"
   xmlns="http://www.w3.org/2000/svg"
   xmlns:sodipodi="http://sodipodi.sourceforge.net/DTD/sodipodi-0.dtd"
   xmlns:inkscape="http://www.inkscape.org/namespaces/inkscape"
   width="512"
   height="512"
   viewBox="0 0 512 512"
   version="1.1"
   id="svg8"
   inkscape:version="0.92.4 (5da689c313, 2019-01-14)"
   sodipodi:docname="U+6539.svg">
  <defs
     id="defs2" />
  <sodipodi:namedview
     id="base"
     pagecolor="#ffffff"
     bordercolor="#666666"
     borderopacity="1.0"
     inkscape:pageopacity="0.0"
     inkscape:pageshadow="2"
     inkscape:zoom="1.7774942"
     inkscape:cx="335.31453"
     inkscape:cy="297.77334"
     inkscape:document-units="px"
     inkscape:current-layer="svg8"
     showgrid="false"
     units="px"
     viewbox-width="512"
     inkscape:window-width="1920"
     inkscape:window-height="1005"
     inkscape:window-x="-9"
     inkscape:window-y="-9"
     inkscape:window-maximized="1">
    <inkscape:grid
       type="xygrid"
       id="grid3724" />
  </sodipodi:namedview>
  <metadata
     id="metadata5">
    <rdf:RDF>
      <cc:Work
         rdf:about="">
        <dc:format>image/svg+xml</dc:format>
        <dc:type
           rdf:resource="http://purl.org/dc/dcmitype/StillImage" />
        <dc:title></dc:title>
      </cc:Work>
    </rdf:RDF>
  </metadata>
  <g
     inkscape:label="圖層 1"
     inkscape:groupmode="layer"
     id="layer1"
     transform="translate(0,-161.53332)" />
  <path
     style="stroke-width:0.774584"
     d=""
     id="path17"
     inkscape:connector-curvature="0" />
  <path
     style="fill:#000000;stroke:none;stroke-width:1px;stroke-linecap:butt;stroke-linejoin:miter;stroke-opacity:1;fill-opacity:1"
     d="M 41.912937,105.8102 C 43.956027,113.74895 50.351783,122.1253 50.351783,122.1253 50.351783,122.1253 56.641555,131.28334 61.040988,134.50227 65.651429,137.87558 71.460296,140.64682 76.793501,141.25335 82.555401,141.90864 88.547548,138.47363 94.515079,137.59652 101.87249,136.51513 116.73738,135.62745 116.73738,135.62745 L 127.14529,133.37709 C 125.45752,139.56558 126.3014,143.50371 126.3014,143.50371 L 126.3014,158.13105 C 126.3014,158.13105 126.4834,169.28399 125.45752,174.72744 124.52397,179.68092 125.2489,184.00906 120.67551,189.07348 111.24415,194.63892 106.046,195.08312 98.453208,197.23104 90.260665,199.54862 81.756977,200.57684 73.417963,202.29434 67.600228,203.49256 61.702711,207.53414 55.977681,205.95117 49.45446,204.1475 41.069052,192.16772 41.069052,192.16772 41.069052,192.16772 24.548177,177.1981 13.502154,169.94543 11.619404,168.70924 6.751077,169.66413 6.751077,169.66413 6.751077,169.66413 7.0185183,175.52144 7.5949617,178.38428 8.7189602,183.96649 10.057285,189.63388 12.658269,194.69938 14.645573,198.56972 17.67684,201.82666 20.534526,205.10729 23.670049,208.70688 27.963936,211.29517 30.661142,215.2339 32.629905,218.10889 33.937647,221.44346 34.880565,224.79793 37.18437,232.99382 38.256103,250.11447 38.256103,250.11447 L 41.069052,281.90079 45.00718,296.24683 C 45.00718,296.24683 48.213614,308.00409 51.476963,307.77992 62.157935,290.20714 59.892902,292.71709 61.884873,284.43245 63.97018,275.75962 61.895347,266.51952 63.291347,257.70943 64.992822,246.97151 65.720099,235.26402 71.730194,226.2044 73.503198,223.53177 76.192364,220.98431 79.325155,220.29721 82.146601,219.6784 84.875666,222.29795 87.764002,222.26628 102.47705,222.10496 130.52082,211.29578 130.52082,211.29578 130.52082,211.29578 152.63207,206.00269 163.71362,201.45045 164.62868,196.85237 151.89924,193.01161 151.89924,193.01161 151.89924,193.01161 145.7569,190.31043 144.58556,187.38572 142.74586,182.79215 148.47519,173.49455 150.49276,166.56989 153.14823,157.45589 158.65031,139.28429 158.65031,139.28429 L 169.05822,129.72026 183.12297,127.4699 191.28052,121.00012 185.93591,115.37422 C 185.93591,115.37422 188.76914,111.25597 188.74887,108.90444 188.65914,98.498609 182.03878,89.594801 175.8093,80.493658 174.64013,79.689679 172.96766,79.591866 171.58988,79.931068 165.12303,81.523172 160.29397,87.086643 155.27478,91.464158 150.82513,95.344936 147.75339,100.67069 143.17909,104.40372 140.53778,106.55926 137.70933,108.71979 134.45895,109.74832 125.9494,112.44102 116.63723,110.78028 107.73593,111.43609 98.8209,112.09291 81.012925,113.68645 81.012925,113.68645 81.012925,113.68645 71.782487,114.89288 67.229476,114.24904 58.421778,113.00355 48.976176,108.15343 41.912937,105.8102 Z"
     id="path831"
     inkscape:connector-curvature="0"
     sodipodi:nodetypes="ccacaccccacaaacscaaaaaccccaaaaaccccacccccacaaaaacac" />
  <path
     style="fill:#000000;stroke:none;stroke-width:1px;stroke-linecap:butt;stroke-linejoin:miter;stroke-opacity:1;fill-opacity:1"
     d="M 12.09568,344.91085 C 13.749077,337.73917 16.315103,331.97128 24.472654,326.62668 32.630206,321.28207 46.864375,315.42257 58.509335,310.87417 69.060391,306.75303 80.051174,303.85973 90.858245,300.46625 101.24351,297.20522 122.08198,290.90223 122.08198,290.90223 L 143.74168,282.74467 157.52513,277.68137 C 157.52513,277.68137 147.09136,291.7842 140.64744,297.6533 135.91678,301.96197 124.89492,308.62381 124.89492,308.62381 L 108.29853,318.75042 84.107168,333.37775 63.291347,343.50437 C 63.291347,343.50437 55.990275,346.06727 52.883437,348.28638 48.458019,351.44732 45.987824,356.84508 41.631642,360.10077 38.33978,362.56102 34.756898,366.06424 30.661142,365.72666 23.446852,365.13206 14.064744,357.56911 13.220859,352.7871 12.376975,348.00509 11.499886,347.49513 12.09568,344.91085 Z"
     id="path833"
     inkscape:connector-curvature="0"
     sodipodi:nodetypes="asaacccaccccaaasa" />
  <path
     style="fill:#000000;stroke:none;stroke-width:1px;stroke-linecap:butt;stroke-linejoin:miter;stroke-opacity:1;fill-opacity:1"
     d="M 262.44812,23.390798 C 255.84489,25.935565 249.32071,34.570145 251.19633,41.39367 252.11887,44.749875 257.42137,44.512642 260.47906,46.175683 267.60014,50.048748 276.38522,53.022864 281.57617,58.271362 284.18137,62.017301 283.90412,67.211376 283.82653,71.773517 283.64924,82.198487 279.83416,92.242087 277.63805,102.43466 274.72038,115.97607 268.35531,142.94112 268.35531,142.94112 L 259.35388,171.91449 C 259.35388,171.91449 264.13355,172.15661 273.69992,155.3181 278.17642,147.43865 286.63948,131.40803 286.63948,131.40803 286.63948,131.40803 297.07568,103.20939 300.70422,88.651209 302.70619,80.619028 304.66949,72.452564 304.92365,64.178555 305.16114,56.447303 306.52299,47.651757 302.39199,41.112375 298.38957,34.776523 283.26395,29.29799 283.26395,29.29799 283.26395,29.29799 269.17823,20.797133 262.44812,23.390798 Z"
     id="path835"
     inkscape:connector-curvature="0"
     sodipodi:nodetypes="aaacaaccscaaaca" />
  <path
     style="fill:#000000;stroke:none;stroke-width:1px;stroke-linecap:butt;stroke-linejoin:miter;stroke-opacity:1;fill-opacity:1"
     d="M 202.81361,202.85693 C 202.00924,194.13558 211.83799,187.2925 218.84741,182.04111 225.04864,177.3952 232.96337,175.37189 240.50712,173.60226 246.64782,172.16176 259.35388,171.91449 259.35388,171.91449 L 294.51574,166.2886 352.46248,153.63033 C 352.46248,153.63033 367.01217,150.05804 374.12219,147.72314 379.56509,145.93571 387.34305,143.78501 390.15599,141.53465 392.96894,139.28429 396.62578,134.50227 396.62578,134.50227 L 407.87757,133.37709 417.72289,139.28429 423.63009,146.87925 421.37973,151.09867 C 421.37973,151.09867 402.55601,154.11992 393.25024,156.16198 380.85499,158.88199 368.73338,162.73547 356.40061,165.726 343.9766,168.73866 318.98839,174.16485 318.98839,174.16485 L 287.76466,181.19722 C 287.76466,181.19722 265.54236,189.07348 264.41718,189.63607 263.29201,190.19866 247.38831,194.89071 239.66324,199.2001 236.68256,200.86286 233.77874,202.84251 231.50569,205.38858 229.18174,207.99166 229.14319,212.57791 226.16108,214.39002 223.35193,216.09703 216.31576,214.95261 216.31576,214.95261 216.31576,214.95261 203.36856,208.87396 202.81361,202.85693 Z"
     id="path837"
     inkscape:connector-curvature="0"
     sodipodi:nodetypes="aaacccaccccccaacccaaaca" />
  <path
     style="fill:#000000;stroke:none;stroke-width:1px;stroke-linecap:butt;stroke-linejoin:miter;stroke-opacity:1;fill-opacity:1"
     d="M 285.7956,188.51089 C 285.7956,188.51089 295.89776,204.16224 298.45387,212.98355 299.05635,215.06275 299.3145,217.30921 299.01645,219.45333 296.14406,240.11708 276.79416,277.96266 276.79416,277.96266 276.79416,277.96266 262.05565,307.10988 252.04021,319.8756 245.00056,328.84835 236.61786,336.846 227.56755,343.78566 210.18692,357.1129 190.91909,368.09363 171.02729,377.25975 159.95895,382.36003 148.27376,386.21067 136.42802,389.07414 125.0984,391.81285 113.48165,393.87148 101.82875,394.13745 95.234183,394.28797 82.138104,392.16838 82.138104,392.16838 82.138104,392.16838 108.01723,403.13888 111.39277,403.42018 114.76831,403.70147 128.84969,406.23817 137.5532,405.38924 152.26971,403.95381 166.51701,398.903 180.31002,393.57486 190.01085,389.82749 199.52875,385.31365 208.15821,379.51011 223.32401,369.31071 237.02461,356.85279 249.50856,343.50437 266.55822,325.27405 281.2616,304.84192 294.79703,283.86985 305.78599,266.84334 323.7704,230.42383 323.7704,230.42383 323.7704,230.42383 329.35361,225.10456 329.11501,221.70369 325.42568,210.05653 315.63439,200.62324 305.20494,192.73031 299.38477,189.2056 285.7956,188.51089 285.7956,188.51089 Z"
     id="path839"
     inkscape:connector-curvature="0"
     sodipodi:nodetypes="caacaaaaaccaaaaacccc" />
  <path
     style="fill:#000000;stroke:none;stroke-width:1px;stroke-linecap:butt;stroke-linejoin:miter;stroke-opacity:1;fill-opacity:1"
     d="M 164.8388,216.64038 C 161.73767,217.36755 158.91838,220.53523 158.36902,223.67275 157.8254,226.77747 159.62687,230.34845 162.02585,232.39289 164.44912,234.45803 168.42101,233.30199 171.30858,234.64326 181.53092,239.39152 189.75698,247.61901 198.59418,254.61518 205.26835,259.89894 211.75427,265.4315 218.00353,271.21158 223.64972,276.43387 228.62436,282.35688 234.31863,287.52669 249.60717,301.40712 282.13876,326.90797 282.13876,326.90797 282.13876,326.90797 314.04298,351.25536 329.95889,363.4763 342.2608,372.92225 366.80852,391.88709 366.80852,391.88709 366.80852,391.88709 377.38156,400.09774 383.68621,401.73241 396.84977,405.14546 424.47397,400.88852 424.47397,400.88852 424.47397,400.88852 443.69042,399.23028 453.16604,397.51299 465.89854,395.20545 490.85956,388.23025 490.85956,388.23025 490.85956,388.23025 436.09624,373.28879 410.12793,362.06983 372.22142,345.69328 301.54811,302.43532 301.54811,302.43532 L 240.50712,263.89792 189.03016,225.92311 C 189.03016,225.92311 173.24779,214.6686 164.8388,216.64038 Z"
     id="path841"
     inkscape:connector-curvature="0"
     sodipodi:nodetypes="aaaaaaacacacacaccca" />
</svg>
