<?xml version="1.0" encoding="UTF-8" standalone="no"?>
<!-- Created with Inkscape (http://www.inkscape.org/) -->

<svg
   xmlns:dc="http://purl.org/dc/elements/1.1/"
   xmlns:cc="http://creativecommons.org/ns#"
   xmlns:rdf="http://www.w3.org/1999/02/22-rdf-syntax-ns#"
   xmlns:svg="http://www.w3.org/2000/svg"
   xmlns="http://www.w3.org/2000/svg"
   xmlns:sodipodi="http://sodipodi.sourceforge.net/DTD/sodipodi-0.dtd"
   xmlns:inkscape="http://www.inkscape.org/namespaces/inkscape"
   width="530"
   height="512"
   viewBox="0 0 531 512"
   version="1.1"
   id="svg8"
   inkscape:version="0.92.4 (5da689c313, 2019-01-14)"
   sodipodi:docname="U+77ED.svg">
  <defs
     id="defs2" />
  <sodipodi:namedview
     id="base"
     pagecolor="#ffffff"
     bordercolor="#666666"
     borderopacity="1.0"
     inkscape:pageopacity="0.0"
     inkscape:pageshadow="2"
     inkscape:zoom="3.959798"
     inkscape:cx="196.14643"
     inkscape:cy="269.00504"
     inkscape:document-units="px"
     inkscape:current-layer="layer1"
     showgrid="false"
     units="px"
     scale-x="0.6"
     inkscape:window-width="1920"
     inkscape:window-height="1017"
     inkscape:window-x="-8"
     inkscape:window-y="-8"
     inkscape:window-maximized="1"
     showguides="false" />
  <metadata
     id="metadata5">
    <rdf:RDF>
      <cc:Work
         rdf:about="">
        <dc:format>image/svg+xml</dc:format>
        <dc:type
           rdf:resource="http://purl.org/dc/dcmitype/StillImage" />
        <dc:title></dc:title>
      </cc:Work>
    </rdf:RDF>
  </metadata>
  <g
     inkscape:label="圖層 1"
     inkscape:groupmode="layer"
     id="layer1"
     transform="translate(0,-161.53331)">
    <path
       style="fill:#000000;fill-opacity:1;stroke:none;stroke-width:1.00188684px;stroke-linecap:butt;stroke-linejoin:miter;stroke-opacity:1"
       d="M 120.43496,174.05943 C 126.04234,193.64865 133.60333,209.04236 143.20627,222.63824 L 130.30254,246.42162 113.09754,244.39749 C 113.09754,244.39749 112.08548,245.40956 108.03724,262.86757 103.8218,281.04665 107.50042,295.79832 127.51937,280.32557 145.22264,266.64262 168.59571,229.24293 168.00171,227.69853 168.00171,227.69853 170.85904,216.69404 168.00171,212.51765 157.16647,196.6804 144.86854,182.00563 120.43496,174.05943 Z"
       id="path877"
       inkscape:connector-curvature="0"
       sodipodi:nodetypes="ccccsscsc" />
    <path
       style="fill:#000000;stroke:none;stroke-width:1.00188684px;stroke-linecap:butt;stroke-linejoin:miter;stroke-opacity:1;fill-opacity:1"
       d="M 156.11002,234.78294 C 164.79419,224.89779 194.71033,224.94184 211.52023,214.79478 216.01775,212.07992 219.10142,204.91525 223.1589,204.16817 238.29313,208.51256 258.96636,210.86267 263.13521,225.67441 264.60217,230.88645 260.8283,240.59818 256.0508,240.85529 234.77188,242.00046 201.14523,251.73071 199.12252,255.78315 196.23095,259.65789 209.1663,233.5531 211.52023,234.02389 193.43904,235.05932 174.79067,237.94376 156.11002,234.78294 Z"
       id="path879"
       inkscape:connector-curvature="0"
       sodipodi:nodetypes="cacssccc" />
    <path
       style="fill:#000000;stroke:none;stroke-width:1.00188684px;stroke-linecap:butt;stroke-linejoin:miter;stroke-opacity:1;fill-opacity:1"
       d="M 7.8719678,393.48803 C 7.8719678,393.48803 20.75337,406.36943 59.397575,394.91929 98.04178,383.46916 206.10243,342.67805 206.10243,342.67805 L 222.562,335.52172 C 222.562,335.52172 254.76551,329.08101 262.63747,339.81552 270.50944,350.55002 258.34366,358.42199 258.34366,358.42199 L 239.02157,354.12818 C 239.02157,354.12818 218.26819,349.11875 191.78976,357.70635 165.31132,366.29395 110.20755,391.34112 110.20755,391.34112 L 67.269542,410.66323 C 67.269542,410.66323 53.672508,436.42603 48.663074,434.99477 43.65364,433.5635 28.625338,428.55407 28.625338,428.55407 L 23.615904,419.25083 15.743936,415.67267 C 15.743936,415.67267 -2.1469003,404.93816 3.5781672,399.21309 9.3032346,393.48803 7.8719678,393.48803 7.8719678,393.48803 Z"
       id="path881"
       inkscape:connector-curvature="0" />
    <path
       style="fill:#000000;fill-opacity:1;stroke:none;stroke-width:1.00188684px;stroke-linecap:butt;stroke-linejoin:miter;stroke-opacity:1"
       d="M 145.27359,316.91525 155.29245,302.60258 168.17385,311.19018 188.21159,317.63088 183.91779,327.64975 171.75202,329.08101 C 171.75202,329.08101 173.99881,369.69006 172.46766,389.90986 171.13512,407.50693 163.88006,442.1511 163.88006,442.1511 163.88006,442.1511 153.50337,480.07967 130.6031,493.6767 107.70282,507.27374 113.75946,506.17793 98.04178,511.20973 82.007414,516.34291 51.525608,495.46579 47.231807,486.16255 63.333558,488.30945 74.464842,496.85322 88.257945,494.66334 104.59271,492.06993 117.1119,480.5335 131.33673,470.04282 142.4944,461.81414 152.70905,413.004 157.56213,383.13678 160.6255,364.28393 159.22843,325.86067 159.22843,325.86067 159.22843,325.86067 145.27359,326.21848 145.27359,316.91525 Z"
       id="path883"
       inkscape:connector-curvature="0"
       sodipodi:nodetypes="ccccccacsscasacc" />
    <path
       style="fill:#000000;fill-opacity:1;stroke:none;stroke-width:1.00188684px;stroke-linecap:butt;stroke-linejoin:miter;stroke-opacity:1"
       d="M 195.01011,412.0945 C 194.54903,406.26561 237.77599,416.24266 250.11389,432.49005 259.16525,444.4095 254.76554,472.56552 254.04987,477.21714 253.3342,481.86875 247.60917,500.11741 247.60917,500.11741 246.17457,504.8994 210.6261,434.4671 195.01011,412.0945 Z"
       id="path885"
       inkscape:connector-curvature="0"
       sodipodi:nodetypes="csscc" />
    <path
       style="fill:#000000;stroke:none;stroke-width:1.00188684px;stroke-linecap:butt;stroke-linejoin:miter;stroke-opacity:1;fill-opacity:1"
       d="M 318.8147,197.04665 C 313.52445,200.06965 335.2957,236.80317 352.44946,233.54395 368.86247,230.42547 376.14595,220.73782 388.58896,215.65312 407.40819,207.96283 433.51584,209.06686 446.55526,196.68883 449.18616,194.19137 448.34434,187.02778 444.76617,185.95433 441.18801,184.88088 422.58155,178.798 422.58155,178.798 L 354.95419,199.90918 328.47574,194.18412 Z"
       id="path889"
       inkscape:connector-curvature="0"
       sodipodi:nodetypes="csasscccc" />
    <path
       style="fill:#000000;stroke:none;stroke-width:1.00188684px;stroke-linecap:butt;stroke-linejoin:miter;stroke-opacity:1;fill-opacity:1"
       d="M 275.16106,277.1976 C 275.16106,277.1976 318.09906,276.12415 330.62265,287.57429 343.14623,299.02442 350.30257,326.21848 350.30257,326.21848 350.30257,326.21848 345.29313,355.91727 337.42117,356.99072 329.54919,358.06418 319.53032,353.77037 319.53032,353.77037 319.53032,353.77037 313.08962,316.91524 300.92386,304.03384 288.75809,291.15244 275.16106,277.1976 275.16106,277.1976 Z"
       id="path891"
       inkscape:connector-curvature="0"
       sodipodi:nodetypes="cscscsc" />
    <path
       style="fill:#000000;stroke:none;stroke-width:1.00188684px;stroke-linecap:butt;stroke-linejoin:miter;stroke-opacity:1;fill-opacity:1"
       d="M 342.78842,286.85865 C 340.88645,281.78674 395.94197,264.84067 406.47979,261.81148 417.1015,258.75817 422.22372,239.98465 422.22372,239.98465 422.22372,239.98465 429.02224,237.47994 432.60041,240.34247 436.17857,243.20501 457.06188,254.22709 463.01483,266.10528 465.63827,271.33995 468.8822,282.50352 464.08828,283.63829 453.70797,286.09541 429.73787,309.75892 429.73787,309.75892 L 418.64555,329.08101 C 418.64555,329.08101 408.0026,324.67536 404.33289,320.49342 402.35988,318.24502 401.00145,315.24477 400.75472,312.26363 400.43023,308.34286 403.61725,300.8135 403.61725,300.8135 403.61725,300.8135 407.55324,290.43682 398.25,295.80406 388.94677,301.17131 367.47777,315.48399 367.47777,315.48399 Z"
       id="path893"
       inkscape:connector-curvature="0"
       sodipodi:nodetypes="csccasccaacccc" />
    <path
       style="fill:#000000;stroke:none;stroke-width:1.00188684px;stroke-linecap:butt;stroke-linejoin:miter;stroke-opacity:1;fill-opacity:1"
       d="M 327.4023,366.29395 412.20485,332.30137 C 412.20485,332.30137 424.01281,330.51229 429.73787,334.80609 435.46294,339.09988 444.05055,348.76094 444.05055,348.76094 L 340.99933,380.2488 326.32885,372.37684 Z"
       id="path899"
       inkscape:connector-curvature="0" />
    <path
       style="fill:#000000;stroke:none;stroke-width:1.00188684px;stroke-linecap:butt;stroke-linejoin:miter;stroke-opacity:1;fill-opacity:1"
       d="M 305.93329,413.16795 323.10849,404.22252 C 323.10849,404.22252 354.59636,413.52576 362.82615,421.75554 371.05593,429.98533 373.91847,432.84786 373.91847,432.84786 L 361.39489,464.33573 C 361.39489,464.33573 357.73986,478.54149 348.15566,469.34517 341.41277,462.87517 332.71173,430.23533 332.41173,429.98533 Z"
       id="path901"
       inkscape:connector-curvature="0"
       sodipodi:nodetypes="cccccscc" />
    <path
       style="fill:#000000;stroke:none;stroke-width:1.00188684px;stroke-linecap:butt;stroke-linejoin:miter;stroke-opacity:1;fill-opacity:1"
       d="M 404.6907,376.31282 398.60782,388.12078 C 398.60749,388.12102 408.9456,392.73333 410.41577,402.79127 411.70221,411.59215 379.05341,461.09005 379.64353,464.33573 382.83955,476.81651 392.06472,470.34854 401.82817,462.18884 409.38823,458.12461 415.51592,446.8985 422.22372,438.57293 L 436.5364,415.67267 C 436.5364,415.67267 450.49125,398.49746 434.03168,389.19422 417.57211,379.89099 404.6907,376.31282 404.6907,376.31282 Z"
       id="path903"
       inkscape:connector-curvature="0"
       sodipodi:nodetypes="ccsccccsc" />
    <path
       style="fill:#000000;stroke:none;stroke-width:1.00188684px;stroke-linecap:butt;stroke-linejoin:miter;stroke-opacity:1;fill-opacity:1"
       d="M 226.49798,498.32833 C 226.49798,498.32833 216.47911,490.09854 227.57143,486.16256 238.66375,482.22657 283.03302,476.85932 283.03302,476.85932 283.03302,476.85932 419.00338,461.11539 435.46294,463.6201 451.92251,466.12482 460.1523,463.6201 460.1523,463.6201 460.1523,463.6201 466.95082,458.96848 476.96968,453.60124 488.41982,455.74814 505.95283,463.6201 505.95283,463.6201 505.95283,463.6201 518.47642,468.27172 523.12804,481.51094 527.77966,494.75016 520.98114,497.61269 506.31066,494.75016 491.64017,491.88762 452.63815,477.57495 452.63815,477.57495 L 423.65499,471.49207 344.57749,479.00622 293.05189,493.31889 256.9124,512.64099 C 256.9124,512.64099 231.50742,504.76903 226.49798,498.32833 Z"
       id="path905"
       inkscape:connector-curvature="0"
       sodipodi:nodetypes="cscscccsscccccc" />
  </g>
</svg>
