<?xml version="1.0" encoding="UTF-8" standalone="no"?>
<!-- Created with Inkscape (http://www.inkscape.org/) -->

<svg
   xmlns:dc="http://purl.org/dc/elements/1.1/"
   xmlns:cc="http://creativecommons.org/ns#"
   xmlns:rdf="http://www.w3.org/1999/02/22-rdf-syntax-ns#"
   xmlns:svg="http://www.w3.org/2000/svg"
   xmlns="http://www.w3.org/2000/svg"
   xmlns:sodipodi="http://sodipodi.sourceforge.net/DTD/sodipodi-0.dtd"
   xmlns:inkscape="http://www.inkscape.org/namespaces/inkscape"
   width="512"
   height="512"
   viewBox="0 0 512 512"
   version="1.1"
   id="svg4564"
   inkscape:version="0.92.4 (5da689c313, 2019-01-14)"
   sodipodi:docname="U+80FD.svg">
  <defs
     id="defs4558" />
  <sodipodi:namedview
     id="base"
     pagecolor="#ffffff"
     bordercolor="#666666"
     borderopacity="1.0"
     inkscape:pageopacity="0.0"
     inkscape:pageshadow="2"
     inkscape:zoom="2"
     inkscape:cx="373.36135"
     inkscape:cy="243.97181"
     inkscape:document-units="px"
     inkscape:current-layer="layer1"
     showgrid="false"
     units="px"
     inkscape:window-width="1920"
     inkscape:window-height="1005"
     inkscape:window-x="-9"
     inkscape:window-y="-9"
     inkscape:window-maximized="1">
    <inkscape:grid
       type="xygrid"
       id="grid4588" />
  </sodipodi:namedview>
  <metadata
     id="metadata4561">
    <rdf:RDF>
      <cc:Work
         rdf:about="">
        <dc:format>image/svg+xml</dc:format>
        <dc:type
           rdf:resource="http://purl.org/dc/dcmitype/StillImage" />
        <dc:title></dc:title>
      </cc:Work>
    </rdf:RDF>
  </metadata>
  <g
     inkscape:label="圖層 1"
     inkscape:groupmode="layer"
     id="layer1"
     transform="translate(0,-161.53331)">
    <path
       style="fill:#000000;stroke:none;stroke-width:1px;stroke-linecap:butt;stroke-linejoin:miter;stroke-opacity:1;fill-opacity:1"
       d="M 124.125,234.22081 C 124.95146,238.83104 127.90179,240.52193 130,243.53331 131.546,245.75215 133.44199,247.71763 134.9375,249.97081 135.89207,251.409 136.68333,252.95007 137.5,254.47081 138.2078,255.78883 139.55427,256.64972 140.0625,258.47081 137.9427,260.94912 135.93934,261.18957 134.1875,262.90831 129.42156,267.5842 126.29867,273.71338 121.8125,278.65831 118.69378,282.09596 111.75,288.28331 111.75,288.28331 111.75,288.28331 101.50259,297.55584 96,301.72081 89.784917,306.42508 83.043184,310.38975 76.5625,314.72081 70.418105,318.82713 64.900082,324.08141 58.125,327.03331 48.447556,331.24977 36.673809,329.46756 27.3125,334.34581 23.229751,336.47336 19.192717,339.48519 17,343.53331 15.40445,346.47896 14.887223,350.17731 15.5,353.47081 16.16221,357.03 20.875,362.90831 20.875,362.90831 20.875,362.90831 34.698953,363.90795 41.25,362.09581 47.198484,360.45035 51.944462,355.90931 57.5,353.22081 62.634077,350.73627 73.25,346.53331 73.25,346.53331 L 107,338.78331 C 107,338.78331 123.29532,333.49325 131.5,331.03331 142.03691,327.87412 152.75896,325.34164 163.25,322.03331 170.9914,319.59207 178.7347,317.10075 186.25,314.03331 190.68502,312.22311 194.02845,311.58023 199.25,307.90831 200.24563,306.41642 200.83078,304.97766 199.5,302.53331 197.3784,301.96277 194.7546,300.2328 192.25,300.28331 184.12283,302.46252 176.44404,307.30932 168.25,310.03331 162.16021,312.05777 155.88285,313.48587 149.625,314.90831 142.13469,316.61089 127,319.28331 127,319.28331 L 102,324.78331 83.5,327.78331 81.25,325.03331 C 81.25,325.03331 84.433823,322.16068 86.125,320.84581 94.283521,314.50264 103.26032,309.2707 111.5,303.03331 117.17886,298.73445 128.0625,289.53331 128.0625,289.53331 128.0625,289.53331 136.02116,283.33374 140.25,280.59581 144.99604,277.52301 150.01141,274.88183 155,272.22081 157.75388,270.75183 160.80609,268.68921 163.375,268.03331 165.63159,267.45715 169.17338,266.87081 170,265.53331 170.92419,264.03794 170.67027,262.03296 170.5,260.28331 170.18843,257.08172 169.6335,253.64092 167.75,251.03331 165.78726,248.316 161.74406,247.77335 159.5,245.28331 157.07785,242.59566 157.01265,238.11956 154.25,235.78331 150.84391,232.90293 146.06862,231.73599 141.625,231.34581 135.73613,230.82872 127.5718,230.1106 124.125,234.22081 Z"
       id="path829"
       inkscape:connector-curvature="0"
       sodipodi:nodetypes="caascaacaaaaaacaaccaaacccaaccccaacaascaaaaac" />
    <path
       style="fill:#000000;stroke:none;stroke-width:1px;stroke-linecap:butt;stroke-linejoin:miter;stroke-opacity:1;fill-opacity:1"
       d="M 185.61553,271.54311 C 185.61553,271.54311 188.15285,273.89824 189.32785,275.16703 192.04225,278.09811 193.74382,282.07001 197.01763,284.35941 200.4316,286.74684 205.18157,286.49145 208.77328,288.60206 210.59176,289.67066 211.72853,291.68642 213.54625,292.75631 217.86751,295.29974 223.0261,296.03743 227.68838,297.88283 230.87903,299.14574 234.046,300.47712 237.14594,301.9487 239.27689,302.96028 241.33114,304.1261 243.42151,305.21906 245.22002,306.15943 247.05015,307.04222 248.8132,308.04749 250.85884,309.21389 254.8236,311.7598 254.8236,311.7598 254.8236,311.7598 261.23142,313.2676 264.45794,312.99724 266.88204,312.79412 271.44061,310.87592 271.44061,310.87592 272.94322,310.37505 274.44582,309.87419 275.94842,309.37332 275.94842,309.37332 275.32527,303.59812 274.35743,300.88804 273.16013,297.53542 271.03547,294.58761 269.23091,291.51887 267.60667,288.75677 266.61629,285.37653 264.10438,283.38714 256.24291,279.05039 245.85175,276.86064 236.6156,273.92959 232.69639,272.68585 228.78509,271.3762 224.77157,270.48245 222.9087,270.06762 221.02278,269.55811 219.11471,269.59856 217.76293,269.62722 216.48843,270.44302 215.13724,270.39405 212.26564,270.28998 209.673,268.50472 206.82873,268.09596 203.09539,267.55943 199.27205,267.5869 195.51502,267.91918 193.36237,268.10956 191.14744,268.32922 189.15106,269.15662 187.83754,269.70101 185.61553,271.54311 185.61553,271.54311 Z"
       id="path831"
       inkscape:connector-curvature="0"
       sodipodi:nodetypes="caaaaaaaacaccaacaaaaaaac" />
    <path
       style="fill:#000000;stroke:none;stroke-width:1px;stroke-linecap:butt;stroke-linejoin:miter;stroke-opacity:1;fill-opacity:1"
       d="M 79,380.53331 C 79,380.53331 81.99188,391.84036 88,397.28331 94.731696,403.38177 99.882855,411.60636 102.5,420.28331 106.61611,433.92997 103.94388,448.78632 103.5,463.03331 103.07545,476.66004 100,503.78331 100,503.78331 L 96.25,543.53331 C 96.25,543.53331 94.591426,560.39415 91.75,568.28331 89.904112,573.40838 83.75,582.53331 83.75,582.53331 L 91.75,603.78331 C 91.75,603.78331 92.966464,610.47493 95,613.03331 98.193486,617.05101 108,621.28331 108,621.28331 108,621.28331 112.45635,616.38062 113,613.28331 113.82509,608.58256 110.5028,604.02936 110,599.28331 109.33278,592.98522 110,580.28331 110,580.28331 L 108.5,549.78331 C 108.5,549.78331 110.07792,525.6102 111,513.53331 112.29236,496.60669 113.96049,479.71014 115.25,462.78331 115.89719,454.28793 116.07875,445.75335 117,437.28331 117.6104,431.67123 119.4595,426.17834 119.5,420.53331 119.53137,416.161 119.20329,411.65714 117.75,407.53331 116.35819,403.58393 114.32287,399.62798 111.25,396.78331 102.41648,388.6058 79,380.53331 79,380.53331 Z"
       id="path833"
       inkscape:connector-curvature="0"
       sodipodi:nodetypes="csaaccaccacaaccaaaaaac" />
    <path
       style="fill:#000000;stroke:none;stroke-width:1px;stroke-linecap:butt;stroke-linejoin:miter;stroke-opacity:1;fill-opacity:1"
       d="M 105.75,374.03331 C 105.75,374.03331 112.57603,382.50256 117,385.53331 120.14141,387.68541 123.70885,389.67666 127.5,390.03331 134.0423,390.64878 140.48642,387.77029 146.75,385.78331 154.76047,383.24217 162.92257,380.56486 170,376.03331 172.2849,374.57033 176,370.53331 176,370.53331 L 187.25,373.03331 C 187.25,373.03331 184.70958,380.27336 184.75,384.03331 184.77955,386.78189 186.53812,389.29275 186.75,392.03331 187.24665,398.45727 185.11651,404.84124 185,411.28331 184.83399,420.4621 186.44676,429.60317 186.5,438.78331 186.61271,458.21752 184.58618,477.60761 184,497.03331 183.56762,511.3623 183.83877,525.70989 183.25,540.03331 182.87959,549.04458 182,566.03331 181.5,567.03331 181,568.03331 182.58888,575.57136 179.75,582.28331 173.15425,582.21834 162.75,576.28331 162.75,576.28331 162.75,576.28331 165.11164,584.49492 166.5,588.53331 168.47239,594.27049 171.98207,599.55256 173,605.53331 174.4967,614.32702 170.86203,621.0716 172.25,632.28331 175.79448,637.69412 192.5,639.53331 192.5,639.53331 192.5,639.53331 194.33331,633.26079 194.75,630.03331 196.51113,616.39249 195.69889,602.53725 195.75,588.78331 195.78686,578.86531 195.31027,568.95119 195.25,559.03331 195.14112,541.11678 195.45833,523.20012 195.5,505.28331 195.53663,489.53335 194.17549,473.72752 195.5,458.03331 196.9217,441.18741 199.47631,424.32262 204,408.03331 206.32301,399.6684 213.5,383.78331 213.5,383.78331 L 216,376.78331 C 216,376.78331 205.44298,366.56024 199.5,362.28331 196.13569,359.86215 192.89345,355.92197 188.75,356.03331 179.03828,356.29427 169.45482,359.86104 160,362.53331 152.54431,364.64055 145.57818,368.42119 138,370.03331 129.89729,371.75701 121.42828,370.96396 113.25,372.28331 110.71561,372.69217 105.75,374.03331 105.75,374.03331 Z"
       id="path835"
       inkscape:connector-curvature="0"
       sodipodi:nodetypes="caaaaccaaaaaasccaaccaaaaaaccasaaac" />
    <path
       style="fill:#000000;stroke:none;stroke-width:1px;stroke-linecap:butt;stroke-linejoin:miter;stroke-opacity:1;fill-opacity:1"
       d="M 125,427.78331 134.75,425.53331 140.5,418.78331 C 140.5,418.78331 144.98993,417.17527 147.25,417.53331 150.52784,418.05259 153.39853,420.22266 156,422.28331 159.2386,424.84864 163.27219,427.51917 164.25,431.53331 165.12538,435.12695 164.42156,440.01504 161.5,442.28331 159.72276,443.66314 154.75,442.28331 154.75,442.28331 154.75,442.28331 146.00723,440.75563 141.75,439.53331 138.25313,438.5293 134.9638,436.89606 131.5,435.78331 128.53562,434.831 122.5,433.28331 122.5,433.28331 122.5,433.28331 123.76398,429.14755 125,427.78331 Z"
       id="path837"
       inkscape:connector-curvature="0"
       sodipodi:nodetypes="cccaaaacaacc" />
    <path
       style="fill:#000000;stroke:none;stroke-width:1px;stroke-linecap:butt;stroke-linejoin:miter;stroke-opacity:1;fill-opacity:1"
       d="M 112.25,503.03331 C 112.25,503.03331 125.29158,501.73337 131.5,499.78331 139.50188,497.26992 147.05325,493.34074 154.25,489.03331 161.10024,484.93327 167.21841,479.71056 173.5,474.78331 178.52872,470.8388 188.25,462.53331 188.25,462.53331 L 199,461.28331 C 199,461.28331 198.70603,465.91517 197.5,467.78331 195.11349,471.48002 190.38971,472.97778 187,475.78331 182.77224,479.28247 178.52884,482.80356 174.75,486.78331 171.28192,490.43577 168.95229,495.11847 165.25,498.53331 162.20874,501.33844 157.6415,502.34889 155,505.53331 151.68852,509.52541 151.79698,515.58585 148.75,519.78331 146.32294,523.12678 143.60266,527.54588 139.5,528.03331 134.24285,528.6579 129.89802,523.48037 125.5,520.53331 122.45082,518.49009 117,513.53331 117,513.53331 117,513.53331 107.89233,513.90506 106.75,510.53331 105.75521,507.59707 112.25,503.03331 112.25,503.03331 Z"
       id="path839"
       inkscape:connector-curvature="0"
       sodipodi:nodetypes="caaaccaaaaaaaacac" />
    <path
       style="fill:#000000;stroke:none;stroke-width:1px;stroke-linecap:butt;stroke-linejoin:miter;stroke-opacity:1;fill-opacity:1"
       d="M 379.25,295.03331 C 378.68025,299.64478 386.75,306.78331 386.75,306.78331 386.75,306.78331 388.19267,312.5246 387.5,315.28331 386.09284,320.88766 381.87987,325.50131 378,329.78331 370.95663,337.5567 362.30124,343.82605 353.5,349.53331 346.12027,354.31878 338.00081,357.87981 330,361.53331 323.13064,364.67014 316.07665,367.39724 309,370.03331 301.7396,372.73782 294.54205,375.75982 287,377.53331 280.28851,379.1115 266.5,380.28331 266.5,380.28331 266.5,380.28331 280.03019,386.29904 287.25,386.53331 294.26068,386.76079 300.98101,383.62238 307.75,381.78331 317.18637,379.21953 326.60451,376.49424 335.75,373.03331 345.48367,369.3498 354.89921,364.85225 364.25,360.28331 372.38919,356.30637 380.63482,352.43959 388.25,347.53331 394.79348,343.3175 400.39838,337.78299 406.75,333.28331 409.99405,330.98512 413.23008,328.63147 416.75,326.78331 422.17582,323.93445 433.75,319.78331 433.75,319.78331 433.75,319.78331 432.28144,314.18452 430.75,311.78331 427.106,306.06974 421.70423,301.62377 416.5,297.28331 414.33449,295.47722 412.13703,293.53203 409.5,292.53331 403.99989,290.45027 392,290.28331 392,290.28331 L 383.75,290.78331 C 383.75,290.78331 379.50299,292.98564 379.25,295.03331 Z"
       id="path841"
       inkscape:connector-curvature="0"
       sodipodi:nodetypes="acaaaaaacaaaaaaacaaacca" />
    <path
       style="fill:#000000;stroke:none;stroke-width:1px;stroke-linecap:butt;stroke-linejoin:miter;stroke-opacity:1;fill-opacity:1"
       d="M 258.25,191.03331 256.25,197.78331 258,208.53331 259.75,214.03331 271.75,215.78331 279.75,218.53331 C 279.75,218.53331 283.65187,222.48732 284.5,225.03331 286.68617,231.59592 284.75,245.78331 284.75,245.78331 284.75,245.78331 284.4418,270.95033 284.25,283.53331 284.10264,293.20029 283.9484,302.86724 283.75,312.53331 283.53447,323.03407 283.12501,333.53108 283,344.03331 282.74906,365.11515 282.85048,386.20051 283,407.28331 283.08334,419.0342 283.45249,430.78222 283.5,442.53331 283.55525,456.20012 282.83303,469.87275 283.25,483.53331 283.55324,493.46773 284.96083,503.34847 285.25,513.28331 285.52156,522.61306 286.51459,532.07331 285,541.28331 284.08915,546.82202 282.96989,552.68557 279.75,557.28331 277.19666,560.92926 273.02628,563.17699 269.25,565.53331 264.69664,568.37451 259.8654,570.90905 254.75,572.53331 249.4356,574.22075 238.25,575.28331 238.25,575.28331 L 236.75,582.28331 242.25,591.78331 244.25,601.28331 251,607.28331 C 251,607.28331 259.34245,607.10488 262.75,605.03331 270.45684,600.34804 273.71993,591.24719 279.5,583.78331 284.04221,577.9179 290.20175,573.37844 296.75,570.03331 302.83575,566.92444 310.32137,567.45324 316.5,564.53331 326.34495,559.88073 335.05189,552.94993 343.25,545.78331 348.79994,540.93167 353.14273,534.84895 358.25,529.53331 362.00595,525.62412 366.78483,522.57166 369.75,518.03331 371.75605,514.96294 373.75,507.78331 373.75,507.78331 L 375,502.28331 C 375,502.28331 363.6669,511.50513 357.75,515.78331 352.63684,519.48035 347.38014,522.98686 342,526.28331 334.01478,531.17592 325.70641,535.52152 317.5,540.03331 311.03084,543.58998 298,550.53331 298,550.53331 298,550.53331 300.7434,529.73776 301.5,519.28331 302.04768,511.71565 302.25,496.53331 302.25,496.53331 302.25,496.53331 301.68731,474.86294 301.25,464.03331 300.98068,457.36375 301.07344,450.65732 300.25,444.03331 299.46372,437.70822 297.18318,431.62036 296.5,425.28331 295.47264,415.75375 295.97526,406.11806 296,396.53331 296.02862,385.44719 296.25342,374.35834 296.75,363.28331 297.25132,352.10272 298.26082,340.9507 299,329.78331 299.50743,322.11713 299.84471,314.43827 300.5,306.78331 301.44347,295.76192 302.40381,284.72924 304,273.78331 305.05189,266.56996 306.74092,259.46339 308,252.28331 309.23993,245.21243 311.5,231.03331 311.5,231.03331 311.5,231.03331 311.75,223.28331 300.5,214.53331 289.25,205.78331 274.25,194.03331 274.25,194.03331 Z"
       id="path843"
       inkscape:connector-curvature="0"
       sodipodi:nodetypes="ccccccacaaaaaaaaaaacccccasaaaaaccaaacacaaaaaaaaacscc" />
    <path
       style="fill:#000000;stroke:none;stroke-width:1px;stroke-linecap:butt;stroke-linejoin:miter;stroke-opacity:1;fill-opacity:1"
       d="M 234,444.78331 C 239.78128,445.1436 245.76574,451.34374 252.25,452.78331 255.66778,453.54209 259.27164,453.43073 262.75,453.03331 269.07554,452.31059 275.01382,449.56579 281.25,448.28331 288.68461,446.75437 296.33366,446.39856 303.75,444.78331 309.75613,443.4752 315.59856,441.50312 321.5,439.78331 328.43512,437.76226 335.34621,435.65894 342.25,433.53331 349.68081,431.24541 357.2044,429.22137 364.5,426.53331 370.10606,424.46776 375.80049,422.47602 381,419.53331 384.94573,417.30019 387.56852,412.49118 392,411.53331 397.65492,410.311 403.45602,413.37905 409,415.03331 413.12236,416.26337 418.13092,416.57779 421,419.78331 422.90102,421.90725 423.25,428.03331 423.25,428.03331 L 420.75,433.78331 C 420.75,433.78331 415.27002,434.80739 412.5,434.78331 409.47132,434.75699 403.5,433.53331 403.5,433.53331 403.5,433.53331 367.76399,444.69966 349.75,449.78331 334.57676,454.06528 319.23458,457.72498 304,461.78331 293.82288,464.49438 282.58686,464.70859 273.5,470.03331 268.66993,472.86363 265.73835,478.10478 261.75,482.03331 260.11223,483.64652 259.31705,486.09573 256.75,486.78331 253.00803,487.7856 248.20854,487.00742 245.5,484.28331 243.27577,482.0463 245.01147,478.70407 243.75,476.28331 242.38737,473.66842 240.04066,471.64001 237.75,469.78331 234.58579,467.21854 228.62431,467.36757 227.25,463.53331 228.25869,456.78019 228.48362,447.32112 234,444.78331 Z"
       id="path845"
       inkscape:connector-curvature="0"
       sodipodi:nodetypes="caaaaaaaaaaaccacaaaaccaacc" />
    <path
       style="fill:#000000;stroke:none;stroke-width:1px;stroke-linecap:butt;stroke-linejoin:miter;stroke-opacity:1;fill-opacity:1"
       d="M 331.25,465.53331 C 337.976,481.53989 348.34564,488.18019 357.75,498.78331 363.18505,504.91116 368.37249,511.47016 375,516.28331 376.80928,517.59728 379.28753,517.84545 381,519.28331 383.14439,521.08382 383.5149,524.74313 386,526.03331 391.02594,528.6426 394.95921,531.47321 399,534.78331 407.79778,541.9902 415.22845,550.72137 423.25,558.78331 431.39656,566.97089 439.61161,575.09671 447.5,583.53331 455.27985,591.85382 462.63498,600.56169 470.25,609.03331 474.23348,613.46488 476.97897,619.50425 482.25,622.28331 485.52349,624.0092 489.61164,624.45914 493.25,623.78331 495.12013,623.43593 497.13004,622.57076 498.25,621.03331 499.79929,618.9065 499.94957,615.90701 499.75,613.28331 499.46811,609.5775 497.95389,605.94477 496,602.78331 494.54366,600.4269 492.01986,598.91432 490.25,596.78331 486.7778,592.60258 483.94357,587.93056 480.75,583.53331 475.46103,576.25089 470.88571,568.36815 464.75,561.78331 458.2615,554.81986 450.85666,548.65576 443,543.28331 437.05985,539.22138 430.02085,536.97463 424,533.03331 418.68594,529.55466 414.05909,525.12334 409,521.28331 403.39747,517.03079 397.63628,512.99098 392,508.78331 384.04001,502.84091 376.29692,496.60745 368.25,490.78331 360.29163,485.02326 352.12903,479.54989 344,474.03331 339.77348,471.16508 331.25,465.53331 331.25,465.53331 Z"
       id="path847"
       inkscape:connector-curvature="0"
       sodipodi:nodetypes="caaasaaaaaaaaaaaaaaaaaac" />
  </g>
</svg>
