<?xml version="1.0" encoding="UTF-8" standalone="no"?>
<!-- Created with Inkscape (http://www.inkscape.org/) -->

<svg
   xmlns:dc="http://purl.org/dc/elements/1.1/"
   xmlns:cc="http://creativecommons.org/ns#"
   xmlns:rdf="http://www.w3.org/1999/02/22-rdf-syntax-ns#"
   xmlns:svg="http://www.w3.org/2000/svg"
   xmlns="http://www.w3.org/2000/svg"
   xmlns:sodipodi="http://sodipodi.sourceforge.net/DTD/sodipodi-0.dtd"
   xmlns:inkscape="http://www.inkscape.org/namespaces/inkscape"
   width="512"
   height="512"
   viewBox="0 0 512 512"
   version="1.1"
   id="svg4564"
   inkscape:version="0.92.4 (5da689c313, 2019-01-14)"
   sodipodi:docname="U+83AB.svg">
  <defs
     id="defs4558" />
  <sodipodi:namedview
     id="base"
     pagecolor="#ffffff"
     bordercolor="#666666"
     borderopacity="1.0"
     inkscape:pageopacity="0.0"
     inkscape:pageshadow="2"
     inkscape:zoom="1.979899"
     inkscape:cx="202.45023"
     inkscape:cy="306.24704"
     inkscape:document-units="px"
     inkscape:current-layer="layer1"
     showgrid="false"
     units="px"
     inkscape:window-width="1920"
     inkscape:window-height="1005"
     inkscape:window-x="-9"
     inkscape:window-y="-9"
     inkscape:window-maximized="1">
    <inkscape:grid
       type="xygrid"
       id="grid4588" />
  </sodipodi:namedview>
  <metadata
     id="metadata4561">
    <rdf:RDF>
      <cc:Work
         rdf:about="">
        <dc:format>image/svg+xml</dc:format>
        <dc:type
           rdf:resource="http://purl.org/dc/dcmitype/StillImage" />
        <dc:title></dc:title>
      </cc:Work>
    </rdf:RDF>
  </metadata>
  <g
     inkscape:label="圖層 1"
     inkscape:groupmode="layer"
     id="layer1"
     transform="translate(0,-161.53331)">
    <path
       style="fill:#000000;stroke:none;stroke-width:1px;stroke-linecap:butt;stroke-linejoin:miter;stroke-opacity:1;fill-opacity:1"
       d="M 102.02541,315.18169 C 103.91452,312.9145 107.91706,314.52495 110.86424,314.67662 116.14383,314.94832 121.30043,316.37304 126.52161,317.202 129.21431,317.62952 131.88064,318.31271 134.60282,318.46469 136.53777,318.57272 138.53817,318.70956 140.41121,318.21215 143.43138,317.4101 148.74496,313.919 148.74496,313.919 148.74496,313.919 150.08965,308.57885 152.02796,306.84793 153.81493,305.25215 156.53968,303.92822 158.84649,304.57509 161.60705,305.3492 161.94144,309.67003 164.40233,311.14108 166.83977,312.59812 170.03234,312.04063 172.73609,312.90885 174.13582,313.35833 176.7767,314.67662 176.7767,314.67662 176.7767,314.67662 170.45491,317.10382 168.1904,319.47484 166.50031,321.24442 166.8688,324.5777 164.9074,326.04083 163.74262,326.90971 160.61426,326.79845 160.61426,326.79845 160.61426,326.79845 158.31947,327.25099 157.5838,328.06114 156.04438,329.75641 157.56976,333.52321 155.56349,334.62713 154.72259,335.08982 153.65903,333.47169 152.78557,333.86952 150.31862,334.99314 150.96931,339.09731 149.25003,341.19312 145.70494,345.5146 141.21685,349.68029 135.86552,351.29464 133.2011,352.09842 129.97239,352.12691 127.53176,350.78957 123.51534,348.58878 122.10104,343.41285 119.45054,339.67789 117.90997,337.50699 116.32415,335.36396 114.90485,333.1119 113.8193,331.38941 113.21251,329.34315 111.87439,327.8086 110.05962,325.72742 107.10248,324.85689 105.3084,322.75784 103.93779,321.15424 102.9252,319.20978 102.27795,317.202 102.06972,316.55606 101.59096,315.70309 102.02541,315.18169 Z"
       id="path829"
       inkscape:connector-curvature="0"
       sodipodi:nodetypes="aaaaacaaaacaacaaaaaaaaaaaa" />
    <path
       style="fill:#000000;stroke:none;stroke-width:1px;stroke-linecap:butt;stroke-linejoin:miter;stroke-opacity:1;fill-opacity:1"
       d="M 148.49242,232.09665 C 147.13914,235.4697 146.21863,239.2827 146.47212,242.95579 146.76536,247.20486 148.2905,251.44412 150.51273,255.07762 153.83593,260.51128 159.61947,263.99569 163.89725,268.71467 167.50942,272.69939 171.40593,276.52511 174.25131,281.08904 176.88304,285.31029 178.89722,289.95718 180.31223,294.72611 182.13097,300.85573 181.92994,307.43074 183.34269,313.66646 184.52566,318.88797 186.66032,323.8602 187.88837,329.07129 188.7709,332.81617 189.2719,336.6411 189.90868,340.43551 190.44466,343.62929 189.41696,347.49037 191.42391,350.03196 193.34211,352.46115 197.05943,354.50207 200.0102,353.56749 202.10288,352.90469 202.90016,350.1097 203.54574,348.01165 204.3631,345.35536 204.82282,342.26134 203.79828,339.67789 203.49107,338.90325 202.31622,338.69295 202.03051,337.91013 201.01668,335.13227 204.23382,331.65088 202.78813,329.07129 202.60408,328.74289 202.06976,329.13705 201.77797,328.56621 201.77797,328.56621 204.77259,320.41374 204.55589,316.19185 204.48979,314.90398 203.32646,312.52369 203.32646,312.52369 203.32646,312.52369 205.21261,306.61355 205.56604,303.05986 205.67466,301.96768 203.96803,301.3663 203.79828,300.28194 203.23301,296.67114 206.75899,293.32555 206.5762,289.67534 206.38304,285.818 204.31901,282.24196 202.53559,278.8162 199.7969,273.55547 196.38479,268.5925 192.43406,264.16899 190.12888,261.58795 187.56504,259.14379 184.60538,257.35046 181.04912,255.19563 176.7014,254.67707 172.98862,252.80477 170.23651,251.41692 168.06843,249.17867 165.15994,247.88399 160.39217,245.76167 159.58793,239.95182 156.32111,236.38979 154.46866,234.36994 153.17437,231.80418 150.26019,230.83395 149.57313,230.6052 148.76206,231.42458 148.49242,232.09665 Z"
       id="path831"
       inkscape:connector-curvature="0"
       sodipodi:nodetypes="saaaaaaaaaaaaaacacsaaaaaasass" />
    <path
       style="fill:#000000;stroke:none;stroke-width:1px;stroke-linecap:butt;stroke-linejoin:miter;stroke-opacity:1;fill-opacity:1"
       d="M 251.07143,273.53331 C 251.07143,273.53331 261.44408,276.67488 266.78572,277.46188 269.26182,277.82669 271.78681,277.95907 274.28572,277.81902 284.75967,277.23203 295.12748,275.1433 305.35714,272.81902 310.68333,271.60886 315.8785,269.86916 321.07143,268.17617 327.80186,265.98193 334.39068,263.37446 341.07143,261.03331 344.87308,259.70109 348.47173,257.12356 352.5,257.10473 357.7704,257.0801 362.8639,259.59788 367.5,262.10474 370.70549,263.83803 374.79976,265.47543 376.07143,268.89045 376.95953,271.27541 375.97667,274.22303 374.64286,276.39045 373.61954,278.05333 371.68852,278.98144 370,279.96188 365.2009,282.74847 359.93038,284.70564 354.64286,286.39045 347.90077,288.53874 340.79612,289.32813 333.92857,291.03331 327.34182,292.66877 320.91182,294.92253 314.28572,296.39045 306.03096,298.21918 297.32011,298.04294 289.28572,300.67617 287.51501,301.25651 286.12312,303.48629 284.28572,303.17617 277.72776,302.06932 275.57326,293.01647 270.35714,288.89045 268.17943,287.16785 265.64831,285.94089 263.21429,284.60474 260.18072,282.93948 256.31937,282.46382 253.92857,279.96188 252.30851,278.26651 251.07143,273.53331 251.07143,273.53331 Z"
       id="path833"
       inkscape:connector-curvature="0"
       sodipodi:nodetypes="caaaaaaaaaaaaaaaaaac" />
    <path
       style="fill:#000000;stroke:none;stroke-width:1px;stroke-linecap:butt;stroke-linejoin:miter;stroke-opacity:1;fill-opacity:1"
       d="M 255.71428,183.53331 C 255.71428,183.53331 268.81056,181.14107 275.35714,181.74759 281.02355,182.27256 286.64676,183.94608 291.78572,186.39045 296.64731,188.70288 301.26272,191.80123 305,195.67616 308.94272,199.7641 313.46612,204.34187 314.28572,209.96188 315.68278,219.54154 308.91593,228.56535 306.07143,237.81902 302.39881,249.76673 298.75957,261.73125 294.64286,273.53331 289.65459,287.83403 285.35134,302.48982 278.57143,316.03331 275.79211,321.58526 272.57423,327.0014 268.57143,331.74759 265.25692,335.67766 261.03046,338.74051 257.14286,342.10474 254.45729,344.42876 251.94527,347.01618 248.92857,348.89045 242.50128,352.88371 228.21429,358.17617 228.21429,358.17617 228.21429,358.17617 238.15814,344.83983 243.57143,338.53331 245.38159,336.42446 247.56622,334.64528 249.28571,332.46188 251.57376,329.55652 253.26206,326.22361 255.35714,323.17617 256.85462,320.99798 258.77618,319.0905 260,316.74759 264.49746,308.13758 266.70013,298.50501 269.64286,289.24759 272.00583,281.814 274.42717,274.37243 276.07143,266.74759 277.6188,259.57202 278.23095,252.22622 279.28572,244.96188 280.25339,238.29742 282.47047,231.68826 282.14285,224.96188 281.89844,219.94379 280.37219,215.00924 278.57143,210.31902 277.31139,207.03717 275.97228,203.60123 273.57143,201.03331 270.21036,197.43835 264.45608,196.74893 261.07143,193.17616 258.54262,190.5068 253.99509,186.78366 255.71428,183.53331 Z"
       id="path835"
       inkscape:connector-curvature="0"
       sodipodi:nodetypes="caaaaaaaaaacaaaaaaaaaaac" />
    <path
       style="fill:#000000;stroke:none;stroke-width:1px;stroke-linecap:butt;stroke-linejoin:miter;stroke-opacity:1;fill-opacity:1"
       d="M 98.571429,385.31902 C 98.571429,385.31902 110.60264,388.94846 116.78571,389.96188 123.02986,390.98531 129.57851,389.84478 135.71428,391.39046 139.12517,392.2497 142.51926,393.59798 145.35714,395.67617 149.84783,398.9647 153.19357,403.64677 156.42857,408.17617 158.8144,411.51663 162.5,418.89045 162.5,418.89045 162.5,418.89045 165.11205,432.46323 166.42857,439.24759 167.37592,444.12952 168.26666,449.02298 169.28572,453.89045 171.18557,462.96491 173.98618,471.86403 175.35714,481.03331 175.81619,484.10356 177.03595,487.36828 176.07143,490.31902 175.0484,493.44875 172.86242,497.12888 169.64286,497.81902 165.26882,498.75664 160.2679,495.619 157.5,492.10473 150.20467,482.8422 153.41723,468.84837 150.35714,457.46188 148.98926,452.37202 147.23016,447.3883 145.35714,442.46188 143.10172,436.52969 141.28913,430.30035 137.85714,424.96188 134.98602,420.49585 130.99982,416.82481 127.14285,413.17616 123.57709,409.803 119.65642,406.81492 115.71429,403.89045 111.44486,400.72317 105.84979,399.08965 102.5,394.96188 100.31292,392.26685 98.571429,385.31902 98.571429,385.31902 Z"
       id="path837"
       inkscape:connector-curvature="0"
       sodipodi:nodetypes="caaaacaaaaaaaaaaaac" />
    <path
       style="fill:#000000;stroke:none;stroke-width:1px;stroke-linecap:butt;stroke-linejoin:miter;stroke-opacity:1;fill-opacity:1"
       d="M 162.5,378.89045 C 160.76891,381.71907 164.11333,385.49968 166.07143,388.17617 167.87177,390.63703 171.15375,391.64296 173.21428,393.89045 174.37456,395.156 174.61669,397.26426 176.07143,398.17617 179.0243,400.02718 182.95169,399.36608 186.42857,399.60474 189.51654,399.8167 192.61905,399.60474 195.71429,399.60474 200.2381,399.60474 204.79207,400.12628 209.28572,399.60474 211.35093,399.36505 213.44317,398.98812 215.35714,398.17617 217.18115,397.40238 218.49725,395.6449 220.35715,394.96188 223.73933,393.71983 227.50072,394.01481 231.07143,393.53331 233.69101,393.18006 236.29775,392.71825 238.92857,392.46188 242.96407,392.06863 247.03183,392.09624 251.07143,391.74759 260.50197,390.93365 269.86048,389.40642 279.28572,388.53331 284.27709,388.07094 289.53189,389.05207 294.28572,387.46188 296.57174,386.69719 298.18452,384.57752 300.35714,383.53331 301.71437,382.88099 303.13707,382.09153 304.64286,382.10474 306.78894,382.12356 309.03977,382.90521 310.71429,384.24759 311.59057,384.95006 312.78164,386.01753 312.5,387.10474 308.90569,400.97979 305.8054,408.28646 302.5,418.89045 299.97867,426.97907 297.08352,434.96387 295,443.17617 293.95507,447.29487 296.36528,453.91118 292.5,455.67617 L 276.42858,447.10473 C 278.34481,454.5143 280.81003,462.79354 282.85714,470.67617 285.23039,479.81464 286.85793,489.15463 289.64285,498.17617 291.85396,505.33887 297.5,519.24759 297.5,519.24759 298.63426,522.24566 304.43313,518.92482 306.78572,516.74759 311.23487,512.63008 312.44831,505.65302 312.85715,499.60473 313.2508,493.78105 309.98076,488.25732 309.28572,482.46188 308.86021,478.91389 308.40163,475.28194 308.92857,471.74759 310.39418,461.91738 315.09114,452.84292 318.57143,443.53331 322.66651,432.57916 326.15886,421.28521 331.78571,411.0333 334.45583,406.16844 337.19054,399.58705 341.42857,397.46188 341.42857,397.46188 346.65675,393.99547 348.21429,391.39045 350.03682,388.34221 351.45804,384.50609 350.71429,381.03331 349.7369,376.46958 345.47671,373.22812 342.14286,369.96188 338.86038,366.74596 335.16286,363.83972 331.07143,361.74759 321.95348,357.08516 311.84673,350.61781 301.78571,352.46188 297.91974,353.17047 298.35666,360.06005 295.00001,362.10473 286.78988,367.10589 275.88728,364.31551 266.42858,366.03331 260.06347,367.18928 253.88682,369.2897 247.5,370.31902 238.99787,371.68925 230.37149,372.14938 221.78572,372.81902 217.74338,373.1343 213.62225,372.75591 209.64286,373.53331 202.73354,374.88309 196.47063,378.60377 189.64285,380.31902 186.13128,381.20119 182.52958,382.48179 178.92857,382.10474 175.38826,381.73403 172.51465,378.68174 168.98703,378.20518 166.83223,377.91408 163.63501,377.03582 162.5,378.89045 Z"
       id="path839"
       inkscape:connector-curvature="0"
       sodipodi:nodetypes="aaaaaaaaaaaaaaaaasaaccaasaaaaaasaaaasaaaaaaaaa" />
    <path
       style="fill:#000000;stroke:none;stroke-width:1px;stroke-linecap:butt;stroke-linejoin:miter;stroke-opacity:1;fill-opacity:1"
       d="M 181.42857,425.31902 C 178.26226,425.92131 181.50934,431.80166 182.14286,434.96188 182.66083,437.5457 183.44262,440.11585 184.64286,442.46188 186.31319,445.72678 189.85183,447.93182 191.07143,451.39045 192.5384,455.55057 191.94086,460.19628 191.78572,464.60474 191.71821,466.52314 189.74111,468.93516 191.07143,470.31902 194.96306,474.36731 203.47279,472.39914 207.85714,468.89045 209.70912,467.40836 210.45829,464.43205 210,462.10474 209.64072,460.28019 206.22409,459.66733 206.42857,457.81902 206.85797,453.93765 212.27363,452.52315 215.71429,450.67617 219.92691,448.4148 224.70361,447.3987 229.28572,446.03331 235.29037,444.24402 241.31052,442.36394 247.5,441.39045 251.2706,440.79741 255.34691,441.9956 258.92857,440.67617 262.83838,439.23585 268.6839,437.33564 268.92857,433.17616 269.1313,429.72974 264.40248,427.78682 261.42857,426.03331 257.66628,423.81494 253.29104,422.31652 248.92857,422.10474 242.00227,421.7685 235.3839,425.09545 228.57143,426.39045 222.28417,427.58561 215.99586,428.83178 209.64286,429.60474 206.44336,429.99402 203.2087,430.62324 200,430.31902 193.61771,429.71392 181.42857,425.31902 181.42857,425.31902 Z"
       id="path841"
       inkscape:connector-curvature="0"
       sodipodi:nodetypes="saaaaaaaaaaaaaaaaaas" />
    <path
       style="fill:#000000;stroke:none;stroke-width:1px;stroke-linecap:butt;stroke-linejoin:miter;stroke-opacity:1;fill-opacity:1"
       d="M 149.28571,495.31902 C 147.41676,490.75384 147.96602,484.18966 151.42857,480.67617 154.05249,478.01365 158.77796,479.23738 162.5,478.89045 171.63018,478.03943 180.89317,479.24855 190.00001,478.17616 196.28405,477.43617 202.39686,475.63019 208.57143,474.24759 215.13688,472.77747 221.50432,470.09746 228.21429,469.60474 232.38501,469.29848 236.56331,471.18416 240.71429,470.67617 245.83376,470.04966 250.22579,466.19641 255.35714,465.67617 260.96902,465.10722 266.57211,466.93375 272.14286,467.81902 274.65627,468.21844 277.14646,468.75288 279.64286,469.24759 283.69655,470.0509 288.29582,469.53438 291.78572,471.74759 294.29911,473.34152 297.93524,476.02168 297.14286,478.89045 296.38948,481.61805 292.07998,481.65809 289.28572,482.10474 285.98579,482.63222 282.62211,481.2 279.28572,481.39045 271.5465,481.83222 264.06638,484.35157 256.42857,485.67617 248.2329,487.09752 240.01425,488.38796 231.78572,489.60473 226.55601,490.37806 221.23028,490.59256 216.07143,491.74759 209.49465,493.22008 203.26709,495.97128 196.78572,497.81902 191.70429,499.26766 186.29639,499.69239 181.42857,501.74759 179.11501,502.72438 177.44903,505.12036 175,505.67617 170.44853,506.70913 165.41385,505.95823 161.07143,504.24759 156.48579,502.44113 151.15303,499.88022 149.28571,495.31902 Z"
       id="path843"
       inkscape:connector-curvature="0"
       sodipodi:nodetypes="aaaaaaaaaaaaaaaaaaaaaa" />
    <path
       style="fill:#000000;stroke:none;stroke-width:1px;stroke-linecap:butt;stroke-linejoin:miter;stroke-opacity:1;fill-opacity:1"
       d="M 18.214286,553.53331 C 14.535129,555.22482 15.89856,561.5729 13.214286,564.60474 10.62929,567.52445 3.5709892,566.79291 3.2142857,570.67617 2.8055308,575.12608 10.008176,576.49192 13.214286,579.60474 15.449752,581.77516 17.140053,584.53464 19.642857,586.39045 23.919438,589.5615 29.025203,591.45927 33.928572,593.53331 36.251858,594.51602 38.577768,596.41413 41.071429,596.03331 47.37929,595.06998 51.55792,588.7271 56.428572,584.60474 59.577704,581.93942 61.965943,578.38294 65.357143,576.03331 70.565553,572.42461 76.342378,569.31366 82.5,567.81903 86.435106,566.86387 90.695928,568.36694 94.642858,567.46188 98.330539,566.61626 101.4416,564.10427 105,562.81902 112.09032,560.25809 119.63436,559.13281 126.78571,556.7476 131.75599,555.08985 136.50556,552.82658 141.42857,551.03331 148.75076,548.3661 156.07371,545.65762 163.57143,543.53331 170.73996,541.50227 178.03186,539.89468 185.35714,538.53331 196.11623,536.53378 206.98411,535.12876 217.85714,533.89045 223.43654,533.25502 229.07519,533.193 234.64286,532.46188 243.39492,531.3126 251.9271,528.65863 260.71428,527.81902 269.01068,527.02631 277.38527,527.7552 285.71429,527.46188 296.31966,527.08839 306.88817,525.72541 317.5,525.67617 325.12733,525.64078 332.75059,526.1839 340.35714,526.7476 348.59101,527.35779 356.86685,527.82601 365,529.2476 371.2857,530.34627 377.32198,532.60144 383.57143,533.89045 389.36014,535.08443 395.29574,535.49211 401.07143,536.7476 406.37694,537.90088 411.45953,539.97966 416.78572,541.03331 421.49345,541.96462 426.35128,541.95287 431.07143,542.81902 435.53019,543.63721 439.76818,546.40977 444.28572,546.03331 446.09274,545.88272 447.92705,545.09128 449.28572,543.89045 451.76416,541.69993 453.75211,538.58342 454.28571,535.31902 454.85444,531.8397 454.13262,527.87221 452.14286,524.96188 449.17967,520.62775 443.15022,519.51181 438.92857,516.39045 435.05558,513.52687 432.35722,508.82211 427.85714,507.10474 424.29625,505.7458 420.23308,506.51879 416.42857,506.74759 409.33633,507.17412 402.45151,509.57224 395.35715,509.96188 386.79119,510.43233 378.21929,508.68599 369.64286,508.89045 361.63703,509.08131 353.67503,510.1636 345.71429,511.03331 338.31617,511.84156 330.98429,513.23096 323.57143,513.89045 316.32935,514.53475 309.03628,514.42141 301.78572,514.96188 292.24089,515.67338 282.75642,517.0722 273.21429,517.81902 266.91393,518.31212 260.53127,517.92569 254.28572,518.89045 248.57867,519.77203 243.17891,522.12853 237.5,523.17617 228.30779,524.87194 218.9331,525.35901 209.64286,526.39045 200.71847,527.38127 191.77955,528.2391 182.85714,529.2476 174.87512,530.14981 166.84499,530.74207 158.92857,532.10474 151.47145,533.38834 144.1695,535.45067 136.78571,537.10474 129.28857,538.7842 121.8548,540.78691 114.28571,542.10474 105.89196,543.56614 97.320377,543.84651 88.928572,545.31902 79.313565,547.00616 69.963321,550.01089 60.357143,551.7476 54.326555,552.83787 48.077973,552.72081 42.142857,554.2476 38.931142,555.0738 36.170608,557.68236 32.857143,557.81902 27.775747,558.0286 22.835042,551.4089 18.214286,553.53331 Z"
       id="path845"
       inkscape:connector-curvature="0"
       sodipodi:nodetypes="aaaaaaaaaaaaaaaaaaaaaaaaaaaaaaaaaaaaaaaaaaaaaaaaaaaa" />
    <path
       style="fill:#000000;stroke:none;stroke-width:1px;stroke-linecap:butt;stroke-linejoin:miter;stroke-opacity:1;fill-opacity:1"
       d="M 182.85714,495.67617 C 179.37102,497.56405 189.29868,500.44595 191.78572,503.53331 194.09242,506.39679 196.12211,509.64368 197.14286,513.17617 197.73864,515.23798 197.81806,517.48228 197.5,519.60474 196.42829,526.75648 192.13006,533.05111 190,539.96188 188.84337,543.71444 188.90141,547.87947 187.14286,551.39046 185.28603,555.09764 181.51701,557.53869 179.28572,561.03331 176.64966,565.16187 175.1909,569.94094 172.85714,574.2476 170.87279,577.90947 168.847,581.57099 166.42857,584.96188 164.17162,588.12635 161.48951,590.96653 158.92857,593.89045 156.48566,596.6796 154.1261,599.56102 151.42857,602.10474 147.30287,605.99519 143.32458,610.361 138.21429,612.81902 134.70007,614.50934 130.68284,615.17977 126.78572,615.31902 118.49091,615.61541 116.49538,615.80352 102.14286,611.7476 97.554693,610.45102 100.31128,621.40985 102.14285,625.67617 103.4384,628.6939 106.30021,631.09369 109.28571,632.46188 113.63628,634.45564 118.80295,634.29555 123.57143,633.89045 130.70839,633.28414 138.48116,632.37272 144.28571,628.17617 146.02494,626.91875 146.40432,624.39868 147.85714,622.81902 151.87201,618.45364 157.39631,615.73618 161.78572,611.74759 165.2128,608.63346 168.40703,605.25658 171.42857,601.74759 175.63908,596.85782 179.26564,591.49403 183.21429,586.39045 187.83373,580.41988 192.27899,574.3065 197.14286,568.53331 200.5637,564.47294 204.78168,561.07545 207.85714,556.7476 211.46748,551.66706 213.77735,545.7776 216.78571,540.31902 219.02376,536.25816 222.24355,532.6187 223.57143,528.17616 224.52848,524.97431 224.95809,521.44966 224.28572,518.17617 223.45014,514.10806 221.0213,510.45823 218.57143,507.10474 217.08171,505.06555 215.44086,502.93921 213.21429,501.74759 204.1159,496.87827 191.36261,491.07009 182.85714,495.67617 Z"
       id="path847"
       inkscape:connector-curvature="0"
       sodipodi:nodetypes="saaaaaaaaaaaasaaaaaaaaaaaaaaas" />
    <path
       style="fill:#000000;stroke:none;stroke-width:1px;stroke-linecap:butt;stroke-linejoin:miter;stroke-opacity:1;fill-opacity:1"
       d="M 274.28572,549.60474 C 274.28572,549.60474 277.68399,554.73796 279.64286,557.10474 286.6758,565.60222 294.90042,573.03857 302.50001,581.03331 306.6774,585.4279 310.90523,589.77592 315,594.2476 319.72709,599.4098 324.29161,604.71857 328.92857,609.96188 332.50455,614.00548 336.1956,617.95086 339.64286,622.10474 344.46378,627.91384 348.96865,633.97846 353.57143,639.96188 356.2136,643.39659 358.39051,647.22895 361.42857,650.31902 364.40057,653.3419 367.66593,656.22345 371.42857,658.17617 373.63493,659.32122 376.08728,660.40914 378.57143,660.31902 381.24493,660.22203 384.14483,659.31802 386.07143,657.46188 389.14467,654.50103 390.71448,649.9287 391.07143,645.67617 391.50135,640.55441 389.52545,635.40002 387.50001,630.67617 385.26188,625.45629 381.62817,620.92936 378.21429,616.39045 373.29337,609.84786 367.96879,603.5705 362.14286,597.81902 356.4914,592.23978 350.50228,586.91757 343.92857,582.46188 337.44784,578.06921 330.12369,575.07223 323.21429,571.39045 315.60034,567.33324 308.14703,562.95581 300.35714,559.2476 294.28799,556.35851 288.17253,553.48568 281.78572,551.39046 279.34387,550.5894 274.28572,549.60474 274.28572,549.60474 Z"
       id="path849"
       inkscape:connector-curvature="0"
       sodipodi:nodetypes="caaaaaaaaaaaaaaaaaac" />
  </g>
</svg>
