<?xml version="1.0" encoding="UTF-8" standalone="no"?>
<!-- Created with Inkscape (http://www.inkscape.org/) -->

<svg
   xmlns:dc="http://purl.org/dc/elements/1.1/"
   xmlns:cc="http://creativecommons.org/ns#"
   xmlns:rdf="http://www.w3.org/1999/02/22-rdf-syntax-ns#"
   xmlns:svg="http://www.w3.org/2000/svg"
   xmlns="http://www.w3.org/2000/svg"
   xmlns:sodipodi="http://sodipodi.sourceforge.net/DTD/sodipodi-0.dtd"
   xmlns:inkscape="http://www.inkscape.org/namespaces/inkscape"
   width="530"
   height="512"
   viewBox="0 0 530 512"
   version="1.1"
   id="svg8"
   inkscape:version="0.92.4 (5da689c313, 2019-01-14)"
   sodipodi:docname="U+8AC7.svg">
  <defs
     id="defs2" />
  <sodipodi:namedview
     id="base"
     pagecolor="#ffffff"
     bordercolor="#666666"
     borderopacity="1.0"
     inkscape:pageopacity="0.0"
     inkscape:pageshadow="2"
     inkscape:zoom="2.8"
     inkscape:cx="283.34215"
     inkscape:cy="388.94029"
     inkscape:document-units="px"
     inkscape:current-layer="layer1"
     showgrid="false"
     units="px"
     scale-x="0.6"
     inkscape:window-width="1920"
     inkscape:window-height="1017"
     inkscape:window-x="-8"
     inkscape:window-y="-8"
     inkscape:window-maximized="1"
     showguides="false" />
  <metadata
     id="metadata5">
    <rdf:RDF>
      <cc:Work
         rdf:about="">
        <dc:format>image/svg+xml</dc:format>
        <dc:type
           rdf:resource="http://purl.org/dc/dcmitype/StillImage" />
        <dc:title></dc:title>
      </cc:Work>
    </rdf:RDF>
  </metadata>
  <g
     inkscape:label="圖層 1"
     inkscape:groupmode="layer"
     id="layer1"
     transform="translate(0,-161.53331)">
    <path
       style="fill:#000000;stroke:none;stroke-width:1px;stroke-linecap:butt;stroke-linejoin:miter;stroke-opacity:1;fill-opacity:1"
       d="M 110.99423,224.90302 139.40105,224.01543 C 139.40105,224.01543 170.71578,231.08649 167.68532,246.23878 164.65487,261.39107 159.6041,271.4926 159.6041,271.4926 L 150.51273,274.52305 V 259.37076 C 150.51273,259.37076 140.4112,240.17787 127.27922,235.1271 114.14724,230.07634 110.99423,224.90302 110.99423,224.90302 Z"
       id="path834"
       inkscape:connector-curvature="0"
       sodipodi:nodetypes="ccscccsc" />
    <path
       style="fill:#000000;stroke:none;stroke-width:1px;stroke-linecap:butt;stroke-linejoin:miter;stroke-opacity:1;fill-opacity:1"
       d="M 18.182746,284.62458 C 18.182746,284.62458 1.0101525,293.71595 4.0406102,299.77687 7.0710678,305.83778 16.162441,315.93931 16.162441,315.93931 16.162441,315.93931 18.182746,331.0916 29.294424,327.05099 40.406102,323.01038 45.456865,310.88855 45.456865,310.88855 L 180.81731,278.56366 201.02036,279.57382 C 201.02036,279.57382 230.15055,281.87354 227.28432,274.52305 222.23356,261.5703 190.91883,251.66391 190.91883,255.33015 L 159.6041,271.4926 39.395949,298.76671 Z"
       id="path836"
       inkscape:connector-curvature="0"
       sodipodi:nodetypes="cscscccscccc" />
    <path
       style="fill:#000000;stroke:none;stroke-width:1px;stroke-linecap:butt;stroke-linejoin:miter;stroke-opacity:1;fill-opacity:1"
       d="M 80.812204,368.46724 92.934034,359.37587 H 103.03556 L 162.63456,335.13221 C 162.63456,335.13221 189.90868,347.25404 173.74624,352.3048 157.5838,357.35556 147.48227,359.37587 147.48227,359.37587 L 104.04571,389.68044 89.903577,380.58907 Z"
       id="path838"
       inkscape:connector-curvature="0" />
    <path
       style="fill:#000000;stroke:none;stroke-width:1px;stroke-linecap:butt;stroke-linejoin:miter;stroke-opacity:1;fill-opacity:1"
       d="M 68.690373,424.02563 C 73.698346,420.21914 81.272907,431.94114 86.873119,429.07639 110.75,416.86234 146.80801,400.1228 146.47212,401.80227 L 167.68532,406.85304 C 167.68532,406.85304 171.71687,409.86541 163.64471,413.92411 155.59571,417.97116 125.1878,435.72917 109.09648,440.18807 106.06602,447.25914 102.02541,453.32005 102.02541,453.32005 102.02541,453.32005 91.586573,445.97591 85.862967,443.21853 80.394237,440.58394 72.196389,442.11301 68.690373,437.15762 66.162148,433.58423 65.205453,426.67447 68.690373,424.02563 Z"
       id="path840"
       inkscape:connector-curvature="0"
       sodipodi:nodetypes="asccsccaaa" />
    <path
       style="fill:#000000;fill-opacity:1;stroke:none;stroke-width:1px;stroke-linecap:butt;stroke-linejoin:miter;stroke-opacity:1"
       d="M 86.873119,485.64494 146.47212,462.41143 C 146.47212,462.41143 146.96812,446.66534 166.67517,453.32005 189.5871,461.05699 191.25453,474.36541 190.91883,474.53326 L 178.797,484.63478 161.62441,540.19317 145.46197,538.17287 C 145.46197,538.17287 151.04319,492.83856 149.02288,490.81825 147.00258,488.79795 141.42136,486.65509 141.42136,486.65509 L 105.05587,502.81753 91.923882,496.75661 Z"
       id="path842"
       inkscape:connector-curvature="0"
       sodipodi:nodetypes="ccsccccscccc" />
    <path
       style="fill:#000000;stroke:none;stroke-width:1px;stroke-linecap:butt;stroke-linejoin:miter;stroke-opacity:1;fill-opacity:1"
       d="M 41.416254,493.72616 47.47717,489.68555 C 47.47717,489.68555 87.857143,504.24759 88.928572,507.10474 90,509.96188 108.57143,591.03331 108.57143,591.03331 L 104.28571,599.60474 100.35714,596.03331 C 98.719961,596.03331 82.400742,541.03331 74.642857,526.03331 60.377316,509.59429 41.416254,493.72616 41.416254,493.72616 Z"
       id="path844"
       inkscape:connector-curvature="0"
       sodipodi:nodetypes="ccsccccc" />
    <path
       style="fill:#000000;stroke:none;stroke-width:1px;stroke-linecap:butt;stroke-linejoin:miter;stroke-opacity:1;fill-opacity:1"
       d="M 93.214286,559.60474 C 93.214286,559.60474 133.83751,533.33092 156.78571,533.17617 161.27325,533.14591 165.53925,535.70576 169.28571,538.17617 172.09677,540.02976 176.42857,545.31902 176.42857,545.31902 L 98.214286,571.39045 Z"
       id="path846"
       inkscape:connector-curvature="0"
       sodipodi:nodetypes="caaccc" />
    <path
       style="fill:#000000;stroke:none;stroke-width:1px;stroke-linecap:butt;stroke-linejoin:miter;stroke-opacity:1;fill-opacity:1"
       d="M 302.5,163.17616 321.78572,168.17616 338.21429,161.74759 343.57143,165.31902 337.85714,171.03331 C 337.85714,171.03331 343.31183,197.78007 341.42857,211.03331 337.51185,238.59691 332.00111,279.52421 321.39071,309.33705 311.74625,336.43582 297.51598,353.48274 283.57143,359.60474 254.28572,372.46189 251.43682,381.65915 232.85714,383.17617 227.56012,383.60867 217.5,378.89045 217.5,378.89045 L 193.92857,362.46188 220.71429,369.60474 C 220.71429,369.60474 278.21429,367.10474 294.28572,334.60474 310.35714,302.10474 318.42115,271.18373 322.14286,237.81902 324.41665,217.43468 326.07143,181.03331 318.57143,176.39045 311.07143,171.74759 307.5,172.81902 307.5,172.81902 Z"
       id="path848"
       inkscape:connector-curvature="0"
       sodipodi:nodetypes="cccccsssacccsascc" />
    <path
       style="fill:#000000;stroke:none;stroke-width:1px;stroke-linecap:butt;stroke-linejoin:miter;stroke-opacity:1;fill-opacity:1"
       d="M 262.14286,249.60474 253.92857,269.24759 237.85714,292.81902 H 257.5 C 257.5,292.81902 275.14353,288.00533 282.14286,275.67617 284.74481,271.09289 278.26073,257.81238 272.85714,251.74759 270.12637,248.68266 262.14286,249.60474 262.14286,249.60474 Z"
       id="path850"
       inkscape:connector-curvature="0"
       sodipodi:nodetypes="ccccssc" />
    <path
       style="fill:#000000;stroke:none;stroke-width:1px;stroke-linecap:butt;stroke-linejoin:miter;stroke-opacity:1;fill-opacity:1"
       d="M 382.5,190.67616 C 382.5,190.67616 395.61968,202.04717 396.78572,209.96188 397.96575,217.97154 388.57143,232.81902 388.57143,232.81902 L 371.07143,251.74759 C 371.07143,251.74759 428.92857,244.24759 433.21429,233.53331 437.5,222.81902 437.85714,218.17616 413.57143,204.24759 389.28572,190.31902 382.5,190.67616 382.5,190.67616 Z"
       id="path852"
       inkscape:connector-curvature="0"
       sodipodi:nodetypes="cacccsc" />
    <path
       style="fill:#000000;stroke:none;stroke-width:1px;stroke-linecap:butt;stroke-linejoin:miter;stroke-opacity:1;fill-opacity:1"
       d="M 336.78572,306.39045 C 338.57143,306.39045 372.04647,303.61673 395.35714,312.10474 419.94173,321.05661 439.0347,332.348 441.78572,347.46188 444.48176,362.27368 445.35714,361.7476 445.35714,361.7476 445.58222,361.63586 430.21189,355.44216 403.57143,340.67617 382.85825,329.19548 357.5,316.74759 355,316.39045 352.5,316.03331 336.78572,306.39045 336.78572,306.39045 Z"
       id="path854"
       inkscape:connector-curvature="0"
       sodipodi:nodetypes="csscssc" />
    <path
       style="fill:#000000;stroke:none;stroke-width:1px;stroke-linecap:butt;stroke-linejoin:miter;stroke-opacity:1;fill-opacity:1"
       d="M 235,403.53331 C 235,403.53331 245.94675,416.09458 246.78571,423.89046 247.49471,430.47857 240.71429,442.81902 240.71429,442.81902 240.71429,442.81902 237.14286,448.89045 259.28572,441.74759 281.42857,434.60474 282.14286,434.96188 282.14286,433.53331 282.14286,432.10474 272.49576,414.63261 263.92857,409.24759 255.6068,404.01683 235,403.53331 235,403.53331 Z"
       id="path856"
       inkscape:connector-curvature="0"
       sodipodi:nodetypes="cacssac" />
    <path
       style="fill:#000000;stroke:none;stroke-width:1px;stroke-linecap:butt;stroke-linejoin:miter;stroke-opacity:1;fill-opacity:1"
       d="M 374.28572,388.53331 C 374.28572,388.53331 398.57143,406.39045 387.85714,415.31902 377.14286,424.24759 347.85714,438.53331 343.92857,437.10474 340,435.67617 384.64286,440.67617 413.21429,425.67617 441.78572,410.67617 374.28572,388.53331 374.28572,388.53331 Z"
       id="path860"
       inkscape:connector-curvature="0"
       sodipodi:nodetypes="csssc" />
    <path
       style="fill:#000000;fill-opacity:1;stroke:none;stroke-width:1px;stroke-linecap:butt;stroke-linejoin:miter;stroke-opacity:1"
       d="M 298.21429,342.81902 313.92857,368.53331 C 313.92857,368.53331 304.64286,378.17617 304.28572,408.53331 303.92857,438.89045 304.64286,460.31902 304.64286,460.31902 304.64286,460.27571 298.57143,481.37923 280.35715,507.10474 265.32575,528.3348 215.71429,563.17617 202.5,567.10474 189.28572,571.03331 183.27693,576.47179 172.85714,577.46188 162.31474,578.46362 141.42857,572.81902 141.42857,572.81902 141.42857,572.81902 145.64543,579.48408 148.92857,581.39045 156.17691,585.59923 165.19876,586.77863 173.57143,586.39045 198.28875,585.2445 223.55207,579.30016 244.64286,564.96188 264.45146,551.49528 265.42364,547.17124 265.35714,547.10474 278.41393,536.90787 288.585,523.10385 297.85714,508.17617 297.85714,508.17617 318.94365,479.6058 323.92857,460.67616 329.0254,441.32154 303.79757,417.72389 319.28572,389.2476 333.87135,362.43067 332.30737,370.2792 333.21429,357.10474 334.07969,344.53343 298.21429,342.81902 298.21429,342.81902 Z"
       id="path862"
       inkscape:connector-curvature="0"
       sodipodi:nodetypes="ccscssacaasccsssc" />
    <path
       style="fill:#000000;fill-opacity:1;stroke:none;stroke-width:1px;stroke-linecap:butt;stroke-linejoin:miter;stroke-opacity:1"
       d="M 273.57143,464.60474 C 273.57143,464.60474 279.64286,453.17617 295,459.96188 310.35714,466.74759 320.28002,472.00009 331.42857,480.31902 347.14962,492.0499 356.11435,512.44533 373.57143,521.39046 422.09871,546.25617 512.71451,576.28825 519.28572,578.17617 527.5,578.89045 527.85715,580.67617 527.85715,580.67617 L 437.5,597.81902 C 437.5,597.81902 396.78572,585.31903 366.78572,548.89046 336.78572,512.46188 321.07143,491.74759 321.07143,491.74759 L 288.57143,473.89045 273.57143,468.53331 Z"
       id="path864"
       inkscape:connector-curvature="0"
       sodipodi:nodetypes="csascccscccc" />
  </g>
</svg>
