<?xml version="1.0" encoding="UTF-8" standalone="no"?>
<!-- Created with Inkscape (http://www.inkscape.org/) -->

<svg
   xmlns:dc="http://purl.org/dc/elements/1.1/"
   xmlns:cc="http://creativecommons.org/ns#"
   xmlns:rdf="http://www.w3.org/1999/02/22-rdf-syntax-ns#"
   xmlns:svg="http://www.w3.org/2000/svg"
   xmlns="http://www.w3.org/2000/svg"
   xmlns:sodipodi="http://sodipodi.sourceforge.net/DTD/sodipodi-0.dtd"
   xmlns:inkscape="http://www.inkscape.org/namespaces/inkscape"
   width="512"
   height="512"
   viewBox="0 0 512 512"
   version="1.1"
   id="svg4564"
   inkscape:version="0.92.4 (5da689c313, 2019-01-14)"
   sodipodi:docname="U+9577.svg">
  <defs
     id="defs4558" />
  <sodipodi:namedview
     id="base"
     pagecolor="#ffffff"
     bordercolor="#666666"
     borderopacity="1.0"
     inkscape:pageopacity="0.0"
     inkscape:pageshadow="2"
     inkscape:zoom="1.4"
     inkscape:cx="406.70696"
     inkscape:cy="307.32594"
     inkscape:document-units="px"
     inkscape:current-layer="layer1"
     showgrid="false"
     units="px"
     inkscape:window-width="1920"
     inkscape:window-height="1005"
     inkscape:window-x="-9"
     inkscape:window-y="-9"
     inkscape:window-maximized="1">
    <inkscape:grid
       type="xygrid"
       id="grid4588" />
  </sodipodi:namedview>
  <metadata
     id="metadata4561">
    <rdf:RDF>
      <cc:Work
         rdf:about="">
        <dc:format>image/svg+xml</dc:format>
        <dc:type
           rdf:resource="http://purl.org/dc/dcmitype/StillImage" />
        <dc:title></dc:title>
      </cc:Work>
    </rdf:RDF>
  </metadata>
  <g
     inkscape:label="圖層 1"
     inkscape:groupmode="layer"
     id="layer1"
     transform="translate(0,-161.53331)">
    <path
       style="fill:#000000;stroke:none;stroke-width:1px;stroke-linecap:butt;stroke-linejoin:miter;stroke-opacity:1;fill-opacity:1"
       d="M 126.42857,194.60473 C 126.42857,194.60473 131.66464,194.30713 134.28571,194.24759 136.90408,194.18811 139.53373,194.01983 142.14286,194.24759 155.14799,195.38284 167.67138,201.58552 180.71428,201.0333 184.89756,200.85619 188.77368,198.7445 192.85714,197.81902 197.22916,196.82814 201.66372,196.13665 206.07143,195.31902 216.54077,193.37694 227.10369,191.90589 237.5,189.60474 245.30936,187.87619 253.19982,186.27314 260.71429,183.53331 265.66715,181.72746 270.02359,178.48748 275.00001,176.7476 278.46188,175.53724 282.81614,176.49487 285.71429,174.24759 288.15488,172.35511 287.91716,168.31361 290,166.03331 291.33625,164.57038 293.09895,163.37736 295,162.81902 298.88358,161.6784 303.20352,161.88907 307.14286,162.81902 312.06533,163.98106 317.45868,165.73407 320.71429,169.60474 321.51432,170.55592 321.05773,172.16878 321.78572,173.17617 322.63685,174.35398 324.44868,174.54198 325.35714,175.67616 326.72541,177.3844 327.93705,179.56039 327.85714,181.74759 327.79882,183.34372 326.89682,184.95969 325.71429,186.03331 323.25898,188.26248 319.63447,188.75623 316.42857,189.60474 312.42598,190.66412 308.28209,191.24755 304.14737,191.46471 300.98031,191.63105 297.80939,190.85699 294.64286,191.0333 290.07009,191.28791 285.54484,192.19452 281.07143,193.17616 264.39617,196.83534 248.08164,202.01581 231.78572,207.10474 223.01735,209.84295 214.29262,212.74783 205.71429,216.03331 196.89723,219.41022 188.97161,225.64932 179.64285,227.10474 171.96475,228.30263 163.52576,228.12705 156.42857,224.96188 148.4271,221.39343 145.30003,210.30128 137.14286,207.10473 134.48268,206.06228 130.75576,208.94646 128.57143,207.10473 125.33949,204.37969 122.51198,196.7063 126.42857,194.60473 Z"
       id="path829"
       inkscape:connector-curvature="0"
       sodipodi:nodetypes="saaaaaaaaaaaaaaaaaaaaaaaaaaas" />
    <path
       style="fill:#000000;stroke:none;stroke-width:1px;stroke-linecap:butt;stroke-linejoin:miter;stroke-opacity:1;fill-opacity:1"
       d="M 144.28571,204.60474 C 141.80422,206.0988 142.34248,210.3257 142.85714,213.17616 143.66259,217.63723 147.85463,220.79629 149.64286,224.96188 152.77803,232.26508 154.73956,240.05285 156.42857,247.81902 158.06366,255.33729 158.70991,263.03893 159.64286,270.67617 161.18123,283.26937 162.63336,295.88123 163.57143,308.53331 164.55829,321.84339 165.43675,335.18693 165.35714,348.53331 165.31944,354.85282 164.2468,361.14238 164.28571,367.46188 164.32832,374.38291 164.53698,381.35587 165.71428,388.17616 166.24001,391.22178 165.51942,395.12851 168.21428,397.10474 173.57143,401.03331 169.75811,402.99493 171.78572,402.10474 173.77964,393.07601 172.68769,389.16701 173.92857,382.81902 175.0203,377.23405 177.33468,371.94511 178.57143,366.39045 180.32809,358.50067 181.84307,350.51811 182.5,342.46188 183.31274,332.49496 182.79374,322.45757 182.5,312.46188 182.20225,302.32972 180.67912,292.24122 180.71429,282.10474 180.74575,273.03762 183.09665,264.00941 182.50001,254.96188 182.02068,247.69335 178.6603,240.80395 178.21428,233.5333 177.9219,228.76698 181.36224,223.54775 179.28572,219.24759 177.53402,215.62008 172.92375,214.19164 169.28572,212.46188 164.79582,210.32709 159.73972,209.67669 155,208.17616 151.41095,207.03992 147.51088,202.66293 144.28571,204.60474 Z"
       id="path831"
       inkscape:connector-curvature="0"
       sodipodi:nodetypes="aaaaaaaaascaaaaaaaaaaa" />
    <path
       style="fill:#000000;stroke:none;stroke-width:1px;stroke-linecap:butt;stroke-linejoin:miter;stroke-opacity:1;fill-opacity:1"
       d="M 187.85714,275.31902 C 187.85714,275.31902 202.42249,272.0782 209.28571,269.24759 221.9955,264.00567 233.02691,255.32886 245.35715,249.24759 248.03488,247.92693 250.59121,245.85691 253.57143,245.67616 258.1583,245.39797 263.44067,246.45396 266.78572,249.60474 267.80003,250.56014 268.34158,252.14572 268.21429,253.53331 267.9998,255.87148 266.35867,258.00192 264.64285,259.60474 262.11399,261.96704 258.31847,262.45702 255.35715,264.2476 249.0806,268.04275 243.70781,273.19817 237.5,277.10474 232.45007,280.28265 227.32679,283.46315 221.78572,285.67616 218.35312,287.04709 214.74863,288.90792 211.07143,288.53331 205.24522,287.93978 200.37433,283.69692 195.35715,280.67616 192.72512,279.09147 186.11949,277.85266 187.85714,275.31902 Z"
       id="path833"
       inkscape:connector-curvature="0"
       sodipodi:nodetypes="saaaaaaaaaaas" />
    <path
       style="fill:#000000;stroke:none;stroke-width:1px;stroke-linecap:butt;stroke-linejoin:miter;stroke-opacity:1;fill-opacity:1"
       d="M 183.92857,335.31902 C 193.36952,335.80373 195.64637,332.40505 201.42858,330.67616 206.47815,329.16633 211.42404,327.32917 216.42857,325.67617 222.97031,323.51543 229.44554,321.1346 236.07143,319.24759 240.43127,318.00594 245.36792,318.31384 249.28571,316.03331 251.68762,314.63517 252.30248,310.63069 255.00001,309.96188 259.64071,308.81129 264.51422,312.07512 268.57143,314.60474 270.85727,316.02993 274.28571,317.62528 274.28571,320.31902 274.28571,322.67604 271.21998,323.97211 269.28572,325.31902 263.90894,329.06312 257.32112,330.66873 251.42857,333.53331 246.73593,335.81457 241.82662,337.75976 237.5,340.67617 231.76091,344.54467 228.17101,351.57728 221.78572,354.24759 219.03119,355.39953 215.81589,355.36216 212.85715,354.96188 205.95296,354.02784 199.44918,350.92809 193.21429,347.81902 190.673,346.55179 187.74521,345.47018 186.07143,343.17617 184.47134,340.98315 181.21743,335.17983 183.92857,335.31902 Z"
       id="path835"
       inkscape:connector-curvature="0"
       sodipodi:nodetypes="saaaaaaaaaaaaaas" />
    <path
       style="fill:#000000;stroke:none;stroke-width:1px;stroke-linecap:butt;stroke-linejoin:miter;stroke-opacity:1;fill-opacity:1"
       d="M 5.3571429,419.60474 C 12.209876,421.8197 20.843919,425.28424 28.928571,425.31902 36.263227,425.35057 43.27507,422.22754 50.357143,420.31903 63.701386,416.72295 76.660936,411.7914 90,408.17617 96.493761,406.41619 103.11796,405.17407 109.64286,403.53331 118.60445,401.27982 127.28556,397.72974 136.42857,396.39045 140.31745,395.8208 144.34824,396.74151 148.21429,396.03331 151.80639,395.37529 155.01891,393.30791 158.57143,392.46188 166.28555,390.62477 174.25715,390.08319 182.14286,389.24759 189.97865,388.41728 197.87398,388.24841 205.71429,387.46188 209.53429,387.07866 213.3409,386.56652 217.14286,386.03331 222.51189,385.28033 227.92923,384.74226 233.21429,383.53331 236.00432,382.89509 238.63066,381.63603 241.42858,381.03331 247.76557,379.66821 254.25821,379.11641 260.71429,378.53331 265.3444,378.11512 270.03617,378.44451 274.64286,377.81902 283.34354,376.63766 291.69689,373.55301 300.35714,372.10474 306.62,371.05739 312.98728,370.76811 319.28572,369.96188 329.30549,368.6793 339.58425,368.49084 349.28572,365.67617 354.30075,364.22117 358.72164,361.18334 363.57143,359.24759 368.25712,357.37735 372.88331,355.09287 377.85714,354.24759 380.20444,353.84868 382.65431,353.83932 385,354.24759 389.85988,355.09345 394.45355,357.17201 398.92858,359.2476 404.54128,361.85086 409.88393,365.05405 415,368.53331 418.64363,371.01121 425.35714,376.74759 425.35714,376.74759 427.18339,378.84253 423.94272,383.30503 421.78571,385.67617 418.63283,389.14204 413.94016,391.56703 409.28572,392.10474 403.92209,392.72438 398.96676,387.96897 393.57143,388.17617 392.44288,388.21951 391.48125,389.13853 390.35714,389.24759 382.94978,389.96622 375.60881,387.23099 368.21429,386.39045 360.96403,385.56632 353.7243,384.38106 346.42857,384.24759 338.67714,384.10578 330.93877,385.01497 323.21429,385.67617 313.42954,386.51372 303.7277,388.24256 293.92857,388.89045 288.70054,389.23611 283.40069,388.5039 278.21429,389.24759 273.21189,389.9649 268.56537,392.40213 263.57143,393.17617 260.98061,393.57773 258.33604,393.53614 255.71429,393.53331 253.21146,393.53061 250.70659,392.94684 248.21429,393.17616 242.00329,393.74765 236.11753,396.24577 230,397.46188 224.91311,398.47311 219.81974,399.64726 214.64286,399.96188 211.66977,400.14256 208.67563,399.28486 205.71428,399.60474 202.90092,399.90864 200.25759,401.11271 197.50001,401.74759 193.9507,402.56476 190.38943,403.36261 186.78572,403.89045 182.99989,404.44496 179.07494,404.0574 175.35715,404.96187 168.87013,406.54006 163.12992,410.38267 156.78571,412.46188 150.83174,414.4132 144.57109,415.2988 138.57143,417.10474 127.82801,420.33858 117.34848,424.39376 106.78571,428.17617 94.126797,432.70919 81.504517,437.34636 68.928572,442.10473 64.627756,443.73203 60.11934,444.9231 56.071429,447.10474 51.186299,449.7376 47.786831,455.06061 42.5,456.74759 40.458553,457.399 38.156963,457.23992 36.071429,456.74759 33.739732,456.19715 31.856276,454.45014 29.642857,453.53331 26.860415,452.38079 23.346624,452.64944 21.071429,450.67617 19.864823,449.62969 20.018869,447.55762 18.928572,446.39045 17.325759,444.67463 14.51742,444.4793 12.857143,442.81902 9.5365886,439.49847 7.0210022,435.18667 5.7142857,430.67617 4.6868267,427.1296 1.7163677,418.42796 5.3571429,419.60474 Z"
       id="path837"
       inkscape:connector-curvature="0"
       sodipodi:nodetypes="saaaaaaaaaaaaaaaaaaaaaasaaaaaaaaaaaaaaaaaaaaaaaaaaaaaas" />
    <path
       style="fill:#000000;stroke:none;stroke-width:1px;stroke-linecap:butt;stroke-linejoin:miter;stroke-opacity:1;fill-opacity:0"
       d="M 131.42857,533.17617 123.57143,545.31902 123.21429,559.60474 134.64286,575.67617 143.92857,586.03331 158.92857,589.2476 176.42857,588.53331 189.64286,580.31902 195,570.67617 201.07143,569.2476 202.5,562.10474 202.85714,544.60474 188.21429,536.39045 168.57143,532.81902 153.21428,532.46188 140.35715,533.53331 Z"
       id="path841"
       inkscape:connector-curvature="0"
       sodipodi:nodetypes="ccccccccccccccccc" />
    <path
       style="fill:#000000;stroke:none;stroke-width:1px;stroke-linecap:butt;stroke-linejoin:miter;stroke-opacity:1;fill-opacity:1"
       d="M 122.23214,429.42616 C 126.07072,430.7742 134.64286,432.10474 134.64286,432.10474 134.64286,432.10474 140.84467,432.24909 143.57143,433.53331 147.15804,435.22249 150.4109,437.80635 152.94643,440.85474 155.049,443.38259 157.18191,446.33218 157.5,449.60474 157.90816,453.80401 155.14421,457.70746 153.92857,461.74759 152.52892,466.39925 150.85877,470.97314 149.64286,475.67617 148.4857,480.15198 146.45943,484.63615 146.78571,489.24759 146.88406,490.63754 148.12758,491.78545 148.21429,493.17617 148.6474,500.12264 145.04707,506.73158 143.57143,513.53331 142.69526,517.57187 143.1669,522.11434 141.07143,525.67617 138.86542,529.42589 134.01201,530.88722 131.17603,534.18632 128.32162,537.50687 125.55663,541.15479 124.20278,545.31902 122.72694,549.85843 121.92028,555.01019 123.21429,559.60474 124.99634,565.93212 130.40681,570.64951 134.64286,575.67617 137.70312,579.30759 140.45919,583.61631 144.68618,585.78077 149.07901,588.03016 154.38279,587.78696 159.30738,588.11118 165.08815,588.49177 171.13666,589.32908 176.68111,587.64943 180.99576,586.34233 185.04352,583.7336 188.12763,580.44529 190.20408,578.23136 190.39145,574.52713 192.47462,572.44394 194.62119,570.29736 200.21739,568.20792 202.12119,564.50385 204.92884,559.04124 206.37571,551.47178 203.36222,546.11997 199.99109,540.13301 191.39918,537.81039 185.05756,536.64299 179.56772,535.63239 174.03614,533.67591 168.6977,531.6826 161.92831,529.15499 151.85237,527.02541 148.9069,522.83697 153.52389,521.45447 158.19634,522.56648 158.19634,522.56648 158.19634,522.56648 172.71172,524.71035 179.7908,526.578 186.60364,528.3754 193.7024,529.89498 199.77284,533.47203 205.92472,537.09707 213.0066,541.18656 215.69634,547.80108 217.14713,551.36882 214.20282,555.66702 214.93872,559.33053 224.44016,557.41985 226.10405,556.4178 231.5369,554.49641 234.7839,553.34808 237.75474,551.44778 241.06772,550.50657 244.25328,549.60156 247.57626,548.72584 250.88017,548.95173 252.69131,549.07556 255.82854,548.79628 256.0931,550.52824 246.56256,559.22614 241.49542,560.66546 233.82397,565.13149 227.84504,568.61219 221.05375,570.67898 215.35714,574.60474 210.08197,578.24007 206.44583,583.97492 201.07143,587.46188 195.85088,590.84902 190.64024,594.62309 184.01151,595.04482 175.25979,595.60163 169.37029,598.2751 162.3595,600.86372 152.63429,604.45458 144.39232,609.55184 134.28571,614.2476 129.77444,616.34364 123.26708,611.36021 118.84191,608.00657 115.40122,605.39901 112.44275,602.54656 110.92349,597.75775 109.08715,591.96946 109.30223,582.31938 113.93228,577.14435 116.47504,574.3023 121.35299,575.36705 125,574.2476 126.32775,569.93299 117.8844,568.1895 116.0931,564.04582 113.17688,557.29998 111.97477,549.18947 113.92857,542.10474 115.73894,535.5401 123.47674,531.97215 126.07143,525.67617 127.95102,521.11535 127.50833,515.91548 128.21429,511.03331 129.41899,502.70202 130.83317,494.39718 131.78571,486.03331 132.42114,480.45391 132.75521,474.84426 133.21428,469.24759 133.58526,464.7249 133.30082,460.10589 134.28571,455.67617 134.72722,453.69037 136.85923,451.95006 136.42857,449.96188 135.85831,447.32919 132.79912,445.95337 130.71428,444.24759 127.42415,441.55566 123.96561,439.94977 120.08929,437.19403 118.10972,435.78671 119.7597,430.62655 122.23214,429.42616 Z"
       id="path843"
       inkscape:connector-curvature="0"
       sodipodi:nodetypes="ccsaaaaaaaaaaaaaaaasaasaccaaacaaacaaasasasacaaaaaaaaasc" />
    <path
       style="fill:#000000;stroke:none;stroke-width:1px;stroke-linecap:butt;stroke-linejoin:miter;stroke-opacity:1;fill-opacity:1"
       d="M 285.71429,396.74759 C 283.71579,397.41238 282.49982,399.57706 281.42857,401.39045 280.27971,403.33523 280.26117,405.78173 279.28571,407.81902 278.43007,409.60609 277.01957,411.07926 276.07143,412.81902 275.38308,414.08209 275.36734,415.7993 274.28572,416.74759 272.13361,418.6344 268.38995,417.56947 266.07143,419.24759 262.88753,421.55207 261.91433,425.96843 259.28572,428.89045 255.9003,432.65376 251.72981,435.63069 247.85714,438.89045 242.93558,443.03309 238.07922,447.27657 232.85714,451.03331 227.81707,454.65912 222.15703,457.37177 217.14286,461.03331 214.89017,462.67831 213.11962,464.97803 210.71428,466.39045 206.42472,468.90929 201.26261,469.57913 196.78571,471.7476 190.06054,475.00506 184.25059,479.97169 177.50001,483.17616 170.62717,486.43867 163.26254,488.54981 156.07143,491.03331 151.69447,492.54492 142.85714,495.31902 142.85714,495.31902 142.85714,495.31902 148.4778,497.95586 151.42857,498.89045 156.66026,500.54746 162.01491,502.635 167.5,502.46188 172.20719,502.31331 176.70086,500.28768 181.07143,498.53331 186.55659,496.33153 191.60448,493.16324 196.78572,490.31902 200.75955,488.1376 204.78693,486.02879 208.57143,483.53331 211.55301,481.56727 214.27004,479.22653 217.14286,477.10473 219.74783,475.18077 222.53797,473.49424 225,471.39045 227.30391,469.42178 229.144,466.95296 231.42857,464.96188 235.14411,461.72365 239.29998,459.02824 243.21429,456.03331 248.47167,452.01077 253.53508,447.72856 258.92858,443.89045 261.94168,441.74627 265.79202,440.61347 268.21429,437.81902 270.79574,434.84093 269.95993,429.32781 273.21429,427.10474 276.26797,425.01875 280.80217,427.63189 284.28572,426.39045 286.21504,425.7029 287.44557,423.7184 289.28571,422.81902 293.41427,420.80116 298.82574,421.65026 302.5,418.89045 304.08423,417.7005 305.30835,415.82976 305.71429,413.89044 306.3318,410.94034 305.86809,407.52714 304.28572,404.96188 302.36036,401.84058 298.72989,399.97349 295.35714,398.53331 292.35081,397.24959 288.81611,395.71578 285.71429,396.74759 Z"
       id="path845"
       inkscape:connector-curvature="0"
       sodipodi:nodetypes="aaaaaaaaaaaaaacaaaaaaaaaaaaaaaaaaa" />
    <path
       style="fill:#000000;stroke:none;stroke-width:1px;stroke-linecap:butt;stroke-linejoin:miter;stroke-opacity:1;fill-opacity:1"
       d="M 245.35714,435.67617 C 242.62856,435.34647 240.1811,437.57158 237.5,438.17617 234.92146,438.75763 230.99198,436.97453 229.64286,439.24759 228.27742,441.54815 230.60695,444.85725 232.5,446.74759 235.11279,449.35664 239.52223,449.09118 242.85714,450.67617 247.57831,452.92001 252.10074,455.60173 256.42857,458.53331 259.93832,460.91074 262.72779,464.32291 266.42857,466.39045 268.53296,467.56612 271.26633,467.47055 273.21429,468.89045 276.024,470.9385 277.11614,474.71629 279.64286,477.10474 282.06677,479.39601 285.80979,480.18584 287.85714,482.81902 289.10581,484.42499 288.83384,486.86646 290,488.53331 292.51673,492.13059 297.00493,493.89476 300,497.10473 303.94709,501.33504 305.90755,507.33517 310.35714,511.03331 315.35253,515.18508 322.51203,515.9141 327.85714,519.60474 330.00566,521.08823 331.26509,523.73806 333.57142,524.96188 335.7483,526.11702 338.47423,525.72983 340.78221,526.59375 344.17681,527.86442 347.19542,529.97518 350.35714,531.74759 353.24243,533.36503 356.45864,534.54748 358.92857,536.74759 360.26199,537.93535 360.71161,539.96546 362.14286,541.03331 364.89013,543.08304 368.75732,542.99923 371.78572,544.60474 373.59532,545.5641 375.07921,547.04355 376.78572,548.17617 379.81382,550.18595 382.85817,552.19235 386.07143,553.89045 390.45308,556.206 395.09514,557.9924 399.64286,559.96188 408.40755,563.7576 416.53051,571.47847 426.07143,571.03331 430.11465,570.84466 432.98651,566.71518 436.78572,565.31902 440.85974,563.82186 445.2766,563.51174 449.50886,562.54887 455.16099,561.26297 460.79518,559.89897 466.42857,558.53331 478.46657,555.61504 487.42237,552.34831 502.5,549.60474 491.51725,544.0278 475.2807,541.77189 461.42857,538.89045 457.65363,538.10521 453.76307,537.94501 450,537.10474 442.13187,535.34783 434.39375,532.9859 426.78572,530.31902 417.91897,527.21091 409.52142,522.87794 400.71429,519.60474 394.00959,517.11291 386.95548,515.58019 380.35714,512.81902 373.57938,509.98277 367.24747,506.18056 360.71429,502.81902 357.73145,501.28425 354.77926,499.68995 351.78571,498.17617 344.80149,494.64439 337.9397,490.82674 330.71429,487.81903 327.34285,486.4156 323.61649,485.89466 320.35714,484.2476 316.61412,482.35613 313.6411,479.18567 310,477.10474 306.80925,475.28118 303.10451,474.42866 300,472.46188 298.42912,471.46669 297.23037,469.96727 295.71429,468.89045 292.8846,466.88064 289.39912,465.8173 286.78572,463.53331 285.63778,462.53006 285.15638,460.86562 283.92857,459.96188 281.56062,458.21892 278.33285,458.08486 275.71429,456.74759 273.94973,455.84645 272.32336,454.68944 270.71429,453.53331 267.61903,451.30934 264.85309,448.65272 261.78572,446.39045 258.54376,443.99942 255.17199,441.78659 251.78572,439.60474 249.67466,438.24454 247.85032,435.97742 245.35714,435.67617 Z"
       id="path847"
       inkscape:connector-curvature="0"
       sodipodi:nodetypes="aaaaaaaaaaaaaaaaaaaaaaaaaaacaaaaaaaaaaaaaaaaaaa" />
  </g>
</svg>
