<?xml version="1.0" encoding="UTF-8" standalone="no"?>
<!-- Created with Inkscape (http://www.inkscape.org/) -->

<svg
   xmlns:dc="http://purl.org/dc/elements/1.1/"
   xmlns:cc="http://creativecommons.org/ns#"
   xmlns:rdf="http://www.w3.org/1999/02/22-rdf-syntax-ns#"
   xmlns:svg="http://www.w3.org/2000/svg"
   xmlns="http://www.w3.org/2000/svg"
   xmlns:sodipodi="http://sodipodi.sourceforge.net/DTD/sodipodi-0.dtd"
   xmlns:inkscape="http://www.inkscape.org/namespaces/inkscape"
   width="512"
   height="512"
   viewBox="0 0 512 512"
   version="1.1"
   id="svg8"
   inkscape:version="0.92.4 (5da689c313, 2019-01-14)"
   sodipodi:docname="U+9761.svg">
  <defs
     id="defs2" />
  <sodipodi:namedview
     id="base"
     pagecolor="#ffffff"
     bordercolor="#666666"
     borderopacity="1.0"
     inkscape:pageopacity="0.0"
     inkscape:pageshadow="2"
     inkscape:zoom="1.6976017"
     inkscape:cx="365.92451"
     inkscape:cy="272.08318"
     inkscape:document-units="px"
     inkscape:current-layer="svg8"
     showgrid="false"
     units="px"
     viewbox-width="512"
     inkscape:window-width="1920"
     inkscape:window-height="1005"
     inkscape:window-x="-9"
     inkscape:window-y="-9"
     inkscape:window-maximized="1">
    <inkscape:grid
       type="xygrid"
       id="grid3724" />
  </sodipodi:namedview>
  <metadata
     id="metadata5">
    <rdf:RDF>
      <cc:Work
         rdf:about="">
        <dc:format>image/svg+xml</dc:format>
        <dc:type
           rdf:resource="http://purl.org/dc/dcmitype/StillImage" />
        <dc:title></dc:title>
      </cc:Work>
    </rdf:RDF>
  </metadata>
  <g
     inkscape:label="圖層 1"
     inkscape:groupmode="layer"
     id="layer1"
     transform="translate(0,-161.53332)" />
  <path
     style="stroke-width:0.774584"
     d=""
     id="path17"
     inkscape:connector-curvature="0" />
  <path
     style="fill:#000000;stroke:none;stroke-width:1px;stroke-linecap:butt;stroke-linejoin:miter;stroke-opacity:1;fill-opacity:1"
     d="M 235,7 C 245,22 255,27 255,27 L 265,32 C 265,32 274.80582,37.750441 277.71104,42.387292 279.45988,45.178501 280,52 280,52 L 300,47 C 300,47 309.22836,34.762535 307.67625,28.161876 306.38753,22.681329 295,17 295,17 295,17 287.06788,11.856266 282.71104,10.098336 276.0741,7.4204144 269.06768,5.2811587 261.93646,4.6762481 252.95654,3.9145207 250,2 235,7 Z"
     id="path831"
     inkscape:connector-curvature="0"
     sodipodi:nodetypes="cccaccacaac" />
  <path
     style="fill:#000000;stroke:none;stroke-width:1px;stroke-linecap:butt;stroke-linejoin:miter;stroke-opacity:1;fill-opacity:1"
     d="M 130,77 C 130,77 142.40638,81.260111 148.87292,81.612708 159.74753,82.205661 170.55906,79.343584 181.26626,77.352496 196.25986,74.56432 210.89171,70.093575 225.73979,66.612708 247.12686,61.598892 290,52 290,52 L 315,47 385,37 H 390 L 395,27 C 395,27 401.80969,26.034053 405,27 410.75141,28.741386 414.80254,33.983795 420,37 423.22333,38.870571 428.04072,38.829812 430,42 430.87622,43.417751 430,47 430,47 430,47 425,52 425,57 415,57 405,52 405,52 L 400,47 H 380 370 C 370,47 333.14712,52.768645 315,57 291.36691,62.510517 245,77 245,77 245,77 200,92 175,102 166.52415,102.61825 161.15796,100.04988 155,97 145.43678,92.263583 130,77 130,77 Z"
     id="path833"
     inkscape:connector-curvature="0"
     sodipodi:nodetypes="caaacccccaaaccccccaccac" />
  <path
     style="fill:#000000;stroke:none;stroke-width:1px;stroke-linecap:butt;stroke-linejoin:miter;stroke-opacity:1;fill-opacity:1"
     d="M 175,112 C 175,112 182.0249,138.71635 180,152 178.32118,163.01328 169.25331,171.71911 166.16188,182.42209 162.71372,194.36009 163.53926,207.16892 161.12708,219.35855 158.27545,233.76888 154.98029,248.18022 150,262 138.58345,293.67972 123.22252,323.88329 107.28896,353.54917 90.789155,384.26929 74.080058,415.24558 52.676248,442.77458 43.995023,453.94014 33.923916,464.10177 23.06354,473.16188 18.31658,477.12196 7.6762481,483.51437 7.6762481,483.51437 7.6762481,483.51437 18.874363,483.61004 23.942512,481.57791 33.466003,477.75936 40.778353,469.78546 48.55522,463.09228 56.154659,456.55181 70,442 70,442 70,442 93.888795,412.41597 105,397 115.54101,382.37512 125.95139,367.59239 135,352 140.61171,342.33001 145.36777,332.17558 150,322 151.94083,317.73659 154.15802,313.5356 155.3525,309.00605 158.5226,296.98477 160,272 160,272 L 175,202 C 175,202 174.48086,187.84802 177.28896,181.61271 180.9061,173.58093 195,162 195,162 195,162 200.5487,152.24182 200,147 198.91778,136.66131 189.85232,128.83891 184.22542,120.09834 181.33468,115.608 175,107 175,107 Z"
     id="path835"
     inkscape:connector-curvature="0"
     sodipodi:nodetypes="caaaaaaacaacaaaaccacaacc" />
  <path
     style="fill:#000000;stroke:none;stroke-width:1px;stroke-linecap:butt;stroke-linejoin:miter;stroke-opacity:1;fill-opacity:1"
     d="M 207.20121,156.07867 C 207.20121,156.07867 213.42666,163.04992 218.04539,163.04992 230.28256,155.30408 242.44479,150.26928 242.44479,150.26928 L 283.88503,134.39031 299.764,124.70801 H 309.4463 C 309.4463,124.70801 314.95967,128.45036 314.86839,131.29197 314.77748,134.12184 309.05901,137.48865 309.05901,137.48865 L 275.7519,151.43116 C 275.7519,151.43116 253.14996,161.27727 243.60666,168.8593 238.88073,172.61399 236.70091,179.18666 231.60061,182.41452 228.0793,184.64307 223.66597,186.78881 219.59456,185.90014 215.92816,185.09987 211.07413,178.5416 211.07413,178.5416 L 201.00454,171.57034 204.10288,164.98638 C 204.10288,164.98638 204.22953,157.10439 207.20121,156.07867 Z"
     id="path837"
     inkscape:connector-curvature="0"
     sodipodi:nodetypes="ccccccaccaaacccc" />
  <path
     style="fill:#000000;stroke:none;stroke-width:1px;stroke-linecap:butt;stroke-linejoin:miter;stroke-opacity:1;fill-opacity:1"
     d="M 239.73374,94.111943 C 238.01323,95.147828 235.47353,98.372155 235.47353,98.372155 235.47353,98.372155 233.47868,102.77806 234.08698,104.92688 234.57586,106.65386 236.13666,108.14801 237.79728,108.82904 239.94837,109.71122 242.54625,107.92109 244.76854,108.60436 248.12529,109.63643 251.13537,112.02705 253.28896,114.80103 254.36068,116.18148 255.22542,119.67321 255.22542,119.67321 255.22542,119.67321 261.7,200.60398 261.80938,240.89561 261.15418,247.91005 256.77459,261.03479 256.77459,261.03479 256.77459,261.03479 263.01043,267.73842 267.21813,268.38895 268.45967,268.5809 270.81107,267.25092 270.81107,267.25092 270.81107,267.25092 272.27416,260.78322 272.63006,257.49411 274.43445,240.81896 274.20273,207.2012 274.20273,207.2012 L 272.26627,155.69137 C 272.26627,155.69137 273.31926,139.72933 274.411,131.81264 275.22449,125.91356 278.51681,120.14812 277.68836,114.25113 277.12612,110.24904 275.2469,106.13617 272.26627,103.40695 264.99947,96.753101 244.76854,92.562776 244.76854,92.562776 244.76854,92.562776 241.23804,93.206231 239.73374,94.111943 Z"
     id="path824"
     inkscape:connector-curvature="0"
     sodipodi:nodetypes="acaaaacccacaccaaaca" />
  <path
     style="fill:#000000;stroke:none;stroke-width:1px;stroke-linecap:butt;stroke-linejoin:miter;stroke-opacity:1;fill-opacity:1"
     d="M 257.209,169.81831 C 258.99783,168.60384 263.66526,169.19351 263.66526,169.19351 263.66526,169.19351 268.30782,171.12455 269.49672,173.15057 271.11904,175.91519 270.32979,182.73082 270.32979,182.73082 L 255.33461,207.72279 C 255.33461,207.72279 242.97994,225.79299 235.96583,234.17262 231.96317,238.95453 227.52054,243.35886 223.05331,247.70994 218.82822,251.82518 209.93253,259.58112 209.93253,259.58112 L 192.85469,275.2011 C 192.85469,275.2011 190.18812,272.49824 190.35548,270.82751 190.72327,267.15604 195.26781,265.31904 197.64481,262.49685 203.11369,256.00369 208.50802,249.44257 213.68133,242.71155 218.49609,236.44703 223.27796,230.142 227.63517,223.55104 231.73877,217.34371 239.08983,204.39053 239.08983,204.39053 L 249.29488,185.23002 C 249.29488,185.23002 253.26417,175.14476 257.209,169.81831 Z"
     id="path826"
     inkscape:connector-curvature="0"
     sodipodi:nodetypes="ccaccaaccaaaaccc" />
  <path
     style="fill:#000000;stroke:none;stroke-width:1px;stroke-linecap:butt;stroke-linejoin:miter;stroke-opacity:1;fill-opacity:1"
     d="M 279.91004,186.68788 C 278.78312,188.64836 280.82724,191.20633 281.9927,193.14414 283.73861,196.04705 286.86666,197.86369 289.07376,200.43347 290.94637,202.6138 292.33718,205.18864 294.28042,207.30626 296.87264,210.13109 302.81934,215.01211 302.81934,215.01211 L 307.40121,218.34438 315.73186,221.88491 H 320.10546 L 319.89719,215.84518 318.64759,210.22199 C 318.64759,210.22199 317.15348,206.65726 316.14839,205.01533 315.19151,203.45215 312.81613,200.64173 312.81613,200.64173 L 309.06734,196.05987 C 309.06734,196.05987 304.25511,192.28393 301.56974,190.85322 298.87322,189.41656 295.89405,188.58733 293.03082,187.52095 290.89087,186.72395 286.57457,185.23002 286.57457,185.23002 286.57457,185.23002 281.04332,184.71635 279.91004,186.68788 Z"
     id="path828"
     inkscape:connector-curvature="0"
     sodipodi:nodetypes="aaaaccccccaccaaca" />
  <path
     style="fill:#000000;stroke:none;stroke-width:1px;stroke-linecap:butt;stroke-linejoin:miter;stroke-opacity:1;fill-opacity:1"
     d="M 322.18812,138.16182 C 322.18812,138.16182 345.49208,130.73299 357.17688,127.12369 366.11592,124.36252 375.16493,121.95192 384.04324,119.0013 392.73356,116.11316 409.86827,109.62932 409.86827,109.62932 409.86827,109.62932 419.45049,110.50983 423.82212,112.33678 426.77138,113.5693 431.73625,117.75171 431.73625,117.75171 L 429.86185,121.70877 C 429.86185,121.70877 401.98655,130.01261 388.0003,133.99648 380.72736,136.06812 373.1872,137.31294 366.13233,140.03621 358.22523,143.08846 343.43129,151.49086 343.43129,151.49086 343.43129,151.49086 336.09366,154.72868 332.18491,154.82312 328.96987,154.9008 322.81292,152.53219 322.81292,152.53219 L 322.60465,149.19993 320.93852,145.6594 318.43932,142.74367 Z"
     id="path830"
     inkscape:connector-curvature="0"
     sodipodi:nodetypes="caacaccaacaccccc" />
  <path
     style="fill:#000000;stroke:none;stroke-width:1px;stroke-linecap:butt;stroke-linejoin:miter;stroke-opacity:1;fill-opacity:1"
     d="M 346.34703,64.85204 C 342.9933,65.600437 339.0577,72.141364 339.0577,72.141364 L 341.34863,75.057094 337.39157,83.596016 C 337.83283,85.092377 341.34863,86.095213 341.34863,86.095213 341.34863,86.095213 348.55833,85.555907 351.97022,86.511746 356.0997,87.668617 360.2263,89.685807 363.2166,92.759737 365.94464,95.564074 367.44342,99.445468 368.63152,103.17306 370.01493,107.51341 370.50592,116.71037 370.50592,116.71037 L 373.62992,149.82473 C 373.62992,149.82473 376.86253,168.36479 377.58698,177.73243 377.98313,182.85484 377.79524,193.14415 377.79524,193.14415 L 376.12912,212.72118 C 376.12912,212.72118 374.21162,230.05436 374.25472,238.75448 374.27577,243.00338 373.56954,247.57637 375.29605,251.45873 375.9546,252.93958 378.62831,254.99926 378.62831,254.99926 L 384.87631,257.70672 C 387.68213,256.987 388.41042,252.94425 389.45817,250.20914 390.82201,246.64889 391.15507,242.75571 391.54083,238.96275 392.25746,231.91668 392.09448,224.80067 391.95736,217.71958 391.77291,208.19433 390.51918,198.71139 390.29123,189.18708 389.97396,175.93052 390.70777,149.4082 390.70777,149.4082 L 389.8747,136.70395 388.6251,105.46399 C 388.6251,105.46399 388.73288,94.832713 386.7507,90.052275 385.02726,85.895813 381.77848,82.425245 378.42005,79.430688 374.95421,76.340362 370.73316,74.154773 366.54887,72.141364 360.09793,69.037288 353.54234,65.792054 346.34703,64.85204 Z"
     id="path832"
     inkscape:connector-curvature="0"
     sodipodi:nodetypes="cccccaaaccaccaaccaaaacccaaac" />
  <path
     style="fill:#000000;stroke:none;stroke-width:1px;stroke-linecap:butt;stroke-linejoin:miter;stroke-opacity:1;fill-opacity:1"
     d="M 376.12912,139.20314 C 373.69357,139.97359 372.07245,142.54532 370.92246,144.82634 369.7456,147.16064 369.46459,152.53219 369.46459,152.53219 L 364.67446,164.40338 C 364.67446,164.40338 357.13876,175.95984 353.01155,181.48123 350.38248,184.9984 347.45967,188.28614 344.68089,191.68628 340.31027,197.03421 331.56011,207.72279 331.56011,207.72279 331.56011,207.72279 327.1449,213.01899 324.68732,215.42865 321.03123,219.01344 313.0244,225.42543 313.0244,225.42543 313.0244,225.42543 319.50301,226.61461 322.60466,225.84197 326.59051,224.84907 333.22624,219.59397 333.22624,219.59397 333.22624,219.59397 341.66023,214.36756 345.51396,211.26332 351.6325,206.33475 357.03688,200.57463 362.59181,195.01854 366.7233,190.88618 371.08542,186.92812 374.67125,182.31429 378.19351,177.78226 380.53887,172.43472 383.83497,167.73564 386.81745,163.48368 391.72681,160.3595 393.41523,155.44792 394.45338,152.42796 395.029,148.62332 393.41523,145.86767 391.76599,143.05147 387.92934,142.23076 384.87631,141.07754 382.08676,140.02384 378.97218,138.30378 376.12912,139.20314 Z"
     id="path834"
     inkscape:connector-curvature="0"
     sodipodi:nodetypes="aaccaacacacaaaaaaaa" />
  <path
     style="fill:#000000;stroke:none;stroke-width:1px;stroke-linecap:butt;stroke-linejoin:miter;stroke-opacity:1;fill-opacity:1"
     d="M 406.11948,187.52095 C 409.73677,194.01425 411.69542,196.81533 415.908,200.01693 419.07971,202.42746 423.27356,203.0552 426.94612,204.59879 430.21509,205.97275 433.69746,206.93397 436.73464,208.76412 439.18628,210.24145 439.05144,213.38577 443.39916,214.17905 445.13721,214.49617 451.18929,217.15351 448.39756,215.84518 445.45178,214.46466 453.08906,220.44716 455.89515,222.09317 460.57695,224.83944 465.78721,226.80643 471.0986,227.92463 473.88716,228.5117 479.63752,228.34116 479.63752,228.34116 479.63752,228.34116 482.59394,226.21033 482.76151,224.59237 483.02066,222.09022 480.37366,220.16375 479.22099,217.92784 477.86951,215.30628 477.48402,211.95543 475.26392,210.01372 465.96602,206.04577 460.26498,204.88744 452.77115,202.30786 443.53335,199.12795 434.40357,195.6199 425.07172,192.72761 418.81392,190.78808 412.76811,189.59121 406.11948,187.52095 Z"
     id="path836"
     inkscape:connector-curvature="0"
     sodipodi:nodetypes="caaassaaccacaac" />
  <path
     style="fill:#000000;stroke:none;stroke-width:1px;stroke-linecap:butt;stroke-linejoin:miter;stroke-opacity:1;fill-opacity:1"
     d="M 204.51761,292.07068 C 201.3918,293.22747 200.01481,297.13636 198.68615,300.19307 197.41613,303.11485 196.73596,306.3801 196.81175,309.56506 196.85942,311.56814 198.16156,313.39579 198.26961,315.39652 198.37921,317.42586 196.97409,319.45726 197.43655,321.43624 197.9711,323.72371 199.62156,325.72559 201.39361,327.2677 205.30483,330.6714 210.34431,332.77988 215.34746,334.14049 219.91502,335.38264 224.81583,335.79362 229.50957,335.18183 233.51531,334.65972 237.5395,333.36717 240.96422,331.22477 242.96182,329.97513 245.96262,326.22637 245.96262,326.22637 245.96262,326.22637 248.7428,322.19875 248.04528,320.18665 247.28839,318.00329 243.76967,317.28163 242.21382,316.43785 237.53591,315.77529 231.73599,314.26647 226.80211,312.27252 224.67029,311.41098 222.34156,310.61152 220.76238,308.94026 218.11802,306.1417 217.61299,301.90418 215.76399,298.52694 214.94059,297.02299 214.44413,295.16053 213.05653,294.15335 210.68553,292.43237 207.26524,291.05385 204.51761,292.07068 Z"
     id="path838"
     inkscape:connector-curvature="0"
     sodipodi:nodetypes="aaaaaaaaacacaaaaa" />
  <path
     style="fill:#000000;stroke:none;stroke-width:1px;stroke-linecap:butt;stroke-linejoin:miter;stroke-opacity:1;fill-opacity:1"
     d="M 192.64642,363.08952 C 189.92795,364.54012 189.73069,371.42018 189.73069,371.42018 189.73069,371.42018 189.40428,375.18427 190.14722,376.8351 191.37629,379.56611 196.39521,383.29137 196.39521,383.29137 196.39521,383.29137 200.67593,388.32877 203.68454,389.12282 207.08341,390.01987 210.73845,388.49177 214.09785,387.45669 218.93554,385.96614 223.19203,382.99775 227.84345,381.00044 233.45841,378.58939 244.92129,374.33591 244.92129,374.33591 L 251.37754,369.96232 C 251.37754,369.96232 255.21349,363.93628 253.87674,361.42339 250.7708,358.37531 245.52193,357.13439 240.96422,356.84153 234.72716,356.44077 222.63678,360.79859 222.63678,360.79859 222.63678,360.79859 214.57668,363.86531 210.34906,364.54739 207.46974,365.01194 201.60187,364.75566 201.60187,364.75566 201.60187,364.75566 194.52024,362.08963 192.64642,363.08952 Z"
     id="path840"
     inkscape:connector-curvature="0"
     sodipodi:nodetypes="ccaccaacccacacc" />
  <path
     style="fill:#000000;stroke:none;stroke-width:1px;stroke-linecap:butt;stroke-linejoin:miter;stroke-opacity:1;fill-opacity:1"
     d="M 194.31255,434.31663 C 194.31255,434.31663 201.32229,431.65676 204.5176,429.73477 207.90903,427.69482 211.00274,425.1527 213.88959,422.44545 219.84433,416.86116 224.85176,410.34192 230.13437,404.118 234.76493,398.66233 239.37842,393.18157 243.67169,387.45669 246.45607,383.74384 248.96044,379.82898 251.58581,376.00204 254.86451,371.22275 261.37433,361.63166 261.37433,361.63166 L 267.41406,354.13407 265.33139,364.75566 C 265.33139,364.75566 260.44821,380.45079 257.41727,388.0815 253.10545,398.93698 247.25476,409.13279 242.83862,419.94625 239.12737,429.03369 232.84183,447.64568 232.84183,447.64568 232.84183,447.64568 230.68914,458.79407 226.80211,462.43259 225.03913,464.08287 219.92932,464.72353 219.92932,464.72353 219.92932,464.72353 211.62007,461.17895 208.05813,458.47553 205.31987,456.39727 200.97707,450.97795 200.97707,450.97795 200.97707,450.97795 195.09963,446.85507 193.89602,443.68862 192.78494,440.76558 192.85067,436.59973 194.31255,434.31663 Z"
     id="path842"
     inkscape:connector-curvature="0"
     sodipodi:nodetypes="caaaaacccaacccacac" />
  <path
     style="fill:#000000;stroke:none;stroke-width:1px;stroke-linecap:butt;stroke-linejoin:miter;stroke-opacity:1;fill-opacity:1"
     d="M 253.25194,269.57791 247.83702,273.95151 246.79568,280.61603 C 247.21415,280.61603 245.05596,282.42971 241.58902,284.57309 241.27648,286.25897 243.79136,288.15828 245.54609,289.15496 247.63019,290.33872 252.62714,290.40455 252.62714,290.40455 252.62714,290.40455 259.51013,292.85325 262.8322,294.36161 265.82926,295.7224 269.19004,296.6796 271.57939,298.94347 273.74869,300.99884 275.25215,303.80259 276.16125,306.64933 277.45383,310.6969 276.78605,318.52051 277.20258,319.35358 277.61911,320.18664 281.36791,333.5157 281.36791,333.5157 281.36791,333.5157 281.80572,340.73443 281.99271,344.34555 282.38442,351.91038 282.56345,359.48625 283.03404,367.04659 283.41907,373.23227 284.53246,379.38478 284.4919,385.5823 284.44719,392.41415 282.6175,405.9924 282.6175,405.9924 282.6175,405.9924 281.99063,410.98388 281.78444,413.48999 281.46521,417.37009 281.89804,421.33036 281.15964,425.15291 280.50592,428.53707 278.28166,431.52478 277.82737,434.94143 277.39644,438.18239 278.45218,444.72995 278.45218,444.72995 278.45218,444.72995 281.27215,449.43914 283.45057,450.97795 286.39144,453.05534 293.65562,454.51847 293.65562,454.51847 293.65562,454.51847 297.0416,449.04905 297.82095,445.97955 299.39419,439.78328 298.65402,426.81904 298.65402,426.81904 298.65402,426.81904 297.99756,415.43785 297.82095,409.7412 297.49608,399.26257 297.58777,388.77503 297.40442,378.29297 297.29269,371.9056 296.94192,365.52064 296.98789,359.13246 297.02938,353.36681 297.59456,347.61212 297.61268,341.84635 297.62731,337.19302 297.50936,332.5353 297.19615,327.8925 296.83906,322.5993 296.10472,317.33827 295.53002,312.06426 294.9927,307.13329 294.41054,302.20729 293.86389,297.27735 293.44059,293.45987 293.92382,290.05175 292.61429,285.82269 289.92845,281.82673 279.91004,278.9499 279.91004,278.9499 279.91004,278.9499 276.06887,276.10554 274.07859,274.78457 270.54693,272.44058 267.14267,269.79459 263.24873,268.12005 261.26862,267.26853 259.1056,265.98971 257.00074,266.45392 255.4123,266.80424 253.25194,269.57791 253.25194,269.57791 Z"
     id="path844"
     inkscape:connector-curvature="0"
     sodipodi:nodetypes="ccccacaaaccaaacaaacacacaaaaaaaccaaac" />
  <path
     style="fill:#000000;stroke:none;stroke-width:1px;stroke-linecap:butt;stroke-linejoin:miter;stroke-opacity:1;fill-opacity:1"
     d="M 412.36747,242.50328 C 409.43811,243.33479 406.11948,249.16781 406.11948,249.16781 L 406.74428,253.33313 C 406.74428,253.33313 406.43895,259.76111 405.28641,262.70512 403.51759,267.22333 400.3989,271.16816 397.16402,274.78457 394.37278,277.90502 390.81543,280.24526 387.58377,282.90696 385.18193,284.88519 382.0444,286.1655 380.29444,288.73842 379.23237,290.29995 378.62831,294.15334 378.62831,294.15334 378.62831,294.15334 386.42174,291.42624 390.29123,289.98802 396.43018,287.70627 402.56761,285.41246 408.61868,282.90696 412.26571,281.39687 415.72624,279.43052 419.44853,278.11683 422.2275,277.13606 425.33748,277.11519 427.98746,275.8259 430.48449,274.61103 433.49787,273.3532 434.65198,270.82751 436.30063,267.21954 435.12747,262.70107 433.81891,258.95632 432.9296,256.41136 430.94553,254.37717 429.23705,252.2918 427.15247,249.74736 422.36426,245.21074 422.36426,245.21074 422.36426,245.21074 415.68858,241.56057 412.36747,242.50328 Z"
     id="path846"
     inkscape:connector-curvature="0"
     sodipodi:nodetypes="accaaaacaaaaaaaca" />
  <path
     style="fill:#000000;stroke:none;stroke-width:1px;stroke-linecap:butt;stroke-linejoin:miter;stroke-opacity:1;fill-opacity:1"
     d="M 366.75713,326.85117 C 366.75713,326.85117 375.57711,324.88465 379.87791,323.51891 385.05116,321.87612 390.3216,320.29626 395.08136,317.68745 396.82251,316.73313 397.90445,314.41722 399.87149,314.14692 405.09574,313.42904 414.6584,319.77012 414.6584,319.77012 L 418.61546,324.35197 C 418.61546,324.35197 418.38379,328.38249 417.57414,330.18343 416.88505,331.71619 415.87817,333.25454 414.45014,334.14049 409.02387,337.50692 401.99044,336.96392 395.70616,338.09756 391.56114,338.84529 387.41115,340.27557 383.21018,339.97195 379.3768,339.6949 375.35577,338.79273 372.17206,336.63969 370.69917,335.64362 369.71513,334.02205 368.83979,332.47436 367.85578,330.73453 366.75713,326.85117 366.75713,326.85117 Z"
     id="path848"
     inkscape:connector-curvature="0"
     sodipodi:nodetypes="caaaccaaaaaac" />
  <path
     style="fill:#000000;stroke:none;stroke-width:1px;stroke-linecap:butt;stroke-linejoin:miter;stroke-opacity:1;fill-opacity:1"
     d="M 366.9654,385.16576 C 374.74758,382.04163 376.03675,382.0362 380.71098,381.00044 383.58656,380.36324 386.53194,380.08572 389.45817,379.75084 393.47338,379.29133 401.53762,378.7095 401.53762,378.7095 401.53762,378.7095 407.23797,377.78915 410.07654,378.08471 414.31616,378.52615 422.36426,381.62523 422.36426,381.62523 L 434.23544,387.66496 C 434.23544,387.66496 447.76867,397.96177 453.81248,403.90974 457.9181,407.95025 463.44834,411.49988 465.05887,417.03052 465.7451,419.38708 464.01754,424.31985 464.01754,424.31985 464.01754,424.31985 462.28713,428.94256 460.26874,429.94304 458.27445,430.93157 453.60421,429.52651 453.60421,429.52651 453.60421,429.52651 444.75135,425.71531 440.48343,423.48678 435.98736,421.13913 431.58496,418.5913 427.36265,415.78092 424.76205,414.04996 422.66575,411.54175 419.86506,410.15773 413.20536,406.86669 405.31154,406.87505 398.41362,404.11801 394.54956,402.57358 391.25658,399.7877 387.3755,398.28655 382.96268,396.57973 377.51465,397.44696 373.62992,394.74602 370.43593,392.52533 367.75094,389.66632 366.9654,385.16576 Z"
     id="path850"
     inkscape:connector-curvature="0"
     sodipodi:nodetypes="caacaccaacacaaaaaac" />
  <path
     style="fill:#000000;stroke:none;stroke-width:1px;stroke-linecap:butt;stroke-linejoin:miter;stroke-opacity:1;fill-opacity:1"
     d="M 320.93852,247.70994 314.06573,253.95793 C 314.06573,253.95793 310.73666,256.62127 310.5252,258.53979 310.25641,260.97848 311.64679,263.78663 313.6492,265.20431 315.35746,266.41373 319.89719,265.82912 319.89719,265.82912 L 326.35345,271.45231 C 326.35345,271.45231 331.46269,275.7954 333.64277,278.3251 334.91254,279.79851 336.32363,281.28249 336.97503,283.11523 340.37909,292.69263 338.5969,303.37981 339.26596,313.52212 340.23628,328.2312 341.2623,342.94213 341.76516,357.6746 342.17015,369.53969 341.61895,381.4295 342.18169,393.28815 342.45906,399.13325 343.39637,404.93591 343.63956,410.78253 343.82421,415.22171 343.53386,419.66982 343.63956,424.11158 343.74372,428.48889 344.26436,436.19103 344.26436,437.23236 344.26436,438.27369 343.63956,448.06222 343.63956,448.06222 343.63956,448.06222 343.63956,448.06222 338.64117,452.01928 338.64117,452.01928 338.69529,455.84495 339.26596,457.64247 339.96172,459.83401 342.59823,463.6822 342.59823,463.6822 342.59823,463.6822 342.1866,466.84799 343.01476,468.05579 344.77047,470.61633 351.34542,472.22112 351.34542,472.22112 L 358.21821,474.51205 C 358.21821,474.51205 362.23,466.83634 363.00833,462.64086 363.76821,458.54484 362.79047,454.31077 362.80007,450.14488 362.80759,446.88131 363.20739,443.61386 363.00833,440.35636 362.59333,433.56531 360.60512,426.93891 360.0926,420.15452 359.39182,410.87813 359.82216,401.54944 359.88434,392.24682 359.92889,385.581 360.38114,378.91874 360.30087,372.25325 360.2264,366.06889 359.60669,359.90079 359.46781,353.71754 359.32907,347.54053 359.46781,335.18183 359.46781,335.18183 359.46781,335.18183 360.58519,323.74021 359.05128,316.64612 357.84339,314.97238 353.21981,314.56345 353.21981,314.56345 L 356.13554,306.8576 358.21821,299.56827 355.92728,297.48561 358.21821,287.69709 C 358.21821,287.69709 358.01055,283.04563 357.38514,280.82429 356.43377,277.44522 354.75429,274.29136 353.01155,271.24404 351.3288,268.30161 349.76674,265.10399 347.18009,262.91338 342.01439,258.5386 337.83231,257.15792 328.85264,254.1662 327.73973,252.92239 327.61195,249.3877 325.72865,248.12647 324.39696,247.23465 320.93852,247.70994 320.93852,247.70994 Z"
     id="path852"
     inkscape:connector-curvature="0"
     sodipodi:nodetypes="ccaaccaaaaaaasccacaccaaaaaaacccccccaaacac" />
</svg>
