<?xml version="1.0" standalone="no"?>
<!DOCTYPE svg PUBLIC "-//W3C//DTD SVG 1.1//EN" "http://www.w3.org/Graphics/SVG/1.1/DTD/svg11.dtd" >
<svg xmlns="http://www.w3.org/2000/svg" xmlns:xlink="http://www.w3.org/1999/xlink" version="1.1" viewBox="0 0 256 256">
  <g transform="matrix(1 0 0 -1 0 204)">
   <path fill="currentColor"
d="M109 111q-10 -4 -31 1q-4 1 1 2q9 0 26 3q2 0 3 1q-1 1 -2 3q-5 13 -8 18q-5 6 2 2q14 -12 19 -21q4 1 14 3q13 3 27 7q4 13 9 34q1 9 0 12q-1 2 0 2q0 1 3 0q4 -2 10 -6q3 -2 -1 -5q-2 -2 -6 -14l-7 -21q6 1 12 3q6 1 9 5q3 5 9 2q2 -2 7 -2q4 -1 7 -2q2 -2 2 -4
q-2 -2 -4 -1q-16 0 -24 -1q-4 -2 -10 -3t-9 -2q-13 -28 -30 -35q-5 -2 -1 2q13 9 22 30q-20 -5 -37 -10q-1 0 1 0q0 -2 3 -12q0 -3 -1 -4t-4 0q-7 0 -10 12v1q-2 0 -1 0zM207 96q3 6 11 2q19 -8 30 -14q3 -3 1 -5q-3 -3 -7 0q-20 14 -47 10q-48 -7 -111 -18q-22 -42 -28 -72
q-1 -2 -2 -2q-1 -1 -2 0q-5 2 0 9q12 34 29 64q-17 -4 -25 -5q-8 0 -14 1q-4 1 0 2q10 0 41 6q2 5 3 6q1 0 0 -5q3 0 7 1q37 7 100 14q12 2 14 6zM186 55q16 -12 27 -27q2 -5 -2 -6q-5 -2 -7 4q-8 13 -20 27q-3 3 2 2zM102 52q3 4 2 -1q-4 -5 -1 -6q4 -1 8 1q8 2 1 -2
q-9 -7 -15 -15q-6 -2 -6 2q-1 11 11 21zM51 173q17 -3 29 -7q1 -4 -3 -5q-7 1 -8 0q-3 -2 -6 0q-1 0 -5 -2l-3 -1q-1 1 1 4q3 2 0 4h-2q-4 3 -5 6q-2 2 2 1zM43 103q4 1 10 0q4 -3 1 -5q-12 -5 -29 0q-5 1 0 2q9 -1 18 3z" />
  </g>

</svg>
